{"glyphs":{"0":{"ha":753,"x_min":78,"x_max":739,"o":"m 739 702 q 683 338 739 505 q 531 77 627 172 q 315 -17 435 -17 q 139 67 200 -17 q 78 303 78 151 q 138 650 78 486 q 294 901 197 814 q 509 989 390 989 q 679 915 618 989 q 739 702 739 840 m 652 695 q 613 858 652 801 q 500 915 574 915 q 369 864 429 915 q 263 722 308 814 q 192 516 218 629 q 166 305 166 403 q 209 117 166 177 q 326 58 251 58 q 486 141 414 58 q 605 381 557 224 q 652 695 652 538 z "},"1":{"ha":555,"x_min":124,"x_max":480,"o":"m 372 877 l 124 805 l 142 890 l 480 989 l 271 0 l 185 0 l 372 877 z "},"2":{"ha":663,"x_min":-50,"x_max":667,"o":"m 578 764 q 534 874 578 833 q 413 915 490 915 q 169 821 300 915 l 190 918 q 429 989 294 989 q 602 931 538 989 q 667 775 667 874 q 641 634 667 692 q 557 522 616 576 q 367 384 498 467 q 196 270 260 317 q 101 182 132 223 q 56 77 71 140 l 538 77 l 522 0 l -50 0 l -40 47 q -3 163 -24 121 q 52 241 18 204 q 149 326 86 279 q 309 433 212 372 q 479 555 427 507 q 555 651 532 602 q 578 764 578 699 z "},"3":{"ha":637,"x_min":-37,"x_max":632,"o":"m -18 122 q 87 75 26 93 q 201 58 149 58 q 395 115 326 58 q 465 278 465 172 q 404 417 465 369 q 222 465 344 465 l 150 465 l 168 542 l 239 542 q 467 599 390 542 q 544 762 544 656 q 499 874 544 833 q 379 915 455 915 q 170 856 277 915 l 186 944 q 391 989 283 989 q 567 930 503 989 q 632 773 632 871 q 565 595 632 667 q 377 502 498 524 l 377 499 q 503 427 455 486 q 551 284 551 368 q 455 65 551 147 q 195 -17 359 -17 q 72 -2 137 -17 q -37 37 7 14 l -18 122 z "},"4":{"ha":737,"x_min":14,"x_max":726,"o":"m 621 972 l 713 972 l 574 319 l 726 319 l 710 242 l 558 242 l 507 0 l 422 0 l 474 242 l 14 242 l 31 319 q 350 642 185 460 q 621 972 514 824 m 490 319 l 598 827 q 132 319 395 571 l 490 319 z "},"5":{"ha":652,"x_min":7,"x_max":676,"o":"m 27 104 q 115 71 61 83 q 217 58 168 58 q 367 90 304 58 q 465 180 431 121 q 498 317 498 239 q 281 506 498 506 q 123 498 204 506 l 252 972 l 676 972 l 660 893 l 311 893 l 224 578 l 304 581 q 512 515 437 581 q 587 331 587 450 q 542 150 587 229 q 412 26 496 70 q 211 -17 327 -17 q 7 18 88 -17 l 27 104 z "},"6":{"ha":721,"x_min":87,"x_max":743,"o":"m 183 461 q 287 568 222 529 q 430 608 351 608 q 607 538 542 608 q 671 348 671 469 q 630 162 671 247 q 516 31 589 78 q 353 -17 443 -17 q 157 73 227 -17 q 87 325 87 163 q 155 661 87 505 q 336 903 222 817 q 590 989 450 989 q 743 962 673 989 l 726 880 q 578 915 659 915 q 399 857 482 915 q 257 691 316 799 q 180 461 199 583 l 183 461 m 357 58 q 473 95 420 58 q 554 198 525 132 q 584 340 584 264 q 536 481 584 429 q 407 533 489 533 q 289 501 342 533 q 206 412 236 469 q 176 289 176 355 q 225 121 176 184 q 357 58 275 58 z "},"7":{"ha":654,"x_min":66,"x_max":734,"o":"m 66 0 q 260 397 133 184 q 606 893 387 610 l 110 893 l 126 972 l 734 972 l 724 926 q 440 536 535 679 q 277 263 345 394 q 162 0 208 132 l 66 0 z "},"8":{"ha":711,"x_min":31,"x_max":707,"o":"m 278 527 q 200 602 229 555 q 170 715 170 650 q 209 852 170 789 q 317 952 248 916 q 470 989 387 989 q 641 930 575 989 q 707 778 707 871 q 654 618 707 684 q 509 522 602 552 q 608 437 572 494 q 644 310 644 380 q 598 146 644 221 q 472 27 552 71 q 300 -16 392 -16 q 102 50 174 -16 q 31 230 31 115 q 98 418 31 336 q 278 527 164 499 m 123 233 q 173 106 123 153 q 307 60 222 60 q 429 94 372 60 q 519 185 486 127 q 552 311 552 243 q 505 436 552 389 q 379 484 457 484 q 251 451 311 484 q 157 360 192 418 q 123 233 123 302 m 258 707 q 298 598 258 640 q 405 557 339 557 q 508 585 458 557 q 587 663 557 614 q 617 768 617 712 q 574 874 617 833 q 463 915 531 915 q 318 853 378 915 q 258 707 258 792 z "},"9":{"ha":727,"x_min":41,"x_max":698,"o":"m 55 92 q 199 58 123 58 q 463 179 354 58 q 606 502 572 300 l 603 502 q 499 394 564 433 q 360 355 435 355 q 230 391 286 355 q 143 489 174 426 q 113 627 113 551 q 154 807 113 723 q 270 940 195 891 q 435 989 345 989 q 629 899 560 989 q 698 649 698 810 q 630 309 698 469 q 448 66 562 150 q 193 -17 335 -17 q 41 10 103 -17 l 55 92 m 376 430 q 497 463 443 430 q 581 554 551 496 q 610 678 610 612 q 562 851 610 787 q 431 915 514 915 q 313 877 367 915 q 230 774 260 839 q 200 635 200 710 q 249 487 200 543 q 376 430 297 430 z "},"\r":{"ha":0,"x_min":0,"x_max":0,"o":""}," ":{"ha":382,"x_min":0,"x_max":0,"o":""},"!":{"ha":400,"x_min":76,"x_max":374,"o":"m 281 972 l 374 972 l 217 273 l 142 273 l 281 972 m 76 52 q 94 98 76 79 q 140 116 113 116 q 185 98 165 116 q 204 52 204 79 q 185 6 204 24 q 140 -12 166 -12 q 94 6 113 -12 q 76 52 76 25 z "},"\"":{"ha":481,"x_min":191,"x_max":448,"o":"m 370 972 l 448 972 l 441 669 l 376 669 l 370 972 m 191 972 l 269 972 l 262 669 l 197 669 l 191 972 z "},"#":{"ha":831,"x_min":73,"x_max":826,"o":"m 257 353 l 73 353 l 85 415 l 271 415 l 317 635 l 124 635 l 137 697 l 330 697 l 389 972 l 457 972 l 399 697 l 576 697 l 635 972 l 703 972 l 644 697 l 826 697 l 812 635 l 631 635 l 584 415 l 775 415 l 761 353 l 571 353 l 512 83 l 444 83 l 502 353 l 326 353 l 268 83 l 199 83 l 257 353 m 515 415 l 563 635 l 386 635 l 338 415 l 515 415 z "},"$":{"ha":731,"x_min":49,"x_max":692,"o":"m 64 136 q 159 93 104 111 q 271 69 215 75 l 354 454 q 214 587 252 529 q 176 719 176 644 q 255 899 176 826 q 465 977 335 972 l 490 1095 l 551 1095 l 526 975 q 692 939 610 970 l 675 854 q 510 903 604 897 l 425 507 q 564 377 525 433 q 604 255 604 321 q 528 71 604 141 q 318 -5 452 0 l 288 -142 l 227 -142 l 256 -3 q 143 14 201 -1 q 49 49 85 29 l 64 136 m 448 903 q 314 846 364 897 q 264 723 264 796 q 288 633 264 673 q 373 545 311 593 l 448 903 m 334 69 q 468 123 420 76 q 516 245 516 171 q 491 330 516 290 q 407 415 465 370 l 334 69 z "},"%":{"ha":1124,"x_min":109,"x_max":1064,"o":"m 806 -14 q 669 39 719 -14 q 618 180 618 92 q 653 332 618 261 q 749 445 688 404 q 882 486 810 486 q 1015 433 966 486 q 1064 292 1064 381 q 990 75 1064 164 q 806 -14 916 -14 m 954 972 l 1039 972 l 228 0 l 142 0 l 954 972 m 296 487 q 159 539 210 487 q 109 681 109 592 q 144 833 109 762 q 240 945 179 905 q 372 986 300 986 q 505 935 455 986 q 555 793 555 884 q 522 640 555 711 q 428 528 488 570 q 296 487 368 487 m 809 50 q 938 120 886 50 q 989 288 989 190 q 960 386 989 351 q 878 421 930 421 q 748 351 801 421 q 695 182 695 280 q 725 85 695 120 q 809 50 755 50 m 300 551 q 428 620 376 551 q 479 789 479 689 q 450 887 479 852 q 368 922 420 922 q 238 852 291 922 q 185 683 185 781 q 216 586 185 621 q 300 551 246 551 z "},"&":{"ha":1038,"x_min":62,"x_max":928,"o":"m 671 106 q 338 -19 525 -19 q 137 50 212 -19 q 62 226 62 118 q 132 402 62 330 q 360 535 201 475 q 293 653 310 606 q 275 749 275 701 q 351 921 275 852 q 539 989 426 989 q 708 935 644 989 q 772 791 772 880 q 702 630 772 696 q 481 507 631 564 l 689 224 q 846 515 798 345 l 928 515 q 734 162 872 306 l 854 0 l 749 0 l 671 106 m 688 786 q 648 881 688 845 q 537 917 608 917 q 410 870 459 917 q 360 749 360 824 q 377 668 360 710 q 438 564 395 625 q 631 663 574 614 q 688 786 688 712 m 628 165 l 401 477 q 202 367 256 420 q 149 230 149 313 q 203 104 149 153 q 347 56 258 56 q 628 165 500 56 z "},"'":{"ha":296,"x_min":189,"x_max":266,"o":"m 189 972 l 266 972 l 259 669 l 196 669 l 189 972 z "},"(":{"ha":410,"x_min":85,"x_max":530,"o":"m 198 -196 q 85 211 85 -9 q 170 610 85 429 q 441 972 256 792 l 530 972 q 253 605 341 787 q 164 218 164 424 q 194 -1 164 106 q 277 -196 224 -109 l 198 -196 z "},")":{"ha":410,"x_min":-110,"x_max":336,"o":"m -110 -196 q 169 174 81 -7 q 256 557 256 355 q 143 972 256 785 l 222 972 q 336 565 336 777 q 253 172 336 352 q -22 -196 170 -9 l -110 -196 z "},"*":{"ha":572,"x_min":127,"x_max":599,"o":"m 321 712 l 127 757 l 149 827 l 337 759 l 324 972 l 401 972 l 389 759 l 576 827 l 599 757 l 406 712 l 538 538 l 476 496 l 363 680 l 250 496 l 188 538 l 321 712 z "},"+":{"ha":925,"x_min":165,"x_max":791,"o":"m 165 441 l 443 441 l 443 718 l 514 718 l 514 441 l 791 441 l 791 368 l 514 368 l 514 92 l 443 92 l 443 368 l 165 368 l 165 441 z "},",":{"ha":306,"x_min":-33,"x_max":187,"o":"m 97 154 l 187 154 l 38 -173 l -33 -173 l 97 154 z "},"-":{"ha":554,"x_min":93,"x_max":481,"o":"m 110 434 l 481 434 l 464 361 l 93 361 l 110 434 z "},".":{"ha":306,"x_min":31,"x_max":159,"o":"m 94 -14 q 50 5 68 -14 q 31 51 31 23 q 49 96 31 78 q 94 115 67 115 q 140 96 121 115 q 159 51 159 78 q 139 5 159 24 q 94 -14 120 -14 z "},"/":{"ha":543,"x_min":-112,"x_max":683,"o":"m 593 972 l 683 972 l -23 -161 l -112 -161 l 593 972 z "},":":{"ha":306,"x_min":31,"x_max":283,"o":"m 218 580 q 174 598 193 580 q 155 645 155 616 q 174 690 155 672 q 218 708 193 708 q 264 690 245 708 q 283 645 283 671 q 264 598 283 617 q 218 580 244 580 m 94 -14 q 50 5 68 -14 q 31 51 31 23 q 49 96 31 78 q 94 115 67 115 q 140 96 121 115 q 159 51 159 78 q 139 5 159 24 q 94 -14 120 -14 z "},";":{"ha":306,"x_min":-47,"x_max":283,"o":"m 218 580 q 174 598 193 580 q 155 645 155 616 q 174 690 155 672 q 218 708 193 708 q 264 690 245 708 q 283 645 283 671 q 264 598 283 617 q 218 580 244 580 m 83 154 l 173 154 l 24 -173 l -47 -173 l 83 154 z "},"<":{"ha":925,"x_min":154,"x_max":728,"o":"m 154 412 l 728 733 l 728 652 l 279 402 l 279 399 l 728 179 l 728 98 l 154 387 l 154 412 z "},"=":{"ha":925,"x_min":165,"x_max":791,"o":"m 165 579 l 791 579 l 791 507 l 165 507 l 165 579 m 165 304 l 791 304 l 791 231 l 165 231 l 165 304 m 242 441 z "},">":{"ha":925,"x_min":209,"x_max":781,"o":"m 209 179 l 658 399 l 658 402 l 209 651 l 209 733 l 781 412 l 781 387 l 209 98 l 209 179 z "},"?":{"ha":552,"x_min":127,"x_max":595,"o":"m 188 273 q 242 434 206 377 q 355 543 277 490 q 477 656 444 604 q 511 771 511 709 q 470 877 511 838 q 361 916 429 916 q 174 860 272 916 l 190 949 q 374 990 281 990 q 534 932 473 990 q 595 780 595 874 q 552 629 595 696 q 413 494 509 562 q 314 404 343 446 q 269 273 286 361 l 188 273 m 127 52 q 145 98 127 79 q 191 116 164 116 q 236 98 216 116 q 255 52 255 79 q 236 6 255 24 q 191 -12 217 -12 q 145 6 164 -12 q 127 52 127 25 z "},"@":{"ha":1333,"x_min":147,"x_max":1238,"o":"m 678 -127 q 289 8 430 -127 q 147 385 147 143 q 227 691 147 553 q 447 909 306 830 q 753 987 587 987 q 1010 931 899 987 q 1179 771 1120 875 q 1238 534 1238 668 q 1198 332 1238 427 q 1089 181 1158 237 q 935 125 1019 125 q 830 160 867 125 q 793 256 793 195 l 796 287 l 793 287 q 696 166 749 207 q 574 125 644 125 q 454 180 500 125 q 408 328 408 235 q 451 529 408 434 q 567 679 494 624 q 726 734 640 734 q 869 638 836 734 l 871 638 l 895 725 l 968 725 l 883 387 q 865 279 865 317 q 882 213 865 233 q 943 192 900 192 q 1099 291 1034 192 q 1164 523 1164 389 q 1055 814 1164 709 q 744 920 946 920 q 479 850 599 920 q 291 658 359 780 q 224 385 224 536 q 343 56 224 172 q 683 -60 462 -60 q 860 -40 772 -60 q 1002 5 947 -21 l 987 -70 q 678 -127 854 -127 m 834 549 q 805 639 834 608 q 724 670 777 670 q 607 625 662 670 q 520 501 553 580 q 488 330 488 422 q 517 230 488 268 q 591 193 545 193 q 711 245 657 193 q 800 392 765 297 q 834 549 834 486 z "},"A":{"ha":846,"x_min":-63,"x_max":760,"o":"m 508 972 l 597 972 l 760 0 l 668 0 l 621 288 l 206 288 l 37 0 l -63 0 l 508 972 m 608 369 l 542 802 q 537 872 537 839 l 534 872 l 528 857 q 509 818 524 846 q 251 369 494 790 l 608 369 z "},"B":{"ha":771,"x_min":51,"x_max":739,"o":"m 256 972 l 507 972 q 677 916 614 972 q 739 764 739 859 q 682 592 739 661 q 522 503 625 523 l 522 500 q 640 433 597 486 q 684 301 684 380 q 591 79 684 159 q 336 0 499 0 l 51 0 l 256 972 m 397 544 q 581 599 515 544 q 646 750 646 654 q 605 853 646 815 q 485 892 563 892 l 330 892 l 255 544 l 397 544 m 332 81 q 591 294 591 81 q 536 419 591 375 q 374 464 481 464 l 238 464 l 159 81 l 332 81 z "},"C":{"ha":882,"x_min":98,"x_max":911,"o":"m 490 -17 q 204 97 310 -17 q 98 401 98 210 q 169 707 98 573 q 365 915 239 841 q 648 989 491 989 q 911 926 793 989 l 892 832 q 641 909 785 909 q 409 845 511 909 q 248 668 306 782 q 191 413 191 554 q 275 156 191 248 q 508 64 359 64 q 768 132 648 64 l 747 37 q 627 -4 686 8 q 494 -17 568 -17 l 490 -17 z "},"D":{"ha":962,"x_min":51,"x_max":926,"o":"m 258 972 l 505 972 q 816 868 705 972 q 926 578 926 764 q 856 274 926 405 q 653 71 785 142 q 342 0 520 0 l 51 0 l 258 972 m 347 81 q 704 211 573 81 q 834 571 834 342 q 485 892 834 892 l 330 892 l 157 81 l 347 81 z "},"E":{"ha":681,"x_min":51,"x_max":728,"o":"m 256 972 l 728 972 l 711 892 l 330 892 l 252 529 l 606 529 l 589 448 l 235 448 l 157 81 l 562 81 l 545 0 l 51 0 l 256 972 z "},"F":{"ha":661,"x_min":51,"x_max":728,"o":"m 256 972 l 728 972 l 711 890 l 330 890 l 251 524 l 606 524 l 589 442 l 233 442 l 140 0 l 51 0 l 256 972 z "},"G":{"ha":960,"x_min":98,"x_max":935,"o":"m 779 412 l 543 412 l 560 492 l 887 492 l 793 52 q 514 -18 663 -18 q 295 35 389 -18 q 149 188 200 88 q 98 413 98 287 q 168 714 98 583 q 363 917 237 846 q 654 989 490 989 q 935 925 800 989 l 916 834 q 640 909 787 909 q 313 774 436 909 q 191 421 191 640 q 278 158 191 253 q 523 64 366 64 q 713 100 624 64 l 779 412 z "},"H":{"ha":960,"x_min":51,"x_max":966,"o":"m 256 972 l 347 972 l 254 536 l 783 536 l 876 972 l 966 972 l 760 0 l 670 0 l 766 454 l 236 454 l 141 0 l 51 0 l 256 972 z "},"I":{"ha":341,"x_min":51,"x_max":347,"o":"m 256 972 l 347 972 l 140 0 l 51 0 l 256 972 z "},"J":{"ha":461,"x_min":-69,"x_max":479,"o":"m -53 90 q -11 71 -40 79 q 36 63 18 63 q 173 124 123 63 q 252 323 222 184 l 390 972 l 479 972 l 342 327 q 230 62 302 142 q 31 -17 157 -17 q -23 -10 12 -17 q -69 4 -57 -3 l -53 90 z "},"K":{"ha":779,"x_min":51,"x_max":871,"o":"m 256 972 l 347 972 l 250 515 l 252 515 l 267 530 l 751 972 l 871 972 l 336 494 l 681 0 l 570 0 l 264 452 l 245 486 l 243 486 l 140 0 l 51 0 l 256 972 z "},"L":{"ha":614,"x_min":51,"x_max":547,"o":"m 256 972 l 347 972 l 158 81 l 547 81 l 530 0 l 51 0 l 256 972 z "},"M":{"ha":1147,"x_min":51,"x_max":1152,"o":"m 257 972 l 350 972 l 538 469 q 563 375 559 411 l 567 375 q 629 463 606 435 l 1048 972 l 1152 972 l 945 0 l 859 0 l 1008 701 q 1046 853 1025 775 l 1044 853 q 1036 839 1041 847 q 981 760 1031 831 l 564 254 l 526 254 l 338 757 q 333 775 336 764 q 326 799 329 786 q 319 826 322 812 q 315 853 316 840 l 313 853 q 300 773 309 826 q 136 0 290 720 l 51 0 l 257 972 z "},"N":{"ha":1012,"x_min":51,"x_max":1018,"o":"m 256 972 l 344 972 l 726 201 q 753 137 743 170 l 756 137 l 769 220 l 929 972 l 1018 972 l 811 0 l 732 0 l 340 783 q 317 843 327 810 l 314 843 l 305 786 l 138 0 l 51 0 l 256 972 z "},"O":{"ha":1047,"x_min":98,"x_max":1009,"o":"m 490 -17 q 204 98 310 -17 q 98 400 98 213 q 167 701 98 566 q 355 912 236 836 q 622 989 475 989 q 903 874 798 989 q 1009 576 1009 760 q 943 275 1009 412 q 758 60 876 138 q 490 -17 640 -17 m 494 64 q 711 127 616 64 q 861 313 806 191 q 916 572 916 434 q 835 818 916 728 q 616 909 753 909 q 398 843 496 909 q 245 659 299 777 q 191 400 191 541 q 272 154 191 243 q 494 64 353 64 z "},"P":{"ha":775,"x_min":51,"x_max":772,"o":"m 256 972 l 487 972 q 697 905 622 972 q 772 718 772 838 q 668 471 772 562 q 387 380 565 380 l 221 380 l 140 0 l 51 0 l 256 972 m 394 460 q 606 526 533 460 q 680 711 680 592 q 626 844 680 795 q 469 892 572 892 l 330 892 l 238 460 l 394 460 z "},"Q":{"ha":1047,"x_min":98,"x_max":1009,"o":"m 650 -235 l 491 -17 q 204 97 309 -16 q 98 399 98 210 q 169 704 98 566 q 358 916 240 843 q 623 989 476 989 q 904 876 798 989 q 1009 574 1009 763 q 956 307 1009 433 q 805 97 902 180 q 587 -7 709 14 l 767 -235 l 650 -235 m 494 64 q 711 129 615 64 q 862 312 808 194 q 916 570 916 431 q 836 817 916 725 q 618 909 755 909 q 400 844 498 909 q 247 661 303 779 q 191 400 191 543 q 271 154 191 243 q 494 64 351 64 z "},"R":{"ha":788,"x_min":51,"x_max":772,"o":"m 256 972 l 513 972 q 704 910 637 972 q 772 734 772 847 q 690 534 772 613 q 477 446 609 455 l 477 443 q 570 311 543 418 l 649 0 l 553 0 l 481 292 q 429 392 465 359 q 328 425 393 425 l 231 425 l 140 0 l 51 0 l 256 972 m 407 505 q 607 564 534 505 q 680 727 680 624 q 633 847 680 802 q 498 892 587 892 l 330 892 l 248 505 l 407 505 z "},"S":{"ha":690,"x_min":28,"x_max":688,"o":"m 43 135 q 151 84 87 105 q 277 64 214 64 q 437 110 380 64 q 493 239 493 157 q 460 343 493 297 q 336 455 427 389 q 205 584 243 522 q 167 721 167 646 q 255 914 167 839 q 481 989 342 989 q 688 949 587 989 l 671 857 q 474 909 590 909 q 319 859 378 909 q 260 730 260 810 q 292 622 260 667 q 409 513 323 576 q 548 382 510 440 q 586 251 586 323 q 548 111 586 172 q 440 17 511 50 q 272 -17 369 -17 q 145 -1 210 -17 q 28 42 81 14 l 43 135 z "},"T":{"ha":720,"x_min":147,"x_max":814,"o":"m 429 892 l 147 892 l 164 972 l 814 972 l 796 892 l 518 892 l 330 0 l 239 0 l 429 892 z "},"U":{"ha":926,"x_min":112,"x_max":945,"o":"m 244 972 l 334 972 l 220 437 q 201 290 201 351 q 261 120 201 177 q 427 64 321 64 q 621 134 550 64 q 725 361 691 205 l 855 972 l 945 972 l 818 376 q 679 73 772 163 q 414 -17 585 -17 q 193 63 275 -17 q 112 280 112 143 q 127 422 112 353 l 244 972 z "},"V":{"ha":871,"x_min":161,"x_max":970,"o":"m 161 972 l 255 972 l 367 202 q 372 114 372 173 l 374 114 q 400 167 382 134 q 867 972 418 199 l 970 972 l 389 0 l 310 0 l 161 972 z "},"W":{"ha":1241,"x_min":140,"x_max":1360,"o":"m 140 972 l 234 972 l 289 211 l 292 125 l 294 125 q 332 211 309 168 l 724 972 l 791 972 l 848 209 l 852 125 l 855 125 q 905 236 878 182 l 1261 972 l 1360 972 l 873 0 l 787 0 l 726 727 l 724 820 l 720 820 q 686 728 707 768 l 309 0 l 221 0 l 140 972 z "},"X":{"ha":800,"x_min":-48,"x_max":893,"o":"m -48 0 l 376 495 q 277 744 363 533 l 183 972 l 286 972 l 422 608 q 441 549 433 581 l 444 549 q 486 609 460 578 l 787 972 l 893 972 l 488 490 l 500 460 l 684 0 l 581 0 l 440 372 l 431 402 l 422 433 l 419 433 q 375 370 399 399 l 66 0 l -48 0 z "},"Y":{"ha":759,"x_min":157,"x_max":865,"o":"m 331 368 l 157 972 l 252 972 l 375 515 l 390 449 l 393 449 l 429 505 l 763 972 l 865 972 l 422 370 l 345 0 l 254 0 l 331 368 z "},"Z":{"ha":791,"x_min":-41,"x_max":880,"o":"m 718 891 l 195 891 l 212 972 l 880 972 l 875 945 l 117 81 l 680 81 l 663 0 l -41 0 l -35 31 l 718 891 z "},"[":{"ha":410,"x_min":23,"x_max":507,"o":"m 277 972 l 507 972 l 494 905 l 342 905 l 116 -153 l 268 -153 l 254 -221 l 23 -221 l 277 972 z "},"\\":{"ha":536,"x_min":123,"x_max":434,"o":"m 123 972 l 201 972 l 434 -163 l 359 -163 l 123 972 z "},"]":{"ha":410,"x_min":-97,"x_max":387,"o":"m -83 -153 l 68 -153 l 294 904 l 142 904 l 156 972 l 387 972 l 134 -221 l -97 -221 l -83 -153 z "},"^":{"ha":925,"x_min":189,"x_max":781,"o":"m 462 989 l 497 989 l 781 452 l 699 452 l 482 869 l 479 869 l 271 452 l 189 452 l 462 989 z "},"_":{"ha":576,"x_min":-117,"x_max":475,"o":"m -101 -121 l 475 -121 l 459 -201 l -117 -201 l -101 -121 z "},"`":{"ha":448,"x_min":193,"x_max":412,"o":"m 193 1038 l 277 1038 l 412 815 l 343 815 l 193 1038 z "},"a":{"ha":739,"x_min":54,"x_max":697,"o":"m 487 0 q 510 187 490 71 l 507 187 q 385 30 445 77 q 252 -17 325 -17 q 106 49 158 -17 q 54 235 54 115 q 110 478 54 365 q 263 651 166 591 q 479 711 359 711 q 697 685 566 711 l 604 237 q 585 115 595 192 q 575 0 575 37 l 487 0 m 599 623 q 468 637 534 637 q 302 587 376 637 q 185 444 228 536 q 142 241 142 352 q 272 58 142 58 q 385 105 327 58 q 490 241 442 153 q 557 417 537 328 l 599 623 z "},"b":{"ha":739,"x_min":45,"x_max":684,"o":"m 254 1028 l 340 1028 l 266 681 l 230 521 l 232 521 q 487 711 336 711 q 634 646 584 711 q 684 458 684 581 q 629 214 684 326 q 480 43 574 102 q 270 -17 387 -17 q 152 0 215 -17 q 45 43 88 16 l 254 1028 m 142 92 q 279 58 202 58 q 441 110 368 58 q 555 254 514 163 q 597 452 597 346 q 564 591 597 546 q 462 637 531 637 q 348 588 405 637 q 245 455 290 540 q 183 288 199 370 l 142 92 z "},"c":{"ha":585,"x_min":54,"x_max":598,"o":"m 300 -17 q 120 58 185 -17 q 54 262 54 133 q 103 490 54 386 q 240 653 153 594 q 433 711 328 711 q 598 665 531 711 l 578 577 q 423 637 517 637 q 278 587 344 637 q 176 450 213 536 q 140 268 140 364 q 186 113 140 168 q 314 58 232 58 q 494 127 397 58 l 473 34 q 382 -6 419 5 q 300 -17 345 -17 z "},"d":{"ha":739,"x_min":54,"x_max":769,"o":"m 487 0 q 509 185 490 68 l 507 185 q 389 34 450 85 q 252 -17 329 -17 q 106 48 159 -17 q 54 237 54 114 q 109 477 54 366 q 260 650 164 589 q 474 711 356 711 q 614 692 539 711 l 685 1028 l 769 1028 l 598 217 q 584 111 592 191 q 575 0 575 31 l 487 0 m 598 616 q 467 637 536 637 q 302 587 375 637 q 185 445 229 537 q 142 245 142 353 q 273 58 142 58 q 384 105 327 58 q 489 238 441 153 q 557 420 536 323 l 598 616 z "},"e":{"ha":661,"x_min":54,"x_max":634,"o":"m 142 263 q 193 112 142 165 q 336 58 245 58 q 535 120 429 58 l 519 35 q 323 -17 427 -17 q 124 59 194 -17 q 54 272 54 135 q 105 491 54 389 q 241 652 155 593 q 427 711 328 711 q 577 664 521 711 q 634 538 634 617 q 516 360 634 418 q 143 299 399 302 l 142 263 m 153 372 q 451 411 355 372 q 547 532 547 450 q 512 610 547 583 q 416 637 478 637 q 250 563 324 637 q 153 372 176 488 z "},"f":{"ha":382,"x_min":7,"x_max":557,"o":"m 189 621 l 66 621 l 83 694 l 205 694 l 233 825 q 473 1044 280 1044 q 557 1032 517 1044 l 542 954 q 465 970 514 970 q 369 931 406 970 q 315 807 333 891 l 291 694 l 466 694 l 448 621 l 274 621 l 92 -231 l 7 -231 l 189 621 z "},"g":{"ha":739,"x_min":-20,"x_max":697,"o":"m -3 -193 q 187 -250 96 -250 q 371 -185 302 -250 q 474 29 439 -121 l 509 185 l 506 185 q 387 33 447 82 q 252 -17 328 -17 q 106 48 159 -17 q 54 237 54 113 q 109 476 54 367 q 260 649 163 586 q 472 711 356 711 q 585 704 519 711 q 697 686 650 696 l 562 50 q 426 -240 518 -153 q 176 -326 334 -326 q -20 -276 73 -326 l -3 -193 m 599 623 q 462 637 539 637 q 300 586 374 637 q 184 445 227 536 q 142 245 142 353 q 269 58 142 58 q 387 107 328 58 q 492 244 446 157 q 557 416 538 332 l 599 623 z "},"h":{"ha":760,"x_min":36,"x_max":685,"o":"m 256 1028 l 340 1028 l 231 514 l 234 514 q 511 711 358 711 q 642 662 598 711 q 685 520 685 613 q 682 492 685 511 q 674 440 680 473 q 583 0 669 407 l 497 0 l 581 403 q 597 510 597 481 q 488 637 597 637 q 368 591 433 637 q 256 473 304 545 q 193 330 208 401 l 122 0 l 36 0 l 256 1028 z "},"i":{"ha":322,"x_min":61,"x_max":334,"o":"m 180 694 l 266 694 l 162 205 q 149 110 149 136 q 201 62 149 62 q 257 71 232 62 l 243 2 q 170 -12 209 -12 q 89 16 117 -12 q 61 96 61 43 q 77 208 61 134 l 180 694 m 273 869 q 229 887 247 869 q 211 931 211 906 q 229 974 211 958 q 273 991 248 991 q 316 974 298 991 q 334 931 334 958 q 316 887 334 905 q 273 869 297 869 z "},"j":{"ha":310,"x_min":-273,"x_max":338,"o":"m -256 -220 q -163 -252 -212 -252 q -38 -191 -85 -252 q 39 9 9 -130 l 184 694 l 270 694 l 129 31 q 18 -244 87 -163 q -173 -326 -52 -326 q -230 -318 -200 -326 q -273 -302 -259 -311 l -256 -220 m 214 931 q 233 974 214 958 q 277 991 252 991 q 320 974 302 991 q 338 931 338 958 q 320 887 338 905 q 277 869 302 869 q 252 878 263 869 q 225 898 236 884 q 214 931 214 911 z "},"k":{"ha":640,"x_min":36,"x_max":688,"o":"m 256 1028 l 340 1028 l 203 382 l 205 382 l 573 694 l 688 694 l 290 363 l 550 0 l 448 0 l 201 359 l 198 359 l 122 0 l 36 0 l 256 1028 z "},"l":{"ha":322,"x_min":61,"x_max":337,"o":"m 251 1028 l 337 1028 l 162 205 q 149 110 149 136 q 201 62 149 62 q 257 71 232 62 l 243 2 q 170 -12 209 -12 q 89 16 117 -12 q 61 96 61 43 q 77 208 61 138 l 251 1028 z "},"m":{"ha":1172,"x_min":36,"x_max":1097,"o":"m 176 694 l 259 694 q 230 513 250 622 l 233 513 q 498 711 356 711 q 620 661 582 711 q 660 513 659 611 q 789 660 719 608 q 934 711 860 711 q 1097 523 1097 711 q 1077 385 1097 483 l 995 0 l 910 0 l 993 403 q 1010 516 1010 481 q 910 637 1010 637 q 801 593 861 637 q 693 475 742 549 q 629 333 645 402 l 559 0 l 473 0 l 557 403 q 574 510 574 481 q 474 637 574 637 q 365 592 425 637 q 256 473 304 547 q 193 331 207 399 l 122 0 l 36 0 l 143 498 q 176 694 170 630 z "},"n":{"ha":764,"x_min":39,"x_max":688,"o":"m 178 694 l 262 694 q 233 513 252 622 l 235 513 q 366 660 294 608 q 514 711 438 711 q 688 523 688 711 q 667 385 688 486 l 585 0 l 500 0 l 583 403 q 600 510 600 486 q 490 637 600 637 q 372 591 436 637 q 259 474 307 545 q 195 331 210 402 l 125 0 l 39 0 l 146 498 q 178 694 165 593 z "},"o":{"ha":730,"x_min":54,"x_max":676,"o":"m 304 -17 q 121 55 189 -17 q 54 254 54 126 q 102 486 54 380 q 236 651 150 591 q 427 711 323 711 q 609 639 542 711 q 676 441 676 567 q 628 207 676 313 q 495 42 581 102 q 304 -17 410 -17 m 311 58 q 452 108 387 58 q 552 245 516 158 q 589 435 589 332 q 544 585 589 533 q 420 637 498 637 q 223 528 304 637 q 142 260 142 419 q 187 111 142 165 q 311 58 233 58 z "},"p":{"ha":739,"x_min":-33,"x_max":684,"o":"m 159 694 l 245 694 q 237 603 245 671 q 222 507 228 535 l 225 507 q 488 711 338 711 q 633 647 582 711 q 684 458 684 583 q 628 217 684 328 q 478 44 572 105 q 269 -17 383 -17 q 123 9 193 -17 l 52 -324 l -33 -324 l 136 477 q 152 594 144 519 q 159 694 159 669 m 138 85 q 279 58 197 58 q 441 110 368 58 q 555 253 514 162 q 597 450 597 343 q 464 637 597 637 q 349 587 408 637 q 243 452 290 536 q 178 278 197 367 l 138 85 z "},"q":{"ha":739,"x_min":54,"x_max":696,"o":"m 507 174 l 505 174 q 389 32 450 80 q 252 -17 328 -17 q 106 48 157 -17 q 54 237 54 113 q 110 478 54 366 q 261 650 165 589 q 477 711 356 711 q 696 677 582 711 l 484 -324 l 399 -324 q 507 174 495 128 m 598 616 q 467 637 531 637 q 301 586 375 637 q 184 442 227 534 q 142 245 142 350 q 273 58 142 58 q 387 107 328 58 q 491 240 446 157 q 557 416 536 323 l 598 616 z "},"r":{"ha":477,"x_min":37,"x_max":524,"o":"m 174 694 l 258 694 l 235 536 l 238 536 q 335 668 284 624 q 451 711 385 711 q 524 697 490 711 l 508 606 l 505 606 q 430 629 469 629 q 287 537 356 629 q 188 305 218 446 l 123 0 l 37 0 l 134 456 q 174 694 166 599 z "},"s":{"ha":543,"x_min":15,"x_max":505,"o":"m 33 113 q 112 73 64 89 q 203 58 160 58 q 317 88 278 58 q 356 176 356 118 q 332 245 356 216 q 243 313 307 274 q 137 401 170 357 q 104 504 104 445 q 170 652 104 593 q 341 711 236 711 q 425 703 380 711 q 505 677 471 694 l 488 593 q 337 637 420 637 q 232 603 271 637 q 192 513 192 568 q 214 444 192 473 q 300 376 235 415 q 411 284 379 328 q 444 184 444 241 q 376 38 444 92 q 193 -17 309 -17 q 97 -4 146 -17 q 15 28 48 8 l 33 113 z "},"t":{"ha":429,"x_min":66,"x_max":469,"o":"m 188 621 l 66 621 l 83 694 l 203 694 l 240 870 l 332 898 l 288 694 l 469 694 l 452 621 l 273 621 l 186 216 q 174 126 174 161 q 189 77 174 92 q 236 61 203 61 q 340 93 268 61 l 323 16 q 268 -4 300 4 q 212 -13 235 -13 q 87 116 87 -13 q 100 212 87 156 l 188 621 z "},"u":{"ha":761,"x_min":73,"x_max":722,"o":"m 176 694 l 262 694 l 178 292 q 161 184 161 209 q 271 58 161 58 q 385 100 323 58 q 498 216 446 142 q 566 363 550 290 l 637 694 l 722 694 l 616 195 q 583 0 593 90 l 500 0 l 529 182 l 526 182 q 395 35 467 86 q 248 -17 323 -17 q 117 33 160 -17 q 73 174 73 83 q 80 238 73 194 q 94 309 87 282 l 176 694 z "},"v":{"ha":642,"x_min":94,"x_max":702,"o":"m 94 694 l 180 694 l 257 197 q 265 101 265 144 l 268 101 q 309 182 289 149 l 605 694 l 702 694 l 283 0 l 210 0 l 94 694 z "},"w":{"ha":968,"x_min":91,"x_max":1016,"o":"m 91 694 l 175 694 l 214 149 l 214 140 l 214 131 l 212 95 l 216 95 q 241 157 227 130 l 525 694 l 593 694 l 633 136 l 630 94 l 635 94 q 660 157 646 132 l 928 694 l 1016 694 l 656 0 l 575 0 l 534 507 l 532 533 l 535 572 l 532 572 q 523 548 529 563 q 235 0 516 532 l 153 0 l 91 694 z "},"x":{"ha":614,"x_min":-51,"x_max":665,"o":"m 258 344 l 103 694 l 197 694 l 304 425 l 313 395 l 317 395 l 356 446 l 565 694 l 665 694 l 352 338 l 511 0 l 414 -1 q 296 288 323 220 l 293 288 l 254 237 l 54 0 l -51 0 l 258 344 z "},"y":{"ha":649,"x_min":-111,"x_max":724,"o":"m -94 -236 q -41 -248 -73 -248 q 47 -220 8 -248 q 123 -132 86 -191 l 211 6 l 87 694 l 174 694 l 265 146 l 270 94 l 273 94 l 291 130 l 627 694 l 724 694 l 220 -123 q 88 -282 148 -239 q -49 -326 28 -326 q -111 -316 -87 -326 l -94 -236 z "},"z":{"ha":637,"x_min":-43,"x_max":675,"o":"m 521 621 l 125 621 l 141 694 l 675 694 l 671 667 l 109 74 l 533 74 l 517 0 l -43 0 l -37 33 l 521 621 z "},"{":{"ha":410,"x_min":52,"x_max":481,"o":"m 134 250 q 52 352 134 339 l 65 410 q 157 451 125 418 q 206 563 189 484 l 250 765 q 326 920 271 870 q 481 972 381 970 l 467 906 q 376 870 409 905 q 328 761 344 836 l 286 563 q 236 440 269 485 q 149 378 203 395 l 149 375 q 214 256 214 349 q 207 191 214 224 l 167 7 q 157 -64 157 -33 q 177 -123 157 -102 q 243 -147 197 -144 l 230 -210 q 115 -169 151 -207 q 78 -69 78 -132 q 85 -8 78 -48 l 127 189 q 134 250 134 222 z "},"|":{"ha":323,"x_min":121,"x_max":201,"o":"m 121 1063 l 201 1063 l 201 -326 l 121 -326 l 121 1063 z "},"}":{"ha":410,"x_min":-71,"x_max":358,"o":"m 261 384 l 261 387 q 195 505 195 412 q 203 572 195 532 l 242 755 q 252 825 252 794 q 233 884 252 863 q 166 908 214 905 l 179 972 q 332 831 332 965 q 324 770 332 804 l 283 573 q 275 511 275 541 q 358 410 275 421 l 345 351 q 252 310 283 344 q 203 198 220 275 l 160 -3 q 80 -162 136 -114 q -71 -210 25 -210 l -58 -145 q 34 -108 2 -142 q 82 1 66 -73 l 123 198 q 173 321 140 275 q 261 384 205 366 z "},"~":{"ha":925,"x_min":168,"x_max":783,"o":"m 168 313 q 217 449 172 399 q 341 498 263 498 q 417 482 383 498 q 486 441 452 466 q 566 389 545 397 q 614 380 587 380 q 684 411 659 380 q 713 494 709 441 l 783 494 q 733 358 779 408 q 610 309 687 309 q 531 327 568 309 q 455 374 494 345 q 395 412 421 399 q 340 425 369 425 q 238 313 245 425 l 168 313 z "},"Ä":{"ha":846,"x_min":-63,"x_max":760,"o":"m 508 972 l 597 972 l 760 0 l 668 0 l 621 288 l 206 288 l 37 0 l -63 0 l 508 972 m 608 369 l 542 802 q 537 872 537 839 l 534 872 l 528 857 q 509 818 524 846 q 251 369 494 790 l 608 369 m 627 1106 q 642 1145 627 1128 q 682 1162 658 1162 q 724 1146 706 1162 q 741 1106 741 1130 q 724 1065 741 1082 q 684 1049 707 1049 q 643 1065 660 1049 q 627 1106 627 1080 m 383 1106 q 400 1145 383 1128 q 439 1162 416 1162 q 481 1146 464 1162 q 499 1106 499 1130 q 482 1066 499 1082 q 440 1049 465 1049 q 400 1065 417 1049 q 383 1106 383 1081 z "},"Å":{"ha":846,"x_min":-63,"x_max":760,"o":"m 488 937 q 417 1048 417 968 q 457 1142 417 1106 q 556 1179 497 1179 q 653 1142 614 1179 q 692 1050 692 1105 q 668 977 692 1008 q 604 932 643 945 l 760 0 l 668 0 l 621 288 l 206 288 l 37 0 l -63 0 l 488 937 m 555 972 q 614 994 591 972 q 637 1050 637 1016 q 614 1107 637 1086 q 555 1128 591 1128 q 495 1106 518 1128 q 473 1050 473 1085 q 496 993 473 1014 q 555 972 519 972 m 608 369 l 542 802 q 536 872 537 848 l 534 872 q 498 797 512 821 l 251 369 l 608 369 z "},"Ç":{"ha":882,"x_min":98,"x_max":911,"o":"m 490 -17 q 204 97 310 -17 q 98 401 98 210 q 169 707 98 573 q 365 915 239 841 q 648 989 491 989 q 911 926 793 989 l 892 832 q 641 909 785 909 q 409 845 511 909 q 248 668 306 782 q 191 413 191 554 q 275 156 191 248 q 508 64 359 64 q 768 132 648 64 l 747 37 q 627 -4 686 8 q 494 -17 568 -17 l 490 -17 m 349 -235 q 406 -241 378 -241 q 519 -178 519 -241 q 435 -123 519 -123 l 395 -125 l 421 0 l 477 0 l 461 -75 q 554 -100 519 -75 q 589 -171 589 -124 q 542 -262 589 -229 q 401 -295 494 -295 q 338 -290 374 -295 l 349 -235 z "},"É":{"ha":681,"x_min":51,"x_max":728,"o":"m 256 972 l 728 972 l 711 892 l 330 892 l 252 529 l 606 529 l 589 448 l 235 448 l 157 81 l 562 81 l 545 0 l 51 0 l 256 972 m 615 1272 l 706 1272 l 493 1050 l 419 1050 l 615 1272 z "},"Ñ":{"ha":1012,"x_min":51,"x_max":1018,"o":"m 256 972 l 344 972 l 726 201 q 753 137 743 170 l 756 137 l 769 220 l 929 972 l 1018 972 l 811 0 l 732 0 l 340 783 q 317 843 327 810 l 314 843 l 305 786 l 138 0 l 51 0 l 256 972 m 439 1050 q 488 1160 449 1121 q 589 1200 528 1200 q 638 1187 618 1200 q 676 1161 659 1175 q 711 1134 693 1146 q 752 1122 728 1122 q 804 1145 783 1122 q 833 1211 826 1168 l 890 1211 q 841 1101 880 1141 q 745 1061 803 1061 q 692 1073 713 1061 q 654 1099 671 1084 q 620 1125 637 1114 q 580 1137 603 1137 q 496 1050 511 1137 l 439 1050 z "},"Ö":{"ha":1047,"x_min":98,"x_max":1009,"o":"m 490 -17 q 204 98 310 -17 q 98 400 98 213 q 167 701 98 566 q 355 912 236 836 q 622 989 475 989 q 903 874 798 989 q 1009 576 1009 760 q 943 275 1009 412 q 758 60 876 138 q 490 -17 640 -17 m 494 64 q 711 127 616 64 q 861 313 806 191 q 916 572 916 434 q 835 818 916 728 q 616 909 753 909 q 398 843 496 909 q 245 659 299 777 q 191 400 191 541 q 272 154 191 243 q 494 64 353 64 m 701 1107 q 717 1146 701 1128 q 757 1163 732 1163 q 798 1147 781 1163 q 816 1107 816 1131 q 799 1066 816 1082 q 758 1050 782 1050 q 718 1065 734 1050 q 701 1107 701 1081 m 458 1107 q 474 1146 458 1129 q 514 1163 491 1163 q 556 1147 538 1163 q 574 1107 574 1131 q 556 1066 574 1083 q 515 1050 539 1050 q 475 1066 492 1050 q 458 1107 458 1082 z "},"Ü":{"ha":926,"x_min":112,"x_max":945,"o":"m 244 972 l 334 972 l 220 437 q 201 290 201 351 q 261 120 201 177 q 427 64 321 64 q 621 134 550 64 q 725 361 691 205 l 855 972 l 945 972 l 818 376 q 679 73 772 163 q 414 -17 585 -17 q 193 63 275 -17 q 112 280 112 143 q 127 422 112 353 l 244 972 m 666 1109 q 682 1148 666 1131 q 722 1165 697 1165 q 763 1149 745 1165 q 781 1109 781 1133 q 764 1068 781 1084 q 723 1052 747 1052 q 683 1067 699 1052 q 666 1109 666 1083 m 422 1109 q 439 1148 422 1131 q 479 1165 456 1165 q 521 1149 503 1165 q 538 1109 538 1133 q 521 1068 538 1085 q 479 1052 504 1052 q 439 1068 456 1052 q 422 1109 422 1084 z "},"á":{"ha":739,"x_min":54,"x_max":697,"o":"m 487 0 q 510 187 490 71 l 507 187 q 385 30 445 77 q 252 -17 325 -17 q 106 49 158 -17 q 54 235 54 115 q 110 478 54 365 q 263 651 166 591 q 479 711 359 711 q 697 685 566 711 l 604 237 q 585 115 595 192 q 575 0 575 37 l 487 0 m 599 623 q 468 637 534 637 q 302 587 376 637 q 185 444 228 536 q 142 241 142 352 q 272 58 142 58 q 385 105 327 58 q 490 241 442 153 q 557 417 537 328 l 599 623 m 595 1038 l 686 1038 l 473 815 l 399 815 l 595 1038 z "},"à":{"ha":739,"x_min":54,"x_max":697,"o":"m 487 0 q 510 187 490 71 l 507 187 q 385 30 445 77 q 252 -17 325 -17 q 106 49 158 -17 q 54 235 54 115 q 110 478 54 365 q 263 651 166 591 q 479 711 359 711 q 697 685 566 711 l 604 237 q 585 115 595 192 q 575 0 575 37 l 487 0 m 599 623 q 468 637 534 637 q 302 587 376 637 q 185 444 228 536 q 142 241 142 352 q 272 58 142 58 q 385 105 327 58 q 490 241 442 153 q 557 417 537 328 l 599 623 m 341 1038 l 425 1038 l 559 815 l 491 815 l 341 1038 z "},"â":{"ha":739,"x_min":54,"x_max":697,"o":"m 487 0 q 510 187 490 71 l 507 187 q 385 30 445 77 q 252 -17 325 -17 q 106 49 158 -17 q 54 235 54 115 q 110 478 54 365 q 263 651 166 591 q 479 711 359 711 q 697 685 566 711 l 604 237 q 585 115 595 192 q 575 0 575 37 l 487 0 m 599 623 q 468 637 534 637 q 302 587 376 637 q 185 444 228 536 q 142 241 142 352 q 272 58 142 58 q 385 105 327 58 q 490 241 442 153 q 557 417 537 328 l 599 623 m 497 1042 l 555 1042 l 658 815 l 593 815 l 517 977 l 375 815 l 306 815 l 497 1042 z "},"ä":{"ha":739,"x_min":54,"x_max":697,"o":"m 487 0 q 510 187 490 71 l 507 187 q 385 30 445 77 q 252 -17 325 -17 q 106 49 158 -17 q 54 235 54 115 q 110 478 54 365 q 263 651 166 591 q 479 711 359 711 q 697 685 566 711 l 604 237 q 585 115 595 192 q 575 0 575 37 l 487 0 m 599 623 q 468 637 534 637 q 302 587 376 637 q 185 444 228 536 q 142 241 142 352 q 272 58 142 58 q 385 105 327 58 q 490 241 442 153 q 557 417 537 328 l 599 623 m 532 872 q 547 911 532 894 q 587 928 563 928 q 629 912 611 928 q 646 872 646 896 q 629 831 646 848 q 589 815 612 815 q 548 831 565 815 q 532 872 532 846 m 288 872 q 305 911 288 895 q 345 928 321 928 q 387 912 369 928 q 404 872 404 896 q 387 832 404 848 q 345 815 370 815 q 305 831 322 815 q 288 872 288 847 z "},"ã":{"ha":739,"x_min":54,"x_max":697,"o":"m 487 0 q 510 187 490 71 l 507 187 q 385 30 445 77 q 252 -17 325 -17 q 106 49 158 -17 q 54 235 54 115 q 110 478 54 365 q 263 651 166 591 q 479 711 359 711 q 697 685 566 711 l 604 237 q 585 115 595 192 q 575 0 575 37 l 487 0 m 599 623 q 468 637 534 637 q 302 587 376 637 q 185 444 228 536 q 142 241 142 352 q 272 58 142 58 q 385 105 327 58 q 490 241 442 153 q 557 417 537 328 l 599 623 m 243 815 q 292 926 253 886 q 393 965 332 965 q 442 953 422 965 q 480 926 463 941 q 515 899 497 911 q 556 887 532 887 q 608 910 587 887 q 637 976 630 934 l 694 976 q 645 866 684 906 q 549 826 607 826 q 496 838 517 826 q 458 864 475 850 q 424 891 441 879 q 384 903 407 903 q 300 815 315 903 l 243 815 z "},"å":{"ha":739,"x_min":54,"x_max":697,"o":"m 487 0 q 510 187 490 71 l 507 187 q 385 30 445 77 q 252 -17 325 -17 q 106 49 158 -17 q 54 235 54 115 q 110 478 54 365 q 263 651 166 591 q 479 711 359 711 q 697 685 566 711 l 604 237 q 585 115 595 192 q 575 0 575 37 l 487 0 m 599 623 q 468 637 534 637 q 302 587 376 637 q 185 444 228 536 q 142 241 142 352 q 272 58 142 58 q 385 105 327 58 q 490 241 442 153 q 557 417 537 328 l 599 623 m 353 928 q 392 1022 353 985 q 492 1058 431 1058 q 590 1022 552 1058 q 627 931 627 986 q 588 839 627 876 q 490 802 548 802 q 391 837 430 802 q 353 928 353 873 m 490 852 q 549 874 526 852 q 572 930 572 897 q 549 987 572 966 q 490 1008 526 1008 q 431 986 453 1008 q 408 930 408 965 q 432 873 408 894 q 490 852 455 852 z "},"ç":{"ha":585,"x_min":54,"x_max":598,"o":"m 300 -17 q 120 58 185 -17 q 54 262 54 133 q 103 490 54 386 q 240 653 153 594 q 433 711 328 711 q 598 665 531 711 l 578 577 q 423 637 517 637 q 278 587 344 637 q 176 450 213 536 q 140 268 140 364 q 186 113 140 168 q 314 58 232 58 q 494 127 397 58 l 473 34 q 382 -6 419 5 q 300 -17 345 -17 m 165 -235 q 222 -241 195 -241 q 336 -178 336 -241 q 251 -123 336 -123 l 211 -125 l 237 0 l 294 0 l 277 -75 q 370 -100 336 -75 q 405 -171 405 -124 q 358 -262 405 -229 q 218 -295 311 -295 q 155 -290 191 -295 l 165 -235 z "},"é":{"ha":661,"x_min":54,"x_max":654,"o":"m 142 263 q 193 112 142 165 q 336 58 245 58 q 535 120 429 58 l 519 35 q 323 -17 427 -17 q 124 59 194 -17 q 54 272 54 135 q 105 491 54 389 q 241 652 155 593 q 427 711 328 711 q 577 664 521 711 q 634 538 634 617 q 516 360 634 418 q 143 299 399 302 l 142 263 m 153 372 q 451 411 355 372 q 547 532 547 450 q 512 610 547 583 q 416 637 478 637 q 250 563 324 637 q 153 372 176 488 m 564 1038 l 654 1038 l 441 815 l 368 815 l 564 1038 z "},"è":{"ha":661,"x_min":54,"x_max":634,"o":"m 142 263 q 193 112 142 165 q 336 58 245 58 q 535 120 429 58 l 519 35 q 323 -17 427 -17 q 124 59 194 -17 q 54 272 54 135 q 105 491 54 389 q 241 652 155 593 q 427 711 328 711 q 577 664 521 711 q 634 538 634 617 q 516 360 634 418 q 143 299 399 302 l 142 263 m 153 372 q 451 411 355 372 q 547 532 547 450 q 512 610 547 583 q 416 637 478 637 q 250 563 324 637 q 153 372 176 488 m 313 1038 l 396 1038 l 531 815 l 463 815 l 313 1038 z "},"ê":{"ha":661,"x_min":54,"x_max":634,"o":"m 142 263 q 193 112 142 165 q 336 58 245 58 q 535 120 429 58 l 519 35 q 323 -17 427 -17 q 124 59 194 -17 q 54 272 54 135 q 105 491 54 389 q 241 652 155 593 q 427 711 328 711 q 577 664 521 711 q 634 538 634 617 q 516 360 634 418 q 143 299 399 302 l 142 263 m 153 372 q 451 411 355 372 q 547 532 547 450 q 512 610 547 583 q 416 637 478 637 q 250 563 324 637 q 153 372 176 488 m 448 1042 l 507 1042 l 609 815 l 545 815 l 468 977 l 326 815 l 257 815 l 448 1042 z "},"ë":{"ha":661,"x_min":54,"x_max":634,"o":"m 142 263 q 193 112 142 165 q 336 58 245 58 q 535 120 429 58 l 519 35 q 323 -17 427 -17 q 124 59 194 -17 q 54 272 54 135 q 105 491 54 389 q 241 652 155 593 q 427 711 328 711 q 577 664 521 711 q 634 538 634 617 q 516 360 634 418 q 143 299 399 302 l 142 263 m 153 372 q 451 411 355 372 q 547 532 547 450 q 512 610 547 583 q 416 637 478 637 q 250 563 324 637 q 153 372 176 488 m 491 872 q 507 911 491 894 q 547 928 522 928 q 588 912 570 928 q 606 872 606 896 q 589 831 606 848 q 548 815 572 815 q 508 831 524 815 q 491 872 491 846 m 248 872 q 264 911 248 895 q 304 928 281 928 q 346 912 328 928 q 363 872 363 896 q 346 832 363 848 q 304 815 329 815 q 264 831 281 815 q 248 872 248 847 z "},"í":{"ha":322,"x_min":61,"x_max":450,"o":"m 180 694 l 266 694 l 162 205 q 149 110 149 136 q 201 62 149 62 q 257 71 232 62 l 243 2 q 170 -12 209 -12 q 89 16 117 -12 q 61 96 61 43 q 77 208 61 138 l 180 694 m 359 1038 l 450 1038 l 237 815 l 163 815 l 359 1038 z "},"ì":{"ha":322,"x_min":61,"x_max":343,"o":"m 180 694 l 266 694 l 162 205 q 149 110 149 136 q 201 62 149 62 q 257 71 232 62 l 243 2 q 170 -12 209 -12 q 89 16 117 -12 q 61 96 61 43 q 77 208 61 138 l 180 694 m 125 1038 l 208 1038 l 343 815 l 275 815 l 125 1038 z "},"î":{"ha":322,"x_min":61,"x_max":423,"o":"m 180 694 l 266 694 l 162 205 q 149 110 149 136 q 201 62 149 62 q 257 71 232 62 l 243 2 q 170 -12 209 -12 q 89 16 117 -12 q 61 96 61 43 q 77 208 61 138 l 180 694 m 262 1042 l 321 1042 l 423 815 l 359 815 l 282 977 l 140 815 l 71 815 l 262 1042 z "},"ï":{"ha":322,"x_min":61,"x_max":431,"o":"m 180 694 l 266 694 l 162 205 q 149 110 149 136 q 201 62 149 62 q 257 71 232 62 l 243 2 q 170 -12 209 -12 q 89 16 117 -12 q 61 96 61 43 q 77 208 61 138 l 180 694 m 317 872 q 332 911 317 894 q 372 928 348 928 q 414 912 396 928 q 431 872 431 896 q 414 831 431 848 q 374 815 397 815 q 333 831 350 815 q 317 872 317 846 m 73 872 q 90 911 73 895 q 130 928 106 928 q 172 912 154 928 q 189 872 189 896 q 172 832 189 848 q 130 815 155 815 q 90 831 107 815 q 73 872 73 847 z "},"ñ":{"ha":764,"x_min":39,"x_max":705,"o":"m 178 694 l 262 694 q 233 513 252 622 l 235 513 q 366 660 294 608 q 514 711 438 711 q 688 523 688 711 q 667 385 688 486 l 585 0 l 500 0 l 583 403 q 600 510 600 486 q 490 637 600 637 q 372 591 436 637 q 259 474 307 545 q 195 331 210 402 l 125 0 l 39 0 l 146 498 q 178 694 165 593 m 254 815 q 303 926 264 886 q 404 965 342 965 q 453 953 433 965 q 491 926 473 941 q 526 899 508 911 q 567 887 543 887 q 619 910 597 887 q 648 976 641 934 l 705 976 q 656 866 694 906 q 559 826 618 826 q 507 838 528 826 q 469 864 486 850 q 435 891 452 879 q 395 903 418 903 q 311 815 326 903 l 254 815 z "},"ó":{"ha":730,"x_min":54,"x_max":676,"o":"m 304 -17 q 121 55 189 -17 q 54 254 54 126 q 102 486 54 380 q 236 651 150 591 q 427 711 323 711 q 609 639 542 711 q 676 441 676 567 q 628 207 676 313 q 495 42 581 102 q 304 -17 410 -17 m 311 58 q 452 108 387 58 q 552 245 516 158 q 589 435 589 332 q 544 585 589 533 q 420 637 498 637 q 223 528 304 637 q 142 260 142 419 q 187 111 142 165 q 311 58 233 58 m 565 1038 l 656 1038 l 443 815 l 369 815 l 565 1038 z "},"ò":{"ha":730,"x_min":54,"x_max":676,"o":"m 304 -17 q 121 55 189 -17 q 54 254 54 126 q 102 486 54 380 q 236 651 150 591 q 427 711 323 711 q 609 639 542 711 q 676 441 676 567 q 628 207 676 313 q 495 42 581 102 q 304 -17 410 -17 m 311 58 q 452 108 387 58 q 552 245 516 158 q 589 435 589 332 q 544 585 589 533 q 420 637 498 637 q 223 528 304 637 q 142 260 142 419 q 187 111 142 165 q 311 58 233 58 m 330 1038 l 413 1038 l 548 815 l 479 815 l 330 1038 z "},"ô":{"ha":730,"x_min":54,"x_max":676,"o":"m 304 -17 q 121 55 189 -17 q 54 254 54 126 q 102 486 54 380 q 236 651 150 591 q 427 711 323 711 q 609 639 542 711 q 676 441 676 567 q 628 207 676 313 q 495 42 581 102 q 304 -17 410 -17 m 311 58 q 452 108 387 58 q 552 245 516 158 q 589 435 589 332 q 544 585 589 533 q 420 637 498 637 q 223 528 304 637 q 142 260 142 419 q 187 111 142 165 q 311 58 233 58 m 460 1042 l 519 1042 l 621 815 l 557 815 l 480 977 l 338 815 l 269 815 l 460 1042 z "},"ö":{"ha":730,"x_min":54,"x_max":676,"o":"m 304 -17 q 121 55 189 -17 q 54 254 54 126 q 102 486 54 380 q 236 651 150 591 q 427 711 323 711 q 609 639 542 711 q 676 441 676 567 q 628 207 676 313 q 495 42 581 102 q 304 -17 410 -17 m 311 58 q 452 108 387 58 q 552 245 516 158 q 589 435 589 332 q 544 585 589 533 q 420 637 498 637 q 223 528 304 637 q 142 260 142 419 q 187 111 142 165 q 311 58 233 58 m 510 872 q 526 911 510 894 q 566 928 541 928 q 607 912 589 928 q 625 872 625 896 q 608 831 625 848 q 567 815 591 815 q 527 831 543 815 q 510 872 510 846 m 267 872 q 283 911 267 895 q 323 928 300 928 q 365 912 347 928 q 382 872 382 896 q 365 832 382 848 q 323 815 348 815 q 283 831 300 815 q 267 872 267 847 z "},"õ":{"ha":730,"x_min":54,"x_max":690,"o":"m 304 -17 q 121 55 189 -17 q 54 254 54 126 q 102 486 54 380 q 236 651 150 591 q 427 711 323 711 q 609 639 542 711 q 676 441 676 567 q 628 207 676 313 q 495 42 581 102 q 304 -17 410 -17 m 311 58 q 452 108 387 58 q 552 245 516 158 q 589 435 589 332 q 544 585 589 533 q 420 637 498 637 q 223 528 304 637 q 142 260 142 419 q 187 111 142 165 q 311 58 233 58 m 239 815 q 288 926 248 886 q 388 965 327 965 q 437 953 417 965 q 475 926 458 941 q 510 899 492 911 q 551 887 528 887 q 604 910 582 887 q 633 976 625 934 l 690 976 q 641 866 679 906 q 544 826 602 826 q 491 838 512 826 q 453 864 471 850 q 419 891 436 879 q 379 903 402 903 q 295 815 311 903 l 239 815 z "},"ú":{"ha":761,"x_min":73,"x_max":722,"o":"m 176 694 l 262 694 l 178 292 q 161 184 161 209 q 271 58 161 58 q 385 100 323 58 q 498 216 446 142 q 566 363 550 290 l 637 694 l 722 694 l 616 195 q 583 0 593 90 l 500 0 l 529 182 l 526 182 q 395 35 467 86 q 248 -17 323 -17 q 117 33 160 -17 q 73 174 73 83 q 80 238 73 194 q 94 309 87 282 l 176 694 m 604 1038 l 695 1038 l 482 815 l 408 815 l 604 1038 z "},"ù":{"ha":761,"x_min":73,"x_max":722,"o":"m 176 694 l 262 694 l 178 292 q 161 184 161 209 q 271 58 161 58 q 385 100 323 58 q 498 216 446 142 q 566 363 550 290 l 637 694 l 722 694 l 616 195 q 583 0 593 90 l 500 0 l 529 182 l 526 182 q 395 35 467 86 q 248 -17 323 -17 q 117 33 160 -17 q 73 174 73 83 q 80 238 73 194 q 94 309 87 282 l 176 694 m 328 1038 l 411 1038 l 546 815 l 477 815 l 328 1038 z "},"û":{"ha":761,"x_min":73,"x_max":722,"o":"m 176 694 l 262 694 l 178 292 q 161 184 161 209 q 271 58 161 58 q 385 100 323 58 q 498 216 446 142 q 566 363 550 290 l 637 694 l 722 694 l 616 195 q 583 0 593 90 l 500 0 l 529 182 l 526 182 q 395 35 467 86 q 248 -17 323 -17 q 117 33 160 -17 q 73 174 73 83 q 80 238 73 194 q 94 309 87 282 l 176 694 m 494 1042 l 552 1042 l 654 815 l 590 815 l 513 977 l 372 815 l 302 815 l 494 1042 z "},"ü":{"ha":761,"x_min":73,"x_max":722,"o":"m 176 694 l 262 694 l 178 292 q 161 184 161 209 q 271 58 161 58 q 385 100 323 58 q 498 216 446 142 q 566 363 550 290 l 637 694 l 722 694 l 616 195 q 583 0 593 90 l 500 0 l 529 182 l 526 182 q 395 35 467 86 q 248 -17 323 -17 q 117 33 160 -17 q 73 174 73 83 q 80 238 73 194 q 94 309 87 282 l 176 694 m 552 872 q 568 911 552 894 q 608 928 583 928 q 649 912 631 928 q 667 872 667 896 q 650 831 667 848 q 609 815 633 815 q 569 831 585 815 q 552 872 552 846 m 309 872 q 325 911 309 895 q 365 928 342 928 q 407 912 389 928 q 425 872 425 896 q 407 832 425 848 q 366 815 390 815 q 326 831 342 815 q 309 872 309 847 z "},"†":{"ha":520,"x_min":106,"x_max":558,"o":"m 285 659 l 106 650 l 123 728 l 311 721 l 350 966 l 433 966 l 368 721 l 558 728 l 542 650 l 368 659 l 250 165 l 193 165 l 285 659 z "},"°":{"ha":530,"x_min":181,"x_max":538,"o":"m 360 621 q 234 673 287 621 q 181 800 181 725 q 234 926 181 874 q 359 977 286 977 q 486 925 433 977 q 538 800 538 873 q 486 674 538 727 q 360 621 434 621 m 359 685 q 438 719 405 685 q 471 800 471 753 q 438 880 471 848 q 360 913 406 913 q 281 880 314 913 q 248 800 248 846 q 281 719 248 753 q 359 685 313 685 z "},"¢":{"ha":731,"x_min":132,"x_max":693,"o":"m 337 110 q 187 199 243 125 q 132 385 132 273 q 178 606 132 505 q 308 767 225 707 q 491 833 390 827 l 517 956 l 591 956 l 564 830 q 693 788 649 819 l 671 696 q 548 756 628 745 l 425 183 q 587 251 506 191 l 568 157 q 410 106 489 111 l 380 -36 l 306 -36 l 337 110 m 475 755 q 292 634 364 740 q 219 390 219 528 q 255 255 219 307 q 353 189 290 203 l 475 755 m 447 972 z "},"£":{"ha":731,"x_min":5,"x_max":756,"o":"m 258 441 l 113 441 l 129 517 l 274 517 l 315 705 q 424 915 345 842 q 617 989 503 989 q 756 962 699 989 l 739 880 q 613 915 685 915 q 396 690 443 915 l 359 517 l 564 517 l 548 441 l 343 441 l 314 308 q 139 74 275 138 l 620 74 l 604 0 l 5 0 l 21 74 q 229 305 192 129 l 258 441 z "},"§":{"ha":623,"x_min":33,"x_max":625,"o":"m 50 73 q 124 40 81 53 q 199 26 168 26 q 354 148 354 26 q 332 220 354 188 q 241 297 310 252 q 127 480 127 372 q 164 596 127 545 q 285 687 201 647 q 257 739 269 707 q 245 796 245 770 q 310 952 245 894 q 486 1011 376 1011 q 625 985 560 1011 l 608 905 q 479 940 551 940 q 369 907 410 940 q 328 813 328 875 q 352 740 328 773 q 439 665 375 707 q 534 576 507 622 q 561 476 561 530 q 519 354 561 408 q 401 271 477 300 q 438 163 438 222 q 372 10 438 64 q 191 -45 307 -45 q 108 -36 152 -45 q 33 -12 64 -26 l 50 73 m 359 313 q 447 376 418 336 q 477 464 477 416 q 382 604 477 543 l 327 643 q 211 494 211 594 q 230 421 211 450 q 304 354 249 393 q 359 313 340 330 z "},"•":{"ha":552,"x_min":121,"x_max":469,"o":"m 121 431 q 172 553 121 501 q 296 606 223 606 q 418 554 366 606 q 469 431 469 503 q 418 309 469 360 q 294 257 366 257 q 173 308 224 257 q 121 431 121 358 z "},"¶":{"ha":648,"x_min":119,"x_max":628,"o":"m 288 612 q 169 663 218 612 q 119 792 119 713 q 169 922 119 871 q 293 972 219 972 l 628 972 l 628 909 l 541 909 l 541 0 l 476 0 l 476 909 l 354 909 l 354 0 l 288 0 l 288 612 z "},"ß":{"ha":743,"x_min":39,"x_max":711,"o":"m 500 1044 q 653 986 594 1044 q 711 832 711 928 q 646 654 711 732 q 479 550 581 576 l 479 547 q 619 459 569 525 q 669 295 669 393 q 582 69 669 155 q 347 -17 494 -17 q 280 -10 321 -17 q 229 2 240 -3 l 248 85 q 353 58 303 58 q 518 122 457 58 q 580 290 580 186 q 363 513 580 490 l 377 584 q 558 666 494 602 q 623 825 623 730 q 587 930 623 890 q 493 970 552 970 q 360 917 412 970 q 283 745 308 863 l 125 0 l 39 0 l 202 766 q 500 1044 261 1044 z "},"­":{"ha":554,"x_min":93,"x_max":481,"o":"m 110 434 l 481 434 l 464 361 l 93 361 l 110 434 z "},"®":{"ha":1230,"x_min":174,"x_max":989,"o":"m 581 173 q 293 292 412 173 q 174 578 174 410 q 293 867 174 749 q 581 986 413 986 q 869 867 749 986 q 989 581 989 748 q 870 292 989 411 q 581 173 751 173 m 578 930 q 335 827 435 930 q 234 578 234 724 q 334 331 234 434 q 578 229 434 229 q 826 331 724 229 q 928 578 928 434 q 826 827 928 724 q 578 930 723 930 m 705 327 l 643 456 q 590 534 616 514 q 533 554 565 554 l 486 554 l 486 327 l 420 327 l 420 850 l 573 850 q 710 813 660 850 q 760 713 760 775 q 623 568 760 593 l 623 566 q 710 471 663 556 l 779 327 l 705 327 m 486 796 l 486 609 l 575 609 q 660 633 628 609 q 692 704 692 656 q 562 796 692 796 l 486 796 z "},"©":{"ha":1286,"x_min":162,"x_max":1177,"o":"m 162 484 q 231 740 162 624 q 416 922 299 856 q 670 989 534 989 q 926 922 808 989 q 1110 739 1043 855 q 1177 487 1177 623 q 1110 234 1177 350 q 926 51 1043 118 q 670 -17 809 -17 q 413 49 530 -17 q 229 231 296 115 q 162 484 162 347 m 669 35 q 891 93 787 35 q 1057 256 995 151 q 1120 485 1120 361 q 1060 711 1120 607 q 895 875 1000 814 q 669 935 789 935 q 442 875 546 935 q 279 710 338 814 q 219 485 219 605 q 279 258 219 363 q 444 94 340 154 q 669 35 548 35 m 865 182 q 777 145 815 155 q 690 134 739 134 q 452 230 549 134 q 356 473 356 326 q 400 660 356 577 q 523 788 444 742 q 701 833 603 833 q 789 823 741 833 q 863 797 837 812 l 863 719 q 784 750 832 739 q 690 762 736 762 q 560 727 619 762 q 467 629 500 692 q 434 486 434 566 q 509 283 434 361 q 700 205 584 205 q 791 219 743 205 q 865 254 838 234 l 865 182 z "},"™":{"ha":1074,"x_min":115,"x_max":1004,"o":"m 533 972 l 614 972 l 766 618 l 769 618 l 926 972 l 1004 972 l 1004 524 l 941 524 l 941 867 l 939 867 l 787 524 l 743 524 l 597 867 l 595 867 l 595 524 l 533 524 l 533 972 m 259 912 l 115 912 l 115 972 l 471 972 l 471 913 l 324 913 l 324 524 l 259 524 l 259 912 z "},"´":{"ha":448,"x_min":219,"x_max":506,"o":"m 415 1038 l 506 1038 l 293 815 l 219 815 l 415 1038 z "},"¨":{"ha":448,"x_min":149,"x_max":507,"o":"m 393 872 q 408 911 393 894 q 448 928 424 928 q 490 912 472 928 q 507 872 507 896 q 490 831 507 848 q 450 815 473 815 q 409 831 426 815 q 393 872 393 846 m 149 872 q 166 911 149 895 q 205 928 182 928 q 248 912 230 928 q 265 872 265 896 q 248 832 265 848 q 206 815 231 815 q 166 831 183 815 q 149 872 149 847 z "},"≠":{"ha":925,"x_min":171,"x_max":796,"o":"m 353 231 l 171 231 l 171 304 l 390 304 l 494 507 l 171 507 l 171 579 l 532 579 l 648 806 l 725 806 l 608 579 l 796 579 l 796 507 l 571 507 l 467 304 l 796 304 l 796 231 l 429 231 l 310 0 l 233 0 l 353 231 m 300 441 z "},"Æ":{"ha":1145,"x_min":-80,"x_max":1193,"o":"m 621 972 l 1193 972 l 1175 889 l 793 889 l 716 528 l 1070 528 l 1053 448 l 699 448 l 621 81 l 1025 81 l 1009 0 l 515 0 l 576 288 l 233 288 l 28 0 l -80 0 l 621 972 m 593 370 l 703 889 l 656 889 l 292 370 l 593 370 z "},"Ø":{"ha":1047,"x_min":36,"x_max":1056,"o":"m 161 151 q 98 400 98 259 q 168 703 98 569 q 356 912 237 837 q 623 987 475 987 q 897 883 793 987 l 1009 998 l 1056 951 l 938 833 q 1009 574 1009 726 q 943 275 1009 412 q 759 60 876 138 q 488 -17 641 -17 q 202 98 306 -17 l 85 -19 l 36 26 l 161 151 m 833 820 q 618 907 751 907 q 399 844 497 907 q 246 662 302 781 q 191 399 191 543 q 229 217 191 297 l 833 820 m 266 161 q 494 64 345 64 q 712 127 616 64 q 862 311 807 191 q 916 573 916 430 q 870 767 916 684 l 266 161 z "},"∞":{"ha":1135,"x_min":80,"x_max":1098,"o":"m 587 338 q 463 194 532 243 q 327 144 395 144 q 149 216 217 144 q 80 401 80 287 q 152 587 80 511 q 327 664 224 664 q 589 471 488 664 q 711 614 644 565 q 850 664 779 664 q 1029 593 960 664 q 1098 407 1098 522 q 1026 222 1098 299 q 850 144 954 144 q 587 338 694 144 m 623 404 q 726 261 671 307 q 850 215 782 215 q 976 268 928 215 q 1025 407 1025 320 q 975 542 1025 488 q 850 595 926 595 q 730 548 785 595 q 623 404 675 501 m 555 405 q 451 549 507 503 q 327 595 395 595 q 200 541 248 595 q 152 401 152 487 q 202 267 152 319 q 327 215 253 215 q 448 262 393 215 q 555 405 503 309 z "},"±":{"ha":925,"x_min":165,"x_max":791,"o":"m 165 507 l 443 507 l 443 784 l 514 784 l 514 507 l 791 507 l 791 435 l 514 435 l 514 158 l 443 158 l 443 435 l 165 435 l 165 507 m 165 73 l 791 73 l 791 0 l 165 0 l 165 73 z "},"≤":{"ha":925,"x_min":171,"x_max":796,"o":"m 197 476 l 771 798 l 771 717 l 322 467 l 322 465 l 771 244 l 771 161 l 197 452 l 197 476 m 171 101 l 796 101 l 796 28 l 171 28 l 171 101 z "},"≥":{"ha":925,"x_min":171,"x_max":796,"o":"m 197 244 l 646 464 l 646 467 l 197 717 l 197 798 l 771 476 l 771 452 l 197 161 l 197 244 m 171 101 l 796 101 l 796 28 l 171 28 l 171 101 z "},"¥":{"ha":731,"x_min":50,"x_max":817,"o":"m 293 213 l 50 213 l 66 287 l 309 287 l 341 441 l 98 441 l 115 515 l 330 515 l 179 972 l 269 972 l 382 599 q 399 530 393 564 l 406 530 q 452 602 420 559 l 720 972 l 817 972 l 468 515 l 683 515 l 667 441 l 427 441 l 394 287 l 635 287 l 619 213 l 378 213 l 333 0 l 248 0 l 293 213 z "},"µ":{"ha":781,"x_min":-41,"x_max":722,"o":"m 176 694 l 262 694 l 178 292 q 161 184 161 205 q 271 58 161 58 q 388 102 325 58 q 501 219 452 147 q 566 363 551 292 l 637 694 l 722 694 l 616 198 q 605 114 605 149 q 621 75 605 87 q 660 62 637 62 q 709 70 690 62 l 695 -1 q 623 -12 664 -12 q 519 88 519 -12 q 529 182 519 119 l 526 182 q 254 -17 409 -17 q 126 58 158 -17 l 43 -326 l -41 -326 l 176 694 z "},"∂":{"ha":732,"x_min":73,"x_max":703,"o":"m 446 1008 q 703 647 703 1008 q 655 318 703 477 q 515 71 607 159 q 307 -17 424 -17 q 135 52 197 -17 q 73 241 73 121 q 119 467 73 361 q 249 636 165 573 q 430 699 332 699 q 612 573 555 699 l 616 573 q 619 649 619 602 q 574 861 619 788 q 428 934 530 934 q 343 918 387 934 q 265 878 300 901 l 285 964 q 446 1008 363 1008 m 604 474 q 539 585 585 545 q 433 625 493 625 q 296 573 359 625 q 196 433 233 522 q 160 244 160 345 q 201 108 160 159 q 313 58 241 58 q 500 172 420 58 q 604 474 581 287 m 489 1028 z "},"∑":{"ha":852,"x_min":50,"x_max":844,"o":"m 50 -281 l 525 332 l 84 926 l 84 972 l 808 972 l 808 891 l 217 891 l 631 335 l 188 -240 l 844 -240 l 844 -319 l 50 -319 l 50 -281 z "},"∏":{"ha":1042,"x_min":150,"x_max":939,"o":"m 150 972 l 939 972 l 939 -319 l 849 -319 l 849 890 l 238 890 l 238 -319 l 150 -319 l 150 972 z "},"∫":{"ha":731,"x_min":146,"x_max":627,"o":"m 146 -239 q 222 -259 172 -259 q 344 -98 344 -259 l 344 811 l 344 816 q 402 979 344 918 q 550 1041 460 1041 q 627 1028 598 1041 l 627 947 q 551 966 599 966 q 429 806 429 966 l 429 -104 l 429 -109 q 371 -272 429 -210 q 223 -333 313 -333 q 146 -320 175 -333 l 146 -239 z "},"ª":{"ha":576,"x_min":130,"x_max":595,"o":"m 436 486 q 450 602 439 538 l 448 602 q 267 474 368 474 q 165 521 201 474 q 130 655 130 568 q 168 820 130 743 q 275 943 207 898 q 429 988 344 988 q 595 969 500 988 l 529 647 q 508 486 508 548 l 436 486 m 516 917 q 422 928 460 928 q 308 891 359 928 q 230 792 258 855 q 201 661 201 730 q 290 535 201 535 q 406 607 348 535 q 485 772 464 679 l 516 917 z "},"º":{"ha":621,"x_min":159,"x_max":625,"o":"m 355 472 q 211 528 264 472 q 159 677 159 585 q 233 900 159 814 q 430 986 308 986 q 572 931 519 986 q 625 786 625 877 q 551 558 625 645 q 355 472 478 472 m 359 535 q 499 603 448 535 q 551 779 551 670 q 517 885 551 847 q 424 924 484 924 q 286 857 338 924 q 233 683 233 791 q 266 575 233 614 q 359 535 299 535 z "},"Ω":{"ha":1059,"x_min":-1,"x_max":1040,"o":"m 14 79 l 257 79 q 137 236 179 146 q 95 429 95 326 q 165 717 95 589 q 358 917 235 845 q 632 989 482 989 q 844 940 751 989 q 988 804 937 892 q 1040 605 1040 715 q 950 302 1040 441 q 699 79 859 163 l 930 79 l 914 0 l 578 0 l 595 83 q 853 303 764 171 q 941 597 941 435 q 855 822 941 735 q 629 909 769 909 q 404 846 505 909 q 248 673 304 784 q 192 426 192 562 q 225 244 192 319 q 352 83 259 170 l 334 0 l -1 0 l 14 79 z "},"æ":{"ha":1140,"x_min":54,"x_max":1114,"o":"m 538 241 q 396 45 470 107 q 237 -17 323 -17 q 102 45 149 -17 q 54 229 54 108 q 115 473 54 359 q 278 649 175 587 q 508 711 381 711 q 617 699 569 711 q 716 659 666 686 q 901 711 796 711 q 1054 664 995 711 q 1114 538 1114 616 q 996 360 1114 418 q 621 300 878 303 l 620 283 l 620 266 q 670 112 620 167 q 814 58 721 58 q 1014 120 909 58 l 998 35 q 802 -17 908 -17 q 614 51 682 -17 q 541 241 545 119 l 538 241 m 628 374 q 929 413 833 374 q 1025 532 1025 452 q 989 610 1025 583 q 889 637 953 637 q 718 566 788 637 q 628 374 648 495 m 653 605 q 499 637 591 637 q 317 584 399 637 q 187 435 235 531 q 139 233 139 338 q 166 104 139 151 q 248 58 193 58 q 544 398 414 58 q 653 605 600 544 z "},"ø":{"ha":730,"x_min":-39,"x_max":786,"o":"m -39 5 l 80 119 q 54 254 54 183 q 102 486 54 380 q 236 651 151 591 q 427 711 322 711 q 617 631 549 711 l 741 748 l 786 701 l 651 572 q 676 441 676 516 q 628 207 676 313 q 495 42 581 102 q 304 -17 409 -17 q 115 63 181 -17 l 4 -42 l -39 5 m 553 570 q 420 637 510 637 q 223 528 304 637 q 142 258 142 419 q 151 186 142 216 l 553 570 m 178 123 q 311 58 222 58 q 451 107 387 58 q 552 244 515 157 q 589 437 589 332 q 581 507 589 475 l 178 123 z "},"¿":{"ha":552,"x_min":-31,"x_max":437,"o":"m 373 581 q 328 600 347 581 q 309 646 309 618 q 328 692 309 673 q 373 710 347 710 q 418 691 400 710 q 437 646 437 673 q 418 600 437 618 q 373 581 400 581 m 189 -292 q 31 -235 92 -292 q -31 -83 -31 -177 q 11 67 -31 1 q 151 203 52 134 q 254 300 227 257 q 296 425 280 342 l 375 425 q 319 260 355 315 q 209 154 284 205 q 89 44 124 97 q 54 -74 54 -8 q 94 -179 54 -140 q 200 -219 134 -219 q 387 -161 293 -219 l 375 -251 q 189 -292 283 -292 m 199 -324 z "}," ":{"ha":382,"x_min":0,"x_max":0,"o":""},"¡":{"ha":400,"x_min":24,"x_max":322,"o":"m 259 581 q 213 600 232 581 q 194 646 194 618 q 213 691 194 673 q 259 710 232 710 q 303 692 285 710 q 322 646 322 673 q 303 600 322 618 q 259 581 285 581 m 182 425 l 256 425 l 116 -275 l 24 -275 l 182 425 m 74 -324 z "},"¬":{"ha":925,"x_min":162,"x_max":788,"o":"m 162 489 l 788 489 l 788 133 l 715 133 l 715 417 l 162 417 l 162 489 z "},"√":{"ha":903,"x_min":111,"x_max":764,"o":"m 223 522 l 111 522 l 111 586 l 276 586 l 467 118 l 696 1028 l 764 1028 l 504 -1 l 439 -1 l 223 522 z "},"ƒ":{"ha":731,"x_min":26,"x_max":684,"o":"m 35 -101 q 88 -115 62 -115 q 179 -69 145 -115 q 239 96 212 -23 l 336 552 l 258 552 l 275 626 l 351 626 l 384 779 q 458 922 404 871 q 596 972 512 972 q 684 958 631 972 l 667 882 q 599 899 631 899 q 470 776 496 899 l 437 626 l 559 626 l 543 553 l 421 553 l 323 92 q 236 -122 291 -56 q 91 -189 182 -189 q 26 -176 57 -189 l 35 -101 z "},"≈":{"ha":925,"x_min":176,"x_max":791,"o":"m 176 450 q 226 587 180 537 q 349 636 272 636 q 494 579 416 636 q 573 529 549 539 q 623 518 598 518 q 692 549 666 518 q 721 632 718 579 l 791 632 q 742 496 787 545 q 618 447 696 447 q 539 465 576 447 q 463 512 502 483 q 403 551 429 538 q 349 564 377 564 q 247 450 254 564 l 176 450 m 176 180 q 225 316 180 267 q 349 365 271 365 q 494 309 419 365 q 571 258 545 270 q 623 247 597 247 q 692 277 667 247 q 721 361 718 308 l 791 361 q 742 225 787 275 q 618 176 697 176 q 539 194 576 176 q 463 240 503 212 q 403 279 429 266 q 349 292 377 292 q 247 180 254 292 l 176 180 z "},"Δ":{"ha":896,"x_min":-19,"x_max":777,"o":"m 536 972 l 630 972 l 777 47 l 768 0 l -19 0 l -8 47 l 536 972 m 680 81 l 573 781 q 564 873 566 831 l 562 873 l 549 846 l 533 816 l 109 81 l 680 81 z "},"«":{"ha":675,"x_min":65,"x_max":649,"o":"m 308 365 l 550 598 l 649 598 l 397 358 l 541 137 l 454 137 l 308 365 m 65 365 l 307 598 l 406 598 l 155 358 l 299 137 l 212 137 l 65 365 z "},"»":{"ha":675,"x_min":26,"x_max":611,"o":"m 521 376 l 376 598 l 463 598 l 611 370 l 369 137 l 270 137 l 521 376 m 278 376 l 134 598 l 222 598 l 368 370 l 126 137 l 26 137 l 278 376 z "},"…":{"ha":970,"x_min":34,"x_max":810,"o":"m 746 -12 q 701 7 720 -12 q 683 53 683 26 q 702 99 683 81 q 746 117 721 117 q 792 98 774 117 q 810 53 810 79 q 792 7 810 26 q 746 -12 774 -12 m 357 53 q 376 99 357 81 q 421 117 395 117 q 467 98 448 117 q 486 53 486 79 q 466 7 486 25 q 421 -12 447 -12 q 376 7 394 -12 q 357 53 357 26 m 97 -12 q 52 7 71 -12 q 34 53 34 26 q 53 99 34 81 q 97 117 72 117 q 142 98 123 117 q 161 53 161 79 q 142 7 161 25 q 97 -12 123 -12 z "},"À":{"ha":846,"x_min":-63,"x_max":760,"o":"m 508 972 l 597 972 l 760 0 l 668 0 l 621 288 l 206 288 l 37 0 l -63 0 l 508 972 m 608 369 l 542 802 q 537 872 537 839 l 534 872 l 528 857 q 509 818 524 846 q 251 369 494 790 l 608 369 m 424 1274 l 507 1274 l 642 1051 l 574 1051 l 424 1274 z "},"Ã":{"ha":846,"x_min":-63,"x_max":791,"o":"m 508 972 l 597 972 l 760 0 l 668 0 l 621 288 l 206 288 l 37 0 l -63 0 l 508 972 m 608 369 l 542 802 q 537 872 537 839 l 534 872 l 528 857 q 509 818 524 846 q 251 369 494 790 l 608 369 m 340 1050 q 389 1160 350 1121 q 490 1200 429 1200 q 539 1187 519 1200 q 577 1161 559 1175 q 612 1134 594 1146 q 653 1122 629 1122 q 705 1145 684 1122 q 734 1211 727 1168 l 791 1211 q 742 1101 781 1141 q 646 1061 704 1061 q 593 1073 614 1061 q 555 1099 572 1084 q 521 1125 538 1114 q 481 1137 504 1137 q 397 1050 412 1137 l 340 1050 z "},"Õ":{"ha":1047,"x_min":98,"x_max":1009,"o":"m 490 -17 q 204 98 310 -17 q 98 400 98 213 q 167 701 98 566 q 355 912 236 836 q 622 989 475 989 q 903 874 798 989 q 1009 576 1009 760 q 943 275 1009 412 q 758 60 876 138 q 490 -17 640 -17 m 494 64 q 711 127 616 64 q 861 313 806 191 q 916 572 916 434 q 835 818 916 728 q 616 909 753 909 q 398 843 496 909 q 245 659 299 777 q 191 400 191 541 q 272 154 191 243 q 494 64 353 64 m 409 1050 q 458 1160 418 1121 q 558 1200 497 1200 q 608 1187 587 1200 q 645 1161 628 1175 q 680 1134 663 1146 q 722 1122 698 1122 q 774 1145 752 1122 q 803 1211 795 1168 l 860 1211 q 811 1101 849 1141 q 714 1061 772 1061 q 662 1073 682 1061 q 624 1099 641 1084 q 589 1125 606 1114 q 549 1137 572 1137 q 465 1050 481 1137 l 409 1050 z "},"Œ":{"ha":1289,"x_min":97,"x_max":1336,"o":"m 1169 81 l 1153 0 l 709 0 l 663 -3 q 488 -17 529 -17 q 203 97 309 -17 q 97 400 97 211 q 165 702 97 568 q 355 912 234 836 q 630 989 476 989 q 785 981 684 989 q 903 972 878 972 l 1336 972 l 1319 892 l 938 892 l 860 529 l 1215 529 l 1198 448 l 843 448 l 765 81 l 1169 81 m 846 887 q 626 909 742 909 q 399 843 498 909 q 246 660 301 778 q 191 400 191 542 q 271 154 191 245 q 495 64 351 64 q 677 89 597 64 l 846 887 z "},"œ":{"ha":1179,"x_min":54,"x_max":1153,"o":"m 593 165 q 470 31 545 79 q 304 -17 396 -17 q 121 55 189 -17 q 54 254 54 126 q 102 486 54 380 q 236 651 150 591 q 427 711 323 711 q 573 664 513 711 q 650 531 632 616 l 654 531 q 780 665 705 618 q 944 711 854 711 q 1096 664 1038 711 q 1153 536 1153 617 q 1036 360 1153 418 q 661 299 919 303 l 659 262 q 710 112 659 166 q 853 58 762 58 q 1053 120 947 58 l 1037 35 q 841 -17 945 -17 q 680 30 742 -17 q 596 165 618 76 l 593 165 m 671 372 q 969 411 873 372 q 1065 531 1065 450 q 1030 610 1065 584 q 935 637 996 637 q 768 564 841 637 q 671 372 696 492 m 311 58 q 451 108 387 58 q 551 245 515 158 q 587 435 587 332 q 543 585 587 533 q 420 637 499 637 q 223 528 304 637 q 142 260 142 419 q 187 111 142 165 q 311 58 233 58 z "},"–":{"ha":694,"x_min":4,"x_max":713,"o":"m 19 434 l 713 434 l 699 361 l 4 361 l 19 434 z "},"—":{"ha":1389,"x_min":4,"x_max":1408,"o":"m 19 434 l 1408 434 l 1393 361 l 4 361 l 19 434 z "},"“":{"ha":481,"x_min":149,"x_max":528,"o":"m 465 972 l 528 972 l 429 669 l 343 669 l 465 972 m 269 972 l 334 972 l 234 669 l 149 669 l 269 972 z "},"”":{"ha":481,"x_min":151,"x_max":531,"o":"m 446 972 l 531 972 l 410 669 l 346 669 l 446 972 m 252 972 l 336 972 l 214 669 l 151 669 l 252 972 z "},"‘":{"ha":286,"x_min":149,"x_max":334,"o":"m 269 972 l 334 972 l 234 669 l 149 669 l 269 972 z "},"’":{"ha":286,"x_min":151,"x_max":336,"o":"m 252 972 l 336 972 l 214 669 l 151 669 l 252 972 z "},"÷":{"ha":925,"x_min":165,"x_max":791,"o":"m 481 588 q 437 606 455 588 q 420 649 420 623 q 437 693 420 675 q 481 711 454 711 q 526 694 509 711 q 543 650 543 678 q 524 606 543 623 q 481 588 506 588 m 165 441 l 791 441 l 791 368 l 165 368 l 165 441 m 418 159 q 435 203 418 185 q 479 222 453 222 q 524 205 507 222 q 541 160 541 189 q 523 116 541 134 q 479 99 505 99 q 436 116 454 99 q 418 159 418 134 z "},"◊":{"ha":788,"x_min":91,"x_max":741,"o":"m 91 485 l 393 972 l 438 972 l 741 486 l 438 0 l 393 0 l 91 485 m 665 486 l 416 892 l 168 486 l 416 79 l 665 486 z "},"ÿ":{"ha":649,"x_min":-111,"x_max":724,"o":"m -94 -236 q -41 -248 -73 -248 q 47 -220 8 -248 q 123 -132 86 -191 l 211 6 l 87 694 l 174 694 l 265 146 l 270 94 l 273 94 l 291 130 l 627 694 l 724 694 l 220 -123 q 88 -282 148 -239 q -49 -326 28 -326 q -111 -316 -87 -326 l -94 -236 m 475 872 q 491 911 475 894 q 531 928 507 928 q 572 912 555 928 q 590 872 590 896 q 573 831 590 848 q 532 815 556 815 q 492 831 509 815 q 475 872 475 846 m 232 872 q 249 911 232 895 q 288 928 265 928 q 330 912 313 928 q 348 872 348 896 q 331 832 348 848 q 289 815 313 815 q 249 831 266 815 q 232 872 232 847 z "},"Ÿ":{"ha":759,"x_min":157,"x_max":865,"o":"m 331 368 l 157 972 l 252 972 l 375 515 l 390 449 l 393 449 l 429 505 l 763 972 l 865 972 l 422 370 l 345 0 l 254 0 l 331 368 m 586 1116 q 602 1155 586 1137 q 642 1172 617 1172 q 683 1156 665 1172 q 701 1116 701 1139 q 684 1075 701 1091 q 643 1059 667 1059 q 603 1074 619 1059 q 586 1116 586 1090 m 342 1116 q 359 1155 342 1138 q 399 1172 376 1172 q 441 1156 423 1172 q 458 1116 458 1139 q 441 1075 458 1092 q 399 1059 424 1059 q 359 1075 376 1059 q 342 1116 342 1090 z "},"⁄":{"ha":184,"x_min":-323,"x_max":550,"o":"m 465 972 l 550 972 l -237 0 l -323 0 l 465 972 z "},"€":{"ha":731,"x_min":40,"x_max":817,"o":"m 55 400 l 152 400 q 170 553 155 484 l 87 553 l 101 618 l 186 618 q 361 892 241 795 q 644 989 481 989 q 817 950 728 989 l 800 861 q 635 911 721 911 q 415 835 508 911 q 277 618 322 758 l 663 618 l 649 553 l 259 553 q 241 400 244 489 l 616 400 l 603 334 l 243 334 q 481 61 262 61 q 652 109 556 61 l 640 22 q 553 -8 591 1 q 465 -18 515 -18 q 243 75 326 -18 q 152 334 161 167 l 40 334 l 55 400 z "},"‹":{"ha":432,"x_min":65,"x_max":406,"o":"m 65 365 l 307 598 l 406 598 l 155 358 l 299 137 l 212 137 l 65 365 z "},"›":{"ha":432,"x_min":26,"x_max":367,"o":"m 277 376 l 133 598 l 220 598 l 367 370 l 126 137 l 26 137 l 277 376 z "},"ﬁ":{"ha":707,"x_min":7,"x_max":720,"o":"m 189 621 l 66 621 l 83 694 l 205 694 l 233 825 q 473 1044 280 1044 q 557 1032 517 1044 l 542 954 q 465 970 514 970 q 369 931 406 970 q 315 807 333 891 l 291 694 l 466 694 l 448 621 l 274 621 l 92 -231 l 7 -231 l 189 621 m 565 694 l 651 694 l 547 205 q 534 110 534 136 q 586 62 534 62 q 642 71 617 62 l 628 2 q 555 -12 594 -12 q 474 16 503 -12 q 446 96 446 43 q 462 208 446 134 l 565 694 m 658 869 q 614 887 632 869 q 596 931 596 906 q 614 974 596 958 q 658 991 633 991 q 701 974 683 991 q 720 931 720 958 q 701 887 720 905 q 658 869 682 869 z "},"ﬂ":{"ha":704,"x_min":7,"x_max":719,"o":"m 189 621 l 66 621 l 83 694 l 205 694 l 233 825 q 473 1044 280 1044 q 557 1032 517 1044 l 542 954 q 465 970 514 970 q 369 931 406 970 q 315 807 333 891 l 291 694 l 466 694 l 448 621 l 274 621 l 92 -231 l 7 -231 l 189 621 m 633 1028 l 719 1028 l 544 205 q 530 110 530 136 q 583 62 530 62 q 639 71 614 62 l 625 2 q 552 -12 591 -12 q 471 16 499 -12 q 443 96 443 43 q 458 208 443 138 l 633 1028 z "},"‡":{"ha":520,"x_min":50,"x_max":566,"o":"m 239 383 l 50 377 l 66 455 l 240 446 l 284 568 l 292 690 l 113 681 l 130 759 l 318 753 l 350 966 l 433 966 l 375 753 l 566 759 l 549 681 l 374 690 l 330 568 l 323 446 l 500 455 l 484 377 l 296 383 l 263 165 l 181 165 l 239 383 z "},"·":{"ha":309,"x_min":120,"x_max":248,"o":"m 183 389 q 138 408 156 389 q 120 454 120 427 q 138 499 120 481 q 183 517 156 517 q 229 499 210 517 q 248 454 248 481 q 229 408 248 427 q 183 389 210 389 z "},"‚":{"ha":286,"x_min":-24,"x_max":161,"o":"m 77 149 l 161 149 l 39 -153 l -24 -153 l 77 149 z "},"„":{"ha":481,"x_min":-24,"x_max":356,"o":"m 271 148 l 356 148 l 235 -155 l 171 -155 l 271 148 m 77 148 l 161 148 l 39 -155 l -24 -155 l 77 148 z "},"‰":{"ha":1653,"x_min":109,"x_max":1592,"o":"m 1335 -14 q 1197 39 1246 -14 q 1147 180 1147 92 q 1182 332 1147 262 q 1277 444 1216 403 q 1410 486 1339 486 q 1544 433 1495 486 q 1592 292 1592 381 q 1519 75 1592 164 q 1335 -14 1445 -14 m 806 -14 q 669 39 719 -14 q 618 180 618 92 q 653 332 618 261 q 749 445 688 404 q 882 486 810 486 q 1015 433 966 486 q 1064 292 1064 381 q 990 75 1064 164 q 806 -14 916 -14 m 954 972 l 1039 972 l 228 0 l 142 0 l 954 972 m 296 487 q 159 539 210 487 q 109 681 109 592 q 144 833 109 762 q 240 945 179 905 q 372 986 300 986 q 505 935 455 986 q 555 793 555 884 q 522 640 555 711 q 428 528 488 570 q 296 487 368 487 m 1338 50 q 1467 120 1415 50 q 1518 288 1518 190 q 1488 386 1518 351 q 1406 421 1459 421 q 1276 350 1329 421 q 1223 182 1223 279 q 1254 85 1223 120 q 1338 50 1284 50 m 809 50 q 938 120 886 50 q 989 288 989 190 q 960 386 989 351 q 878 421 930 421 q 748 351 801 421 q 695 182 695 280 q 725 85 695 120 q 809 50 755 50 m 300 551 q 428 620 376 551 q 479 789 479 689 q 450 887 479 852 q 368 922 420 922 q 238 852 291 922 q 185 683 185 781 q 216 586 185 621 q 300 551 246 551 z "},"Â":{"ha":846,"x_min":-63,"x_max":760,"o":"m 508 972 l 597 972 l 760 0 l 668 0 l 621 288 l 206 288 l 37 0 l -63 0 l 508 972 m 608 369 l 542 802 q 537 872 537 839 l 534 872 l 528 857 q 509 818 524 846 q 251 369 494 790 l 608 369 m 573 1277 l 631 1277 l 734 1050 l 669 1050 l 593 1213 l 451 1050 l 382 1050 l 573 1277 z "},"Ê":{"ha":681,"x_min":51,"x_max":728,"o":"m 256 972 l 728 972 l 711 892 l 330 892 l 252 529 l 606 529 l 589 448 l 235 448 l 157 81 l 562 81 l 545 0 l 51 0 l 256 972 m 525 1278 l 583 1278 l 686 1052 l 621 1052 l 545 1214 l 403 1052 l 334 1052 l 525 1278 z "},"Á":{"ha":846,"x_min":-63,"x_max":760,"o":"m 508 972 l 597 972 l 760 0 l 668 0 l 621 288 l 206 288 l 37 0 l -63 0 l 508 972 m 608 369 l 542 802 q 537 872 537 839 l 534 872 l 528 857 q 509 818 524 846 q 251 369 494 790 l 608 369 m 665 1272 l 755 1272 l 543 1049 l 469 1049 l 665 1272 z "},"Ë":{"ha":681,"x_min":51,"x_max":728,"o":"m 256 972 l 728 972 l 711 892 l 330 892 l 252 529 l 606 529 l 589 448 l 235 448 l 157 81 l 562 81 l 545 0 l 51 0 l 256 972 m 569 1108 q 585 1147 569 1130 q 625 1164 600 1164 q 666 1148 648 1164 q 684 1108 684 1132 q 667 1067 684 1084 q 626 1051 650 1051 q 586 1067 602 1051 q 569 1108 569 1082 m 326 1108 q 342 1147 326 1131 q 382 1164 359 1164 q 424 1148 406 1164 q 441 1108 441 1132 q 424 1068 441 1084 q 382 1051 407 1051 q 342 1067 359 1051 q 326 1108 326 1083 z "},"È":{"ha":681,"x_min":51,"x_max":728,"o":"m 256 972 l 728 972 l 711 892 l 330 892 l 252 529 l 606 529 l 589 448 l 235 448 l 157 81 l 562 81 l 545 0 l 51 0 l 256 972 m 363 1274 l 446 1274 l 581 1051 l 513 1051 l 363 1274 z "},"Í":{"ha":341,"x_min":51,"x_max":522,"o":"m 256 972 l 347 972 l 140 0 l 51 0 l 256 972 m 431 1274 l 522 1274 l 309 1051 l 235 1051 l 431 1274 z "},"Î":{"ha":341,"x_min":51,"x_max":487,"o":"m 256 972 l 347 972 l 140 0 l 51 0 l 256 972 m 326 1278 l 385 1278 l 487 1052 l 422 1052 l 346 1214 l 204 1052 l 135 1052 l 326 1278 z "},"Ï":{"ha":341,"x_min":51,"x_max":502,"o":"m 256 972 l 347 972 l 140 0 l 51 0 l 256 972 m 387 1108 q 403 1147 387 1130 q 443 1164 418 1164 q 484 1148 467 1164 q 502 1108 502 1132 q 485 1067 502 1084 q 444 1051 468 1051 q 404 1067 420 1051 q 387 1108 387 1082 m 144 1108 q 160 1147 144 1131 q 200 1164 177 1164 q 242 1148 224 1164 q 260 1108 260 1132 q 242 1068 260 1084 q 201 1051 225 1051 q 161 1067 178 1051 q 144 1108 144 1083 z "},"Ì":{"ha":341,"x_min":51,"x_max":397,"o":"m 256 972 l 347 972 l 140 0 l 51 0 l 256 972 m 179 1274 l 262 1274 l 397 1051 l 329 1051 l 179 1274 z "},"Ó":{"ha":1047,"x_min":98,"x_max":1009,"o":"m 490 -17 q 204 98 310 -17 q 98 400 98 213 q 167 701 98 566 q 355 912 236 836 q 622 989 475 989 q 903 874 798 989 q 1009 576 1009 760 q 943 275 1009 412 q 758 60 876 138 q 490 -17 640 -17 m 494 64 q 711 127 616 64 q 861 313 806 191 q 916 572 916 434 q 835 818 916 728 q 616 909 753 909 q 398 843 496 909 q 245 659 299 777 q 191 400 191 541 q 272 154 191 243 q 494 64 353 64 m 727 1274 l 818 1274 l 605 1051 l 531 1051 l 727 1274 z "},"Ô":{"ha":1047,"x_min":98,"x_max":1009,"o":"m 490 -17 q 204 98 310 -17 q 98 400 98 213 q 167 701 98 566 q 355 912 236 836 q 622 989 475 989 q 903 874 798 989 q 1009 576 1009 760 q 943 275 1009 412 q 758 60 876 138 q 490 -17 640 -17 m 494 64 q 711 127 616 64 q 861 313 806 191 q 916 572 916 434 q 835 818 916 728 q 616 909 753 909 q 398 843 496 909 q 245 659 299 777 q 191 400 191 541 q 272 154 191 243 q 494 64 353 64 m 639 1278 l 697 1278 l 800 1051 l 735 1051 l 659 1213 l 517 1051 l 448 1051 l 639 1278 z "},"Ò":{"ha":1047,"x_min":98,"x_max":1009,"o":"m 490 -17 q 204 98 310 -17 q 98 400 98 213 q 167 701 98 566 q 355 912 236 836 q 622 989 475 989 q 903 874 798 989 q 1009 576 1009 760 q 943 275 1009 412 q 758 60 876 138 q 490 -17 640 -17 m 494 64 q 711 127 616 64 q 861 313 806 191 q 916 572 916 434 q 835 818 916 728 q 616 909 753 909 q 398 843 496 909 q 245 659 299 777 q 191 400 191 541 q 272 154 191 243 q 494 64 353 64 m 511 1273 l 595 1273 l 730 1050 l 661 1050 l 511 1273 z "},"Ú":{"ha":926,"x_min":112,"x_max":945,"o":"m 244 972 l 334 972 l 220 437 q 201 290 201 351 q 261 120 201 177 q 427 64 321 64 q 621 134 550 64 q 725 361 691 205 l 855 972 l 945 972 l 818 376 q 679 73 772 163 q 414 -17 585 -17 q 193 63 275 -17 q 112 280 112 143 q 127 422 112 353 l 244 972 m 707 1273 l 798 1273 l 585 1050 l 511 1050 l 707 1273 z "},"Û":{"ha":926,"x_min":112,"x_max":945,"o":"m 244 972 l 334 972 l 220 437 q 201 290 201 351 q 261 120 201 177 q 427 64 321 64 q 621 134 550 64 q 725 361 691 205 l 855 972 l 945 972 l 818 376 q 679 73 772 163 q 414 -17 585 -17 q 193 63 275 -17 q 112 280 112 143 q 127 422 112 353 l 244 972 m 618 1278 l 677 1278 l 779 1052 l 715 1052 l 638 1214 l 496 1052 l 427 1052 l 618 1278 z "},"Ù":{"ha":926,"x_min":112,"x_max":945,"o":"m 244 972 l 334 972 l 220 437 q 201 290 201 351 q 261 120 201 177 q 427 64 321 64 q 621 134 550 64 q 725 361 691 205 l 855 972 l 945 972 l 818 376 q 679 73 772 163 q 414 -17 585 -17 q 193 63 275 -17 q 112 280 112 143 q 127 422 112 353 l 244 972 m 472 1274 l 555 1274 l 690 1051 l 622 1051 l 472 1274 z "},"ı":{"ha":322,"x_min":61,"x_max":266,"o":"m 180 694 l 266 694 l 162 205 q 149 110 149 136 q 201 62 149 62 q 257 71 232 62 l 243 2 q 170 -12 209 -12 q 89 16 117 -12 q 61 96 61 43 q 77 208 61 138 l 180 694 z "},"ˆ":{"ha":448,"x_min":143,"x_max":495,"o":"m 334 1042 l 393 1042 l 495 815 l 431 815 l 354 977 l 212 815 l 143 815 l 334 1042 z "},"˜":{"ha":448,"x_min":109,"x_max":560,"o":"m 109 815 q 158 926 119 886 q 258 965 197 965 q 308 953 288 965 q 346 926 328 941 q 380 899 363 911 q 422 887 398 887 q 474 910 452 887 q 503 976 496 934 l 560 976 q 511 866 549 906 q 414 826 473 826 q 362 838 382 826 q 324 864 341 850 q 290 891 307 879 q 250 903 273 903 q 165 815 181 903 l 109 815 z "},"ˉ":{"ha":456,"x_min":97,"x_max":453,"o":"m 109 887 l 453 887 l 441 823 l 97 823 l 109 887 z "},"˘":{"ha":448,"x_min":162,"x_max":534,"o":"m 227 981 l 226 965 q 253 898 226 921 q 327 874 281 874 q 414 899 380 874 q 468 981 448 924 l 534 981 q 456 858 510 900 q 324 815 402 815 q 206 853 250 815 q 162 958 162 892 l 164 981 l 227 981 z "},"˙":{"ha":448,"x_min":271,"x_max":389,"o":"m 330 815 q 288 833 304 815 q 271 875 271 850 q 288 916 271 901 q 329 932 306 932 q 371 916 353 932 q 389 875 389 901 q 372 832 389 850 q 330 815 355 815 z "},"˚":{"ha":448,"x_min":207,"x_max":481,"o":"m 207 928 q 246 1022 207 985 q 346 1058 286 1058 q 444 1022 406 1058 q 481 931 481 986 q 442 839 481 876 q 344 802 402 802 q 245 837 284 802 q 207 928 207 873 m 344 852 q 403 874 380 852 q 427 930 427 897 q 404 987 427 966 q 344 1008 380 1008 q 285 986 307 1008 q 262 930 262 965 q 286 873 262 894 q 344 852 309 852 z "},"¸":{"ha":448,"x_min":26,"x_max":276,"o":"m 37 -235 q 93 -241 66 -241 q 207 -178 207 -241 q 122 -123 207 -123 l 82 -125 l 109 0 l 165 0 l 149 -75 q 241 -100 207 -75 q 276 -171 276 -124 q 229 -262 276 -229 q 89 -295 182 -295 q 26 -290 62 -295 l 37 -235 z "},"˝":{"ha":448,"x_min":159,"x_max":559,"o":"m 474 1033 l 559 1033 l 378 815 l 320 815 l 474 1033 m 314 1033 l 397 1033 l 218 815 l 159 815 l 314 1033 z "},"˛":{"ha":448,"x_min":18,"x_max":205,"o":"m 125 -280 q 46 -252 74 -280 q 18 -176 18 -224 q 142 0 18 -90 l 205 0 q 113 -94 141 -55 q 85 -166 85 -132 q 140 -223 85 -223 q 198 -209 164 -223 l 193 -267 q 125 -280 160 -280 z "},"ˇ":{"ha":448,"x_min":189,"x_max":541,"o":"m 189 1042 l 253 1042 l 330 880 l 473 1042 l 541 1042 l 351 815 l 292 815 l 189 1042 z "},"Ł":{"ha":614,"x_min":36,"x_max":547,"o":"m 134 391 l 36 342 l 54 431 l 153 481 l 256 972 l 347 972 l 254 532 l 478 654 l 460 566 l 234 442 l 158 81 l 547 81 l 530 0 l 51 0 l 134 391 z "},"ł":{"ha":322,"x_min":3,"x_max":367,"o":"m 125 429 l 3 355 l 22 443 l 144 516 l 252 1028 l 338 1028 l 241 574 l 367 650 l 348 562 l 223 487 l 164 205 q 150 110 150 140 q 202 62 150 62 q 259 71 233 62 l 244 2 q 172 -12 210 -12 q 91 16 119 -12 q 62 96 62 43 q 68 155 62 121 q 125 429 74 190 z "},"Š":{"ha":690,"x_min":28,"x_max":706,"o":"m 43 135 q 151 84 87 105 q 277 64 214 64 q 437 110 380 64 q 493 239 493 157 q 460 343 493 297 q 336 455 427 389 q 205 584 243 522 q 167 721 167 646 q 255 914 167 839 q 481 989 342 989 q 688 949 587 989 l 671 857 q 474 909 590 909 q 319 859 378 909 q 260 730 260 810 q 292 622 260 667 q 409 513 323 576 q 548 382 510 440 q 586 251 586 323 q 548 111 586 172 q 440 17 511 50 q 272 -17 369 -17 q 145 -1 210 -17 q 28 42 81 14 l 43 135 m 354 1282 l 418 1282 l 495 1120 l 637 1282 l 706 1282 l 515 1055 l 456 1055 l 354 1282 z "},"š":{"ha":543,"x_min":15,"x_max":579,"o":"m 33 113 q 112 73 64 89 q 203 58 160 58 q 317 88 278 58 q 356 176 356 118 q 332 245 356 216 q 243 313 307 274 q 137 401 170 357 q 104 504 104 445 q 170 652 104 593 q 341 711 236 711 q 425 703 380 711 q 505 677 471 694 l 488 593 q 337 637 420 637 q 232 603 271 637 q 192 513 192 568 q 214 444 192 473 q 300 376 235 415 q 411 284 379 328 q 444 184 444 241 q 376 38 444 92 q 193 -17 309 -17 q 97 -4 146 -17 q 15 28 48 8 l 33 113 m 227 1042 l 291 1042 l 368 880 l 511 1042 l 579 1042 l 389 815 l 330 815 l 227 1042 z "},"Ž":{"ha":791,"x_min":-41,"x_max":880,"o":"m 718 891 l 195 891 l 212 972 l 880 972 l 875 945 l 117 81 l 680 81 l 663 0 l -41 0 l -35 31 l 718 891 m 408 1277 l 471 1277 l 549 1115 l 691 1277 l 760 1277 l 569 1050 l 510 1050 l 408 1277 z "},"ž":{"ha":637,"x_min":-43,"x_max":675,"o":"m 521 621 l 125 621 l 141 694 l 675 694 l 671 667 l 109 74 l 533 74 l 517 0 l -43 0 l -37 33 l 521 621 m 280 1042 l 344 1042 l 421 880 l 564 1042 l 632 1042 l 441 815 l 382 815 l 280 1042 z "},"¦":{"ha":323,"x_min":121,"x_max":201,"o":"m 121 1063 l 201 1063 l 201 485 l 121 485 l 121 1063 m 121 252 l 201 252 l 201 -326 l 121 -326 l 121 252 z "},"Ð":{"ha":962,"x_min":39,"x_max":926,"o":"m 146 446 l 39 446 l 54 527 l 163 527 l 258 972 l 502 972 q 814 868 702 972 q 926 574 926 764 q 856 272 926 402 q 653 71 786 142 q 340 0 519 0 l 51 0 l 146 446 m 342 81 q 705 210 576 81 q 834 568 834 338 q 746 808 834 725 q 485 892 659 892 l 330 892 l 252 527 l 506 527 l 490 446 l 235 446 l 157 81 l 342 81 z "},"ð":{"ha":730,"x_min":54,"x_max":733,"o":"m 233 821 l 428 902 q 280 1028 381 956 l 401 1028 q 502 936 451 991 l 708 1022 l 733 966 l 543 886 q 678 463 678 711 q 629 221 678 334 q 493 46 579 109 q 302 -17 406 -17 q 120 55 186 -17 q 54 252 54 126 q 104 485 54 377 q 237 652 155 592 q 414 711 319 711 q 510 690 469 711 q 574 631 551 669 l 577 631 q 535 748 566 685 q 469 854 505 810 l 256 762 l 233 821 m 309 58 q 449 111 384 58 q 553 257 515 165 q 591 448 591 349 q 546 587 591 537 q 420 637 500 637 q 281 585 347 637 q 178 445 216 532 q 141 258 141 357 q 185 111 141 165 q 309 58 229 58 z "},"Ý":{"ha":759,"x_min":157,"x_max":865,"o":"m 331 368 l 157 972 l 252 972 l 375 515 l 390 449 l 393 449 l 429 505 l 763 972 l 865 972 l 422 370 l 345 0 l 254 0 l 331 368 m 628 1285 l 719 1285 l 506 1063 l 432 1063 l 628 1285 z "},"ý":{"ha":649,"x_min":-111,"x_max":724,"o":"m -94 -236 q -41 -248 -73 -248 q 47 -220 8 -248 q 123 -132 86 -191 l 211 6 l 87 694 l 174 694 l 265 146 l 270 94 l 273 94 l 291 130 l 627 694 l 724 694 l 220 -123 q 88 -282 148 -239 q -49 -326 28 -326 q -111 -316 -87 -326 l -94 -236 m 544 1038 l 635 1038 l 422 815 l 348 815 l 544 1038 z "},"Þ":{"ha":775,"x_min":51,"x_max":739,"o":"m 256 972 l 347 972 l 313 815 l 453 815 q 664 747 589 815 q 739 562 739 679 q 636 314 739 405 q 357 222 534 222 l 353 222 l 189 222 l 140 0 l 51 0 l 256 972 m 360 303 q 572 369 499 303 q 646 554 646 435 q 590 688 646 641 q 431 734 534 734 l 296 734 l 205 303 l 360 303 z "},"þ":{"ha":739,"x_min":-33,"x_max":684,"o":"m 254 1028 l 338 1028 l 262 676 q 222 507 246 595 l 225 507 q 488 711 340 711 q 633 647 582 711 q 684 458 684 583 q 628 217 684 328 q 478 44 572 105 q 269 -17 383 -17 q 123 9 193 -17 l 52 -324 l -33 -324 l 254 1028 m 138 85 q 279 58 197 58 q 441 110 368 58 q 555 253 514 162 q 597 450 597 343 q 464 637 597 637 q 349 587 408 637 q 243 452 290 536 q 178 278 197 367 l 138 85 z "},"−":{"ha":925,"x_min":165,"x_max":791,"o":"m 165 441 l 791 441 l 791 368 l 165 368 l 165 441 z "},"×":{"ha":925,"x_min":195,"x_max":753,"o":"m 753 176 l 703 125 l 475 355 l 247 125 l 195 176 l 424 404 l 195 633 l 247 684 l 475 455 l 703 684 l 753 633 l 525 404 l 753 176 z "},"½":{"ha":1199,"x_min":150,"x_max":1141,"o":"m 956 972 l 1041 972 l 254 0 l 168 0 l 956 972 m 229 396 l 332 888 q 279 855 306 870 q 228 829 252 840 q 183 809 203 817 q 150 798 163 802 l 163 863 q 223 887 191 872 q 286 920 254 902 q 345 956 317 937 q 394 989 373 974 l 424 989 l 300 396 l 229 396 m 1056 1 l 692 1 l 706 66 q 745 144 715 111 q 815 207 775 178 q 898 262 854 236 q 979 316 942 288 q 1039 377 1015 345 q 1063 453 1063 410 q 1042 505 1063 487 q 980 522 1021 522 q 817 454 901 522 l 835 538 q 1002 591 913 591 q 1062 582 1036 591 q 1106 556 1088 572 q 1133 516 1124 539 q 1141 466 1141 493 q 1127 393 1141 426 q 1089 331 1113 359 q 1035 277 1065 302 q 972 232 1004 253 q 909 192 940 211 q 852 155 878 173 q 809 121 827 138 q 789 86 792 104 l 786 73 l 1071 73 l 1056 1 z "},"¼":{"ha":1164,"x_min":157,"x_max":1078,"o":"m 970 972 l 1055 972 l 267 0 l 181 0 l 970 972 m 237 396 l 339 888 q 287 855 313 870 q 235 829 260 840 q 191 809 211 817 q 157 798 170 802 l 171 863 q 230 887 199 872 q 293 920 262 902 q 352 956 324 937 q 401 989 380 974 l 431 989 l 308 396 l 237 396 m 987 145 l 958 1 l 887 1 l 917 145 l 650 145 l 663 203 q 739 276 700 237 q 818 361 777 315 q 903 460 859 406 q 996 577 947 513 l 1078 577 l 1000 207 l 1077 207 l 1064 145 l 987 145 m 986 477 q 923 397 954 434 q 864 326 892 359 q 807 263 835 293 q 750 207 779 234 l 930 207 l 986 477 z "},"¾":{"ha":1193,"x_min":91,"x_max":1105,"o":"m 981 972 l 1066 972 l 279 0 l 193 0 l 981 972 m 1015 145 l 985 1 l 914 1 l 944 145 l 677 145 l 690 203 q 766 276 727 237 q 845 361 804 315 q 930 460 886 406 q 1023 577 975 513 l 1105 577 l 1027 207 l 1104 207 l 1091 145 l 1015 145 m 1013 477 q 950 397 981 434 q 891 326 920 359 q 834 263 862 293 q 777 207 806 234 l 957 207 l 1013 477 m 106 489 q 243 449 169 449 q 347 478 311 449 q 384 559 384 508 q 351 632 384 606 q 248 659 317 659 l 198 659 l 213 726 l 264 726 q 383 758 339 726 q 427 841 427 790 q 404 896 427 874 q 334 918 380 918 q 201 880 269 918 l 220 960 q 347 986 281 986 q 460 951 418 986 q 502 855 502 916 q 463 751 502 792 q 355 695 423 709 l 355 692 q 458 562 458 667 q 399 431 458 480 q 238 382 340 382 q 155 391 197 382 q 91 414 113 401 l 106 489 z "},"₣":{"ha":661,"x_min":-12,"x_max":730,"o":"m 95 205 l -12 205 l 5 287 l 112 287 l 258 972 l 730 972 l 713 892 l 330 892 l 251 523 l 607 523 l 590 443 l 234 443 l 201 287 l 376 287 l 359 205 l 184 205 l 140 0 l 52 0 l 95 205 z "},"Ğ":{"ha":960,"x_min":98,"x_max":935,"o":"m 779 412 l 543 412 l 560 492 l 887 492 l 793 52 q 514 -18 663 -18 q 295 35 389 -18 q 149 188 200 88 q 98 413 98 287 q 168 714 98 583 q 363 917 237 846 q 654 989 490 989 q 935 925 800 989 l 916 834 q 640 909 787 909 q 313 774 436 909 q 191 421 191 640 q 278 158 191 253 q 523 64 366 64 q 713 100 624 64 l 779 412 m 562 1219 l 560 1204 q 588 1136 560 1160 q 661 1113 615 1113 q 749 1138 715 1113 q 802 1219 783 1162 l 869 1219 q 790 1096 844 1139 q 659 1054 736 1054 q 541 1092 585 1054 q 496 1197 496 1131 l 498 1219 l 562 1219 z "},"ğ":{"ha":739,"x_min":-20,"x_max":701,"o":"m -3 -193 q 187 -250 96 -250 q 371 -185 302 -250 q 474 29 439 -121 l 509 185 l 506 185 q 387 33 447 82 q 252 -17 328 -17 q 106 48 159 -17 q 54 237 54 113 q 109 476 54 367 q 260 649 163 586 q 472 711 356 711 q 585 704 519 711 q 697 686 650 696 l 562 50 q 426 -240 518 -153 q 176 -326 334 -326 q -20 -276 73 -326 l -3 -193 m 599 623 q 462 637 539 637 q 300 586 374 637 q 184 445 227 536 q 142 245 142 353 q 269 58 142 58 q 387 107 328 58 q 492 244 446 157 q 557 416 538 332 l 599 623 m 393 981 l 392 965 q 419 898 392 921 q 493 874 447 874 q 581 899 547 874 q 634 981 614 924 l 701 981 q 622 858 676 900 q 490 815 568 815 q 372 853 416 815 q 328 958 328 892 l 330 981 l 393 981 z "},"İ":{"ha":341,"x_min":51,"x_max":383,"o":"m 256 972 l 347 972 l 140 0 l 51 0 l 256 972 m 324 1065 q 282 1083 299 1065 q 265 1125 265 1101 q 283 1166 265 1151 q 323 1182 300 1182 q 365 1166 347 1182 q 383 1125 383 1151 q 366 1083 383 1100 q 324 1065 349 1065 z "},"Ş":{"ha":690,"x_min":28,"x_max":688,"o":"m 43 135 q 151 84 87 105 q 277 64 214 64 q 437 110 380 64 q 493 239 493 157 q 460 343 493 297 q 336 455 427 389 q 205 584 243 522 q 167 721 167 646 q 255 914 167 839 q 481 989 342 989 q 688 949 587 989 l 671 857 q 474 909 590 909 q 319 859 378 909 q 260 730 260 810 q 292 622 260 667 q 409 513 323 576 q 548 382 510 440 q 586 251 586 323 q 548 111 586 172 q 440 17 511 50 q 272 -17 369 -17 q 145 -1 210 -17 q 28 42 81 14 l 43 135 m 186 -235 q 242 -241 215 -241 q 356 -178 356 -241 q 271 -123 356 -123 l 231 -125 l 258 0 l 314 0 l 298 -75 q 391 -100 356 -75 q 425 -171 425 -124 q 378 -262 425 -229 q 238 -295 331 -295 q 175 -290 211 -295 l 186 -235 z "},"ş":{"ha":543,"x_min":15,"x_max":505,"o":"m 33 113 q 112 73 64 89 q 203 58 160 58 q 317 88 278 58 q 356 176 356 118 q 332 245 356 216 q 243 313 307 274 q 137 401 170 357 q 104 504 104 445 q 170 652 104 593 q 341 711 236 711 q 425 703 380 711 q 505 677 471 694 l 488 593 q 337 637 420 637 q 232 603 271 637 q 192 513 192 568 q 214 444 192 473 q 300 376 235 415 q 411 284 379 328 q 444 184 444 241 q 376 38 444 92 q 193 -17 309 -17 q 97 -4 146 -17 q 15 28 48 8 l 33 113 m 102 -235 q 159 -241 132 -241 q 273 -178 273 -241 q 188 -123 273 -123 l 148 -125 l 174 0 l 231 0 l 214 -75 q 307 -100 273 -75 q 342 -171 342 -124 q 295 -262 342 -229 q 155 -295 248 -295 q 92 -290 127 -295 l 102 -235 z "},"Ć":{"ha":882,"x_min":98,"x_max":911,"o":"m 490 -17 q 204 97 310 -17 q 98 401 98 210 q 169 707 98 573 q 365 915 239 841 q 648 989 491 989 q 911 926 793 989 l 892 832 q 641 909 785 909 q 409 845 511 909 q 248 668 306 782 q 191 413 191 554 q 275 156 191 248 q 508 64 359 64 q 768 132 648 64 l 747 37 q 627 -4 686 8 q 494 -17 568 -17 l 490 -17 m 740 1278 l 831 1278 l 618 1055 l 544 1055 l 740 1278 z "},"ć":{"ha":585,"x_min":54,"x_max":661,"o":"m 300 -17 q 120 58 185 -17 q 54 262 54 133 q 103 490 54 386 q 240 653 153 594 q 433 711 328 711 q 598 665 531 711 l 578 577 q 423 637 517 637 q 278 587 344 637 q 176 450 213 536 q 140 268 140 364 q 186 113 140 168 q 314 58 232 58 q 494 127 397 58 l 473 34 q 382 -6 419 5 q 300 -17 345 -17 m 570 1038 l 661 1038 l 448 815 l 374 815 l 570 1038 z "},"Č":{"ha":882,"x_min":98,"x_max":911,"o":"m 490 -17 q 204 97 310 -17 q 98 401 98 210 q 169 707 98 573 q 365 915 239 841 q 648 989 491 989 q 911 926 793 989 l 892 832 q 641 909 785 909 q 409 845 511 909 q 248 668 306 782 q 191 413 191 554 q 275 156 191 248 q 508 64 359 64 q 768 132 648 64 l 747 37 q 627 -4 686 8 q 494 -17 568 -17 l 490 -17 m 503 1281 l 566 1281 l 644 1119 l 786 1281 l 854 1281 l 664 1055 l 605 1055 l 503 1281 z "},"č":{"ha":585,"x_min":54,"x_max":663,"o":"m 300 -17 q 120 58 185 -17 q 54 262 54 133 q 103 490 54 386 q 240 653 153 594 q 433 711 328 711 q 598 665 531 711 l 578 577 q 423 637 517 637 q 278 587 344 637 q 176 450 213 536 q 140 268 140 364 q 186 113 140 168 q 314 58 232 58 q 494 127 397 58 l 473 34 q 382 -6 419 5 q 300 -17 345 -17 m 311 1042 l 375 1042 l 452 880 l 595 1042 l 663 1042 l 473 815 l 414 815 l 311 1042 z "},"đ":{"ha":739,"x_min":54,"x_max":833,"o":"m 487 0 q 509 185 490 68 l 507 185 q 389 34 450 85 q 252 -17 329 -17 q 106 48 159 -17 q 54 237 54 114 q 109 477 54 366 q 260 650 164 589 q 474 711 356 711 q 614 692 539 711 l 642 826 l 395 826 l 411 898 l 657 898 l 685 1028 l 769 1028 l 741 898 l 833 898 l 818 826 l 726 826 l 598 217 q 584 111 592 191 q 575 0 575 31 l 487 0 m 598 616 q 467 637 536 637 q 302 587 375 637 q 185 445 229 537 q 142 245 142 353 q 273 58 142 58 q 386 108 328 58 q 491 243 444 158 q 557 420 537 328 l 598 616 z "},"¯":{"ha":576,"x_min":113,"x_max":703,"o":"m 127 1011 l 703 1011 l 689 945 l 113 945 l 127 1011 z "},"∙":{"ha":309,"x_min":120,"x_max":248,"o":"m 183 389 q 138 408 156 389 q 120 454 120 427 q 138 499 120 481 q 183 517 156 517 q 229 499 210 517 q 248 454 248 481 q 229 408 248 427 q 183 389 210 389 z "},"Ă":{"ha":846,"x_min":-63,"x_max":769,"o":"m 508 972 l 597 972 l 760 0 l 668 0 l 621 288 l 206 288 l 37 0 l -63 0 l 508 972 m 608 369 l 542 802 q 537 872 537 839 l 534 872 l 528 857 q 509 818 524 846 q 251 369 494 790 l 608 369 m 462 1221 l 460 1205 q 488 1138 460 1161 q 562 1114 515 1114 q 649 1139 615 1114 q 703 1221 683 1164 l 769 1221 q 691 1098 745 1140 q 559 1055 637 1055 q 441 1094 485 1055 q 397 1198 397 1132 l 399 1221 l 462 1221 z "},"ă":{"ha":739,"x_min":54,"x_max":699,"o":"m 487 0 q 510 187 490 71 l 507 187 q 385 30 445 77 q 252 -17 325 -17 q 106 49 158 -17 q 54 235 54 115 q 110 478 54 365 q 263 651 166 591 q 479 711 359 711 q 697 685 566 711 l 604 237 q 585 115 595 192 q 575 0 575 37 l 487 0 m 599 623 q 468 637 534 637 q 302 587 376 637 q 185 444 228 536 q 142 241 142 352 q 272 58 142 58 q 385 105 327 58 q 490 241 442 153 q 557 417 537 328 l 599 623 m 391 981 l 390 965 q 417 898 390 921 q 491 874 445 874 q 578 899 545 874 q 632 981 612 924 l 699 981 q 620 858 674 900 q 488 815 566 815 q 370 853 414 815 q 326 958 326 892 l 328 981 l 391 981 z "},"Ą":{"ha":846,"x_min":-63,"x_max":760,"o":"m 508 972 l 597 972 l 760 0 l 668 0 l 621 288 l 206 288 l 37 0 l -63 0 l 508 972 m 608 369 l 542 802 q 537 872 537 839 l 534 872 l 528 857 q 509 818 524 846 q 251 369 494 790 l 608 369 m 652 -280 q 573 -252 602 -280 q 545 -176 545 -224 q 669 0 545 -90 l 733 0 q 641 -94 669 -55 q 612 -166 612 -132 q 668 -223 612 -223 q 726 -209 692 -223 l 721 -267 q 652 -280 688 -280 z "},"ą":{"ha":739,"x_min":54,"x_max":697,"o":"m 487 0 q 510 187 490 71 l 507 187 q 385 30 445 77 q 252 -17 325 -17 q 106 49 158 -17 q 54 235 54 115 q 110 478 54 365 q 263 651 166 591 q 479 711 359 711 q 697 685 566 711 l 604 237 q 585 115 595 192 q 575 0 575 37 l 487 0 m 599 623 q 468 637 534 637 q 302 587 376 637 q 185 444 228 536 q 142 241 142 352 q 272 58 142 58 q 385 105 327 58 q 490 241 442 153 q 557 417 537 328 l 599 623 m 478 -280 q 399 -252 427 -280 q 371 -176 371 -224 q 495 0 371 -90 l 559 0 q 466 -94 494 -55 q 438 -166 438 -132 q 494 -223 438 -223 q 551 -209 517 -223 l 547 -267 q 478 -280 513 -280 z "},"Ď":{"ha":962,"x_min":51,"x_max":926,"o":"m 258 972 l 505 972 q 816 868 705 972 q 926 578 926 764 q 856 274 926 405 q 653 71 785 142 q 342 0 520 0 l 51 0 l 258 972 m 347 81 q 704 211 573 81 q 834 571 834 342 q 485 892 834 892 l 330 892 l 157 81 l 347 81 m 399 1281 l 463 1281 l 540 1119 l 682 1281 l 751 1281 l 560 1055 l 501 1055 l 399 1281 z "},"ď":{"ha":840,"x_min":54,"x_max":1021,"o":"m 487 0 q 509 185 490 68 l 507 185 q 389 34 450 85 q 252 -17 329 -17 q 106 48 159 -17 q 54 237 54 114 q 109 477 54 366 q 260 650 164 589 q 474 711 356 711 q 614 692 539 711 l 685 1028 l 769 1028 l 598 217 q 584 111 592 191 q 575 0 575 31 l 487 0 m 598 616 q 467 637 536 637 q 302 587 375 637 q 185 445 229 537 q 142 245 142 353 q 273 58 142 58 q 384 105 327 58 q 489 238 441 153 q 557 420 536 323 l 598 616 m 927 1028 l 1021 1028 l 886 852 l 819 852 l 927 1028 z "},"Đ":{"ha":962,"x_min":39,"x_max":926,"o":"m 146 446 l 39 446 l 54 527 l 163 527 l 258 972 l 502 972 q 814 868 702 972 q 926 574 926 764 q 856 272 926 402 q 653 71 786 142 q 340 0 519 0 l 51 0 l 146 446 m 342 81 q 705 210 576 81 q 834 568 834 338 q 746 808 834 725 q 485 892 659 892 l 330 892 l 252 527 l 506 527 l 490 446 l 235 446 l 157 81 l 342 81 z "},"Ę":{"ha":681,"x_min":51,"x_max":728,"o":"m 256 972 l 728 972 l 711 892 l 330 892 l 252 529 l 606 529 l 589 448 l 235 448 l 157 81 l 562 81 l 545 0 l 51 0 l 256 972 m 416 -280 q 337 -252 365 -280 q 309 -176 309 -224 q 433 0 309 -90 l 496 0 q 404 -94 432 -55 q 376 -166 376 -132 q 431 -223 376 -223 q 489 -209 455 -223 l 484 -267 q 416 -280 451 -280 z "},"ę":{"ha":661,"x_min":54,"x_max":634,"o":"m 142 263 q 193 112 142 165 q 336 58 245 58 q 535 120 429 58 l 519 35 q 323 -17 427 -17 q 124 59 194 -17 q 54 272 54 135 q 105 491 54 389 q 241 652 155 593 q 427 711 328 711 q 577 664 521 711 q 634 538 634 617 q 516 360 634 418 q 143 299 399 302 l 142 263 m 153 372 q 451 411 355 372 q 547 532 547 450 q 512 610 547 583 q 416 637 478 637 q 250 563 324 637 q 153 372 176 488 m 261 -280 q 182 -252 210 -280 q 154 -176 154 -224 q 278 0 154 -90 l 342 0 q 249 -94 277 -55 q 221 -166 221 -132 q 277 -223 221 -223 q 334 -209 300 -223 l 330 -267 q 261 -280 296 -280 z "},"Ě":{"ha":681,"x_min":51,"x_max":728,"o":"m 256 972 l 728 972 l 711 892 l 330 892 l 252 529 l 606 529 l 589 448 l 235 448 l 157 81 l 562 81 l 545 0 l 51 0 l 256 972 m 370 1281 l 433 1281 l 511 1119 l 653 1281 l 722 1281 l 531 1055 l 472 1055 l 370 1281 z "},"ě":{"ha":661,"x_min":54,"x_max":667,"o":"m 142 263 q 193 112 142 165 q 336 58 245 58 q 535 120 429 58 l 519 35 q 323 -17 427 -17 q 124 59 194 -17 q 54 272 54 135 q 105 491 54 389 q 241 652 155 593 q 427 711 328 711 q 577 664 521 711 q 634 538 634 617 q 516 360 634 418 q 143 299 399 302 l 142 263 m 153 372 q 451 411 355 372 q 547 532 547 450 q 512 610 547 583 q 416 637 478 637 q 250 563 324 637 q 153 372 176 488 m 315 1042 l 379 1042 l 456 880 l 599 1042 l 667 1042 l 477 815 l 418 815 l 315 1042 z "},"Ĺ":{"ha":614,"x_min":51,"x_max":731,"o":"m 256 972 l 347 972 l 158 81 l 547 81 l 530 0 l 51 0 l 256 972 m 640 1277 l 731 1277 l 518 1055 l 444 1055 l 640 1277 z "},"ĺ":{"ha":322,"x_min":61,"x_max":514,"o":"m 251 1028 l 337 1028 l 162 205 q 149 110 149 136 q 201 62 149 62 q 257 71 232 62 l 243 2 q 170 -12 209 -12 q 89 16 117 -12 q 61 96 61 43 q 77 208 61 138 l 251 1028 m 423 1331 l 514 1331 l 301 1109 l 227 1109 l 423 1331 z "},"Ľ":{"ha":614,"x_min":51,"x_max":688,"o":"m 256 972 l 347 972 l 158 81 l 547 81 l 530 0 l 51 0 l 256 972 m 594 973 l 688 973 l 553 797 l 486 797 l 594 973 z "},"ľ":{"ha":409,"x_min":61,"x_max":594,"o":"m 251 1028 l 337 1028 l 162 205 q 149 110 149 136 q 201 62 149 62 q 257 71 232 62 l 243 2 q 170 -12 209 -12 q 89 16 117 -12 q 61 96 61 43 q 77 208 61 138 l 251 1028 m 500 1028 l 594 1028 l 459 852 l 392 852 l 500 1028 z "},"Ŀ":{"ha":614,"x_min":51,"x_max":566,"o":"m 256 972 l 347 972 l 158 81 l 547 81 l 530 0 l 51 0 l 256 972 m 507 435 q 465 452 482 435 q 448 494 448 470 q 466 536 448 520 q 507 551 484 551 q 548 536 530 551 q 566 494 566 520 q 549 452 566 469 q 507 435 532 435 z "},"ŀ":{"ha":398,"x_min":61,"x_max":435,"o":"m 251 1028 l 337 1028 l 162 205 q 149 110 149 136 q 201 62 149 62 q 257 71 232 62 l 243 2 q 170 -12 209 -12 q 89 16 117 -12 q 61 96 61 43 q 77 208 61 138 l 251 1028 m 376 435 q 334 452 351 435 q 317 494 317 470 q 335 536 317 520 q 376 551 353 551 q 417 536 399 551 q 435 494 435 520 q 418 452 435 469 q 376 435 401 435 z "},"Ń":{"ha":1012,"x_min":51,"x_max":1018,"o":"m 256 972 l 344 972 l 726 201 q 753 137 743 170 l 756 137 l 769 220 l 929 972 l 1018 972 l 811 0 l 732 0 l 340 783 q 317 843 327 810 l 314 843 l 305 786 l 138 0 l 51 0 l 256 972 m 742 1277 l 833 1277 l 620 1055 l 546 1055 l 742 1277 z "},"ń":{"ha":764,"x_min":39,"x_max":711,"o":"m 178 694 l 262 694 q 233 513 252 622 l 235 513 q 366 660 294 608 q 514 711 438 711 q 688 523 688 711 q 667 385 688 486 l 585 0 l 500 0 l 583 403 q 600 510 600 486 q 490 637 600 637 q 372 591 436 637 q 259 474 307 545 q 195 331 210 402 l 125 0 l 39 0 l 146 498 q 178 694 165 593 m 620 1038 l 711 1038 l 498 815 l 424 815 l 620 1038 z "},"Ň":{"ha":1012,"x_min":51,"x_max":1018,"o":"m 256 972 l 344 972 l 726 201 q 753 137 743 170 l 756 137 l 769 220 l 929 972 l 1018 972 l 811 0 l 732 0 l 340 783 q 317 843 327 810 l 314 843 l 305 786 l 138 0 l 51 0 l 256 972 m 509 1281 l 572 1281 l 650 1119 l 792 1281 l 861 1281 l 670 1055 l 611 1055 l 509 1281 z "},"ň":{"ha":764,"x_min":39,"x_max":691,"o":"m 178 694 l 262 694 q 233 513 252 622 l 235 513 q 366 660 294 608 q 514 711 438 711 q 688 523 688 711 q 667 385 688 486 l 585 0 l 500 0 l 583 403 q 600 510 600 486 q 490 637 600 637 q 372 591 436 637 q 259 474 307 545 q 195 331 210 402 l 125 0 l 39 0 l 146 498 q 178 694 165 593 m 339 1042 l 403 1042 l 480 880 l 623 1042 l 691 1042 l 500 815 l 441 815 l 339 1042 z "},"Ő":{"ha":1047,"x_min":98,"x_max":1009,"o":"m 490 -17 q 204 98 310 -17 q 98 400 98 213 q 167 701 98 566 q 355 912 236 836 q 622 989 475 989 q 903 874 798 989 q 1009 576 1009 760 q 943 275 1009 412 q 758 60 876 138 q 490 -17 640 -17 m 494 64 q 711 127 616 64 q 861 313 806 191 q 916 572 916 434 q 835 818 916 728 q 616 909 753 909 q 398 843 496 909 q 245 659 299 777 q 191 400 191 541 q 272 154 191 243 q 494 64 353 64 m 794 1273 l 879 1273 l 699 1055 l 640 1055 l 794 1273 m 634 1273 l 717 1273 l 538 1055 l 479 1055 l 634 1273 z "},"ő":{"ha":730,"x_min":54,"x_max":713,"o":"m 304 -17 q 121 55 189 -17 q 54 254 54 126 q 102 486 54 380 q 236 651 150 591 q 427 711 323 711 q 609 639 542 711 q 676 441 676 567 q 628 207 676 313 q 495 42 581 102 q 304 -17 410 -17 m 311 58 q 452 108 387 58 q 552 245 516 158 q 589 435 589 332 q 544 585 589 533 q 420 637 498 637 q 223 528 304 637 q 142 260 142 419 q 187 111 142 165 q 311 58 233 58 m 628 1033 l 713 1033 l 532 815 l 474 815 l 628 1033 m 468 1033 l 551 1033 l 372 815 l 313 815 l 468 1033 z "},"Ŕ":{"ha":788,"x_min":51,"x_max":772,"o":"m 256 972 l 513 972 q 704 910 637 972 q 772 734 772 847 q 690 534 772 613 q 477 446 609 455 l 477 443 q 570 311 543 418 l 649 0 l 553 0 l 481 292 q 429 392 465 359 q 328 425 393 425 l 231 425 l 140 0 l 51 0 l 256 972 m 407 505 q 607 564 534 505 q 680 727 680 624 q 633 847 680 802 q 498 892 587 892 l 330 892 l 248 505 l 407 505 m 629 1277 l 720 1277 l 507 1055 l 433 1055 l 629 1277 z "},"ŕ":{"ha":477,"x_min":37,"x_max":597,"o":"m 174 694 l 258 694 l 235 536 l 238 536 q 335 668 284 624 q 451 711 385 711 q 524 697 490 711 l 508 606 l 505 606 q 430 629 469 629 q 287 537 356 629 q 188 305 218 446 l 123 0 l 37 0 l 134 456 q 174 694 166 599 m 507 1038 l 597 1038 l 385 815 l 311 815 l 507 1038 z "},"Ř":{"ha":788,"x_min":51,"x_max":772,"o":"m 256 972 l 513 972 q 704 910 637 972 q 772 734 772 847 q 690 534 772 613 q 477 446 609 455 l 477 443 q 570 311 543 418 l 649 0 l 553 0 l 481 292 q 429 392 465 359 q 328 425 393 425 l 231 425 l 140 0 l 51 0 l 256 972 m 407 505 q 607 564 534 505 q 680 727 680 624 q 633 847 680 802 q 498 892 587 892 l 330 892 l 248 505 l 407 505 m 356 1281 l 420 1281 l 497 1119 l 640 1281 l 708 1281 l 517 1055 l 458 1055 l 356 1281 z "},"ř":{"ha":477,"x_min":37,"x_max":569,"o":"m 174 694 l 258 694 l 235 536 l 238 536 q 335 668 284 624 q 451 711 385 711 q 524 697 490 711 l 508 606 l 505 606 q 430 629 469 629 q 287 537 356 629 q 188 305 218 446 l 123 0 l 37 0 l 134 456 q 174 694 166 599 m 217 1042 l 281 1042 l 358 880 l 500 1042 l 569 1042 l 378 815 l 319 815 l 217 1042 z "},"Ś":{"ha":690,"x_min":28,"x_max":693,"o":"m 43 135 q 151 84 87 105 q 277 64 214 64 q 437 110 380 64 q 493 239 493 157 q 460 343 493 297 q 336 455 427 389 q 205 584 243 522 q 167 721 167 646 q 255 914 167 839 q 481 989 342 989 q 688 949 587 989 l 671 857 q 474 909 590 909 q 319 859 378 909 q 260 730 260 810 q 292 622 260 667 q 409 513 323 576 q 548 382 510 440 q 586 251 586 323 q 548 111 586 172 q 440 17 511 50 q 272 -17 369 -17 q 145 -1 210 -17 q 28 42 81 14 l 43 135 m 602 1276 l 693 1276 l 480 1054 l 406 1054 l 602 1276 z "},"ś":{"ha":543,"x_min":15,"x_max":593,"o":"m 33 113 q 112 73 64 89 q 203 58 160 58 q 317 88 278 58 q 356 176 356 118 q 332 245 356 216 q 243 313 307 274 q 137 401 170 357 q 104 504 104 445 q 170 652 104 593 q 341 711 236 711 q 425 703 380 711 q 505 677 471 694 l 488 593 q 337 637 420 637 q 232 603 271 637 q 192 513 192 568 q 214 444 192 473 q 300 376 235 415 q 411 284 379 328 q 444 184 444 241 q 376 38 444 92 q 193 -17 309 -17 q 97 -4 146 -17 q 15 28 48 8 l 33 113 m 503 1038 l 593 1038 l 380 815 l 307 815 l 503 1038 z "},"Ţ":{"ha":720,"x_min":147,"x_max":814,"o":"m 429 892 l 147 892 l 164 972 l 814 972 l 796 892 l 518 892 l 330 0 l 239 0 l 429 892 m 186 -235 q 243 -241 216 -241 q 357 -178 357 -241 q 272 -123 357 -123 l 232 -125 l 258 0 l 315 0 l 298 -75 q 391 -100 357 -75 q 426 -171 426 -124 q 379 -262 426 -229 q 239 -295 332 -295 q 176 -290 212 -295 l 186 -235 z "},"ţ":{"ha":429,"x_min":66,"x_max":469,"o":"m 188 621 l 66 621 l 83 694 l 203 694 l 240 870 l 332 898 l 288 694 l 469 694 l 452 621 l 273 621 l 186 216 q 174 126 174 161 q 189 77 174 92 q 236 61 203 61 q 340 93 268 61 l 323 16 q 268 -4 300 4 q 212 -13 235 -13 q 87 116 87 -13 q 100 212 87 156 l 188 621 m 79 -235 q 135 -241 108 -241 q 249 -178 249 -241 q 164 -123 249 -123 l 124 -125 l 151 0 l 207 0 l 191 -75 q 283 -100 249 -75 q 318 -171 318 -124 q 271 -262 318 -229 q 131 -295 224 -295 q 68 -290 104 -295 l 79 -235 z "},"Ť":{"ha":720,"x_min":147,"x_max":814,"o":"m 429 892 l 147 892 l 164 972 l 814 972 l 796 892 l 518 892 l 330 0 l 239 0 l 429 892 m 363 1281 l 427 1281 l 505 1119 l 647 1281 l 715 1281 l 525 1055 l 466 1055 l 363 1281 z "},"ť":{"ha":497,"x_min":66,"x_max":679,"o":"m 188 621 l 66 621 l 83 694 l 203 694 l 240 870 l 332 898 l 288 694 l 469 694 l 452 621 l 273 621 l 186 216 q 174 126 174 161 q 189 77 174 92 q 236 61 203 61 q 340 93 268 61 l 323 16 q 268 -4 300 4 q 212 -13 235 -13 q 87 116 87 -13 q 100 212 87 156 l 188 621 m 585 1028 l 679 1028 l 544 852 l 477 852 l 585 1028 z "},"Ů":{"ha":926,"x_min":112,"x_max":945,"o":"m 244 972 l 334 972 l 220 437 q 201 290 201 351 q 261 120 201 177 q 427 64 321 64 q 621 134 550 64 q 725 361 691 205 l 855 972 l 945 972 l 818 376 q 679 73 772 163 q 414 -17 585 -17 q 193 63 275 -17 q 112 280 112 143 q 127 422 112 353 l 244 972 m 477 1183 q 516 1276 477 1240 q 616 1312 555 1312 q 714 1276 676 1312 q 751 1185 751 1240 q 712 1093 751 1131 q 614 1056 672 1056 q 515 1092 554 1056 q 477 1183 477 1127 m 614 1106 q 673 1128 650 1106 q 696 1185 696 1151 q 673 1241 696 1220 q 614 1262 650 1262 q 555 1241 577 1262 q 532 1185 532 1219 q 556 1127 532 1148 q 614 1106 579 1106 z "},"ů":{"ha":761,"x_min":73,"x_max":722,"o":"m 176 694 l 262 694 l 178 292 q 161 184 161 209 q 271 58 161 58 q 385 100 323 58 q 498 216 446 142 q 566 363 550 290 l 637 694 l 722 694 l 616 195 q 583 0 593 90 l 500 0 l 529 182 l 526 182 q 395 35 467 86 q 248 -17 323 -17 q 117 33 160 -17 q 73 174 73 83 q 80 238 73 194 q 94 309 87 282 l 176 694 m 361 928 q 400 1022 361 985 q 500 1058 439 1058 q 598 1022 560 1058 q 635 931 635 986 q 596 839 635 876 q 498 802 556 802 q 399 837 438 802 q 361 928 361 873 m 498 852 q 557 874 534 852 q 581 930 581 897 q 557 987 581 966 q 498 1008 534 1008 q 439 986 461 1008 q 416 930 416 965 q 440 873 416 894 q 498 852 463 852 z "},"Ű":{"ha":926,"x_min":112,"x_max":945,"o":"m 244 972 l 334 972 l 220 437 q 201 290 201 351 q 261 120 201 177 q 427 64 321 64 q 621 134 550 64 q 725 361 691 205 l 855 972 l 945 972 l 818 376 q 679 73 772 163 q 414 -17 585 -17 q 193 63 275 -17 q 112 280 112 143 q 127 422 112 353 l 244 972 m 754 1272 l 839 1272 l 659 1055 l 600 1055 l 754 1272 m 594 1272 l 677 1272 l 498 1055 l 439 1055 l 594 1272 z "},"ű":{"ha":761,"x_min":73,"x_max":736,"o":"m 176 694 l 262 694 l 178 292 q 161 184 161 209 q 271 58 161 58 q 385 100 323 58 q 498 216 446 142 q 566 363 550 290 l 637 694 l 722 694 l 616 195 q 583 0 593 90 l 500 0 l 529 182 l 526 182 q 395 35 467 86 q 248 -17 323 -17 q 117 33 160 -17 q 73 174 73 83 q 80 238 73 194 q 94 309 87 282 l 176 694 m 651 1033 l 736 1033 l 555 815 l 497 815 l 651 1033 m 491 1033 l 574 1033 l 395 815 l 336 815 l 491 1033 z "},"Ź":{"ha":791,"x_min":-41,"x_max":880,"o":"m 718 891 l 195 891 l 212 972 l 880 972 l 875 945 l 117 81 l 680 81 l 663 0 l -41 0 l -35 31 l 718 891 m 648 1278 l 739 1278 l 526 1055 l 452 1055 l 648 1278 z "},"ź":{"ha":637,"x_min":-43,"x_max":675,"o":"m 521 621 l 125 621 l 141 694 l 675 694 l 671 667 l 109 74 l 533 74 l 517 0 l -43 0 l -37 33 l 521 621 m 529 1038 l 620 1038 l 407 815 l 333 815 l 529 1038 z "},"Ż":{"ha":791,"x_min":-41,"x_max":880,"o":"m 718 891 l 195 891 l 212 972 l 880 972 l 875 945 l 117 81 l 680 81 l 663 0 l -41 0 l -35 31 l 718 891 m 548 1054 q 506 1072 523 1054 q 489 1114 489 1089 q 507 1155 489 1139 q 547 1171 524 1171 q 589 1155 571 1171 q 607 1114 607 1139 q 590 1071 607 1088 q 548 1054 573 1054 z "},"ż":{"ha":637,"x_min":-43,"x_max":675,"o":"m 521 621 l 125 621 l 141 694 l 675 694 l 671 667 l 109 74 l 533 74 l 517 0 l -43 0 l -37 33 l 521 621 m 425 815 q 383 833 400 815 q 366 875 366 850 q 384 916 366 901 q 425 932 401 932 q 466 916 448 932 q 484 875 484 901 q 467 832 484 850 q 425 815 450 815 z "},"Γ":{"ha":645,"x_min":51,"x_max":736,"o":"m 257 972 l 736 972 l 718 890 l 330 890 l 140 0 l 51 0 l 257 972 z "},"Θ":{"ha":1047,"x_min":98,"x_max":1009,"o":"m 490 -17 q 204 96 310 -17 q 98 400 98 210 q 166 701 98 567 q 353 912 234 836 q 622 989 471 989 q 903 876 797 989 q 1009 576 1009 764 q 943 275 1009 412 q 759 61 877 139 q 490 -17 640 -17 m 494 64 q 712 126 619 64 q 861 312 805 189 q 916 572 916 434 q 836 818 916 727 q 616 909 755 909 q 398 842 496 909 q 245 657 300 776 q 191 400 191 539 q 271 154 191 243 q 494 64 351 64 m 386 526 l 737 526 l 720 445 l 368 445 l 386 526 z "},"Φ":{"ha":1058,"x_min":75,"x_max":1026,"o":"m 429 132 l 384 132 q 158 217 241 132 q 75 444 75 301 q 130 665 75 566 q 282 821 184 765 q 506 877 380 877 l 587 877 l 610 983 l 696 983 l 673 877 l 718 877 q 942 791 859 877 q 1026 563 1026 706 q 971 342 1026 441 q 819 188 917 243 q 596 132 720 132 l 516 132 l 486 -12 l 398 -12 l 429 132 m 599 208 l 603 208 q 842 305 749 208 q 935 553 935 402 q 873 738 935 675 q 702 800 812 800 l 658 800 l 532 208 l 599 208 m 444 208 l 570 800 l 503 800 q 259 703 351 800 q 167 451 167 606 q 228 271 167 335 q 399 208 288 208 l 444 208 z "},"α":{"ha":849,"x_min":54,"x_max":857,"o":"m 585 237 q 440 46 517 110 q 267 -18 362 -18 q 110 50 165 -18 q 54 239 54 119 q 107 472 54 361 q 251 647 160 582 q 437 711 341 711 q 636 461 609 711 l 639 461 q 763 694 701 568 l 857 694 l 771 542 l 654 340 q 680 134 663 195 q 735 74 696 74 q 768 79 757 74 l 744 -3 q 707 -8 726 -8 q 623 47 651 -8 q 588 237 594 103 l 585 237 m 577 349 q 536 569 570 499 q 436 639 503 639 q 295 586 362 639 q 186 438 229 532 q 144 240 144 343 q 178 106 144 155 q 277 58 213 58 q 542 284 418 58 l 577 349 z "},"δ":{"ha":794,"x_min":53,"x_max":814,"o":"m 795 905 q 692 951 751 935 q 581 968 632 968 q 432 935 485 968 q 380 843 380 903 q 410 752 380 793 q 543 634 439 711 q 683 485 639 562 q 727 318 727 408 q 627 73 727 163 q 352 -17 528 -17 q 133 59 214 -17 q 53 268 53 136 q 409 637 53 542 q 291 844 291 734 q 369 990 291 937 q 588 1042 448 1042 q 708 1029 646 1042 q 814 995 770 1017 l 795 905 m 467 588 q 221 468 300 546 q 143 269 143 391 q 198 114 143 171 q 353 58 254 58 q 562 126 486 58 q 637 315 637 195 q 597 459 637 394 q 467 588 557 524 z "},"ε":{"ha":621,"x_min":24,"x_max":610,"o":"m 254 368 q 156 420 193 380 q 119 513 119 459 q 197 659 119 606 q 407 711 274 711 q 610 668 538 711 l 591 581 q 509 620 564 603 q 405 637 454 637 q 261 604 315 637 q 207 512 207 570 q 256 426 207 457 q 387 395 305 395 l 411 395 l 489 397 l 474 321 q 399 323 460 323 q 182 288 251 323 q 113 178 113 252 q 157 89 113 121 q 293 57 201 57 q 414 75 347 57 q 534 125 482 94 l 513 28 q 284 -17 410 -17 q 92 33 159 -17 q 24 171 24 82 q 85 301 24 250 q 253 365 146 352 l 254 368 z "},"σ":{"ha":775,"x_min":54,"x_max":844,"o":"m 844 694 l 827 624 l 657 624 q 688 432 688 536 q 643 197 688 300 q 515 38 597 94 q 326 -17 433 -17 q 126 56 199 -17 q 54 258 54 128 q 171 579 54 464 q 494 694 287 694 l 844 694 m 482 623 q 232 526 321 623 q 142 259 142 430 q 193 112 142 167 q 330 57 244 57 q 527 159 454 57 q 600 429 600 262 q 575 623 600 555 l 482 623 z "},"τ":{"ha":677,"x_min":64,"x_max":724,"o":"m 339 622 l 233 622 q 64 576 157 622 l 81 657 q 252 694 161 694 l 724 694 l 708 622 l 425 622 l 336 198 q 325 125 325 153 q 391 65 325 65 q 444 72 422 65 l 429 2 q 360 -9 398 -9 q 267 22 297 -9 q 237 106 237 54 q 251 203 237 127 l 339 622 z "},"φ":{"ha":984,"x_min":50,"x_max":934,"o":"m 371 -17 l 350 -17 q 131 58 211 -17 q 50 264 50 133 q 267 694 50 510 l 372 694 q 198 495 258 600 q 139 267 139 391 q 199 109 139 163 q 373 56 259 56 l 386 56 l 484 513 q 706 711 526 711 q 871 636 808 711 q 934 444 934 560 q 876 201 934 307 q 713 40 818 96 q 475 -17 608 -17 l 456 -17 l 391 -326 l 305 -326 l 371 -17 m 492 56 q 748 162 650 56 q 845 441 845 268 q 806 584 845 530 q 702 639 767 639 q 616 609 648 639 q 570 516 584 579 l 472 56 l 492 56 z "},"‗":{"ha":576,"x_min":0,"x_max":576,"o":"m 0 -115 l 576 -115 l 576 -182 l 0 -182 l 0 -115 m 0 -281 l 576 -281 l 576 -349 l 0 -349 l 0 -281 z "},"‼":{"ha":646,"x_min":76,"x_max":625,"o":"m 532 972 l 625 972 l 468 273 l 393 273 l 532 972 m 327 52 q 345 98 327 79 q 391 116 363 116 q 436 98 416 116 q 455 52 455 79 q 436 6 455 24 q 391 -12 417 -12 q 345 6 363 -12 q 327 52 327 25 m 281 972 l 374 972 l 217 273 l 142 273 l 281 972 m 76 52 q 94 98 76 79 q 140 116 113 116 q 185 98 165 116 q 204 52 204 79 q 185 6 204 24 q 140 -12 166 -12 q 94 6 113 -12 q 76 52 76 25 z "},"ⁿ":{"ha":545,"x_min":99,"x_max":560,"o":"m 203 973 l 274 973 l 252 875 l 255 875 q 433 987 331 987 q 527 952 494 987 q 560 854 560 917 q 551 780 560 818 l 488 486 l 417 486 l 480 783 q 488 844 488 823 q 412 923 488 923 q 296 869 353 923 q 227 755 239 815 l 170 486 l 99 486 l 203 973 m 320 473 z "},"₧":{"ha":1507,"x_min":50,"x_max":1469,"o":"m 256 972 l 437 972 q 647 905 572 972 q 722 718 722 838 q 693 576 722 640 l 802 576 l 840 752 l 930 780 l 888 576 l 1061 576 l 1044 503 l 871 503 l 808 203 q 799 130 799 165 q 865 61 799 61 q 963 87 907 61 l 947 9 q 848 -13 901 -13 q 746 22 779 -13 q 713 118 713 56 q 719 178 713 145 q 787 503 724 211 l 669 503 l 677 545 q 548 424 633 469 q 336 380 463 380 l 220 380 l 140 0 l 50 0 l 256 972 m 343 460 q 556 526 482 460 q 629 711 629 591 q 576 843 629 795 q 418 892 522 892 l 329 892 l 237 460 l 343 460 m 1017 115 q 1090 75 1042 92 q 1180 58 1137 58 q 1297 85 1259 58 q 1336 162 1336 113 q 1310 221 1336 196 q 1214 275 1283 245 q 1115 341 1145 306 q 1085 429 1085 377 q 1148 552 1085 505 q 1312 600 1212 600 q 1395 590 1347 600 q 1469 565 1442 580 l 1450 479 q 1381 514 1419 501 q 1310 526 1343 526 q 1203 501 1242 526 q 1164 429 1164 476 q 1189 374 1164 395 q 1276 328 1214 353 q 1382 259 1349 297 q 1415 168 1415 222 q 1352 33 1415 82 q 1176 -17 1289 -17 q 1077 -5 1125 -17 q 998 28 1028 7 l 1017 115 z "},"Ĳ":{"ha":810,"x_min":51,"x_max":824,"o":"m 256 972 l 347 972 l 140 0 l 51 0 l 256 972 m 292 90 q 333 71 304 79 q 380 63 362 63 q 517 124 468 63 q 596 323 567 184 l 734 972 l 824 972 l 686 327 q 574 62 646 142 q 376 -17 502 -17 q 322 -10 356 -17 q 275 4 288 -3 l 292 90 z "},"ĳ":{"ha":627,"x_min":47,"x_max":657,"o":"m 183 694 l 269 694 l 165 205 q 152 110 152 136 q 204 62 152 62 q 260 71 235 62 l 246 2 q 174 -12 212 -12 q 93 16 121 -12 q 64 96 64 43 q 80 208 64 134 l 183 694 m 276 869 q 232 887 250 869 q 214 931 214 906 q 233 974 214 958 q 276 991 251 991 q 319 974 301 991 q 338 931 338 958 q 319 887 338 905 q 276 869 300 869 m 63 -220 q 156 -252 108 -252 q 282 -191 235 -252 q 358 9 329 -130 l 504 694 l 589 694 l 448 31 q 337 -244 407 -163 q 146 -326 267 -326 q 90 -318 119 -326 q 47 -302 60 -311 l 63 -220 m 534 931 q 552 974 534 958 q 596 991 571 991 q 639 974 621 991 q 657 931 657 958 q 640 887 657 905 q 596 869 622 869 q 572 878 583 869 q 545 898 555 884 q 534 931 534 911 z "},"ŉ":{"ha":820,"x_min":60,"x_max":745,"o":"m 235 694 l 319 694 q 290 513 309 622 l 292 513 q 423 660 351 608 q 571 711 495 711 q 745 523 745 711 q 724 385 745 486 l 642 0 l 557 0 l 640 403 q 656 510 656 486 q 547 637 656 637 q 429 591 493 637 q 316 474 364 545 q 252 331 267 402 l 182 0 l 96 0 l 203 498 q 235 694 222 593 m 161 972 l 244 972 l 123 669 l 60 669 l 161 972 z "},"′":{"ha":330,"x_min":198,"x_max":332,"o":"m 248 972 l 332 972 l 264 666 l 198 666 l 248 972 z "},"″":{"ha":538,"x_min":199,"x_max":535,"o":"m 249 972 l 334 972 l 265 666 l 199 666 l 249 972 m 450 972 l 535 972 l 467 666 l 401 666 l 450 972 z "},"℅":{"ha":1115,"x_min":106,"x_max":1044,"o":"m 585 187 q 662 397 585 306 q 852 489 739 489 q 992 436 940 489 q 1044 290 1044 384 q 969 77 1044 167 q 783 -14 894 -14 q 636 42 688 -14 q 585 187 585 98 m 932 972 l 1017 972 l 191 0 l 106 0 l 932 972 m 785 50 q 916 123 864 50 q 969 287 968 195 q 851 425 969 425 q 716 350 770 425 q 661 186 661 276 q 785 50 661 50 m 307 484 q 171 539 218 484 q 123 683 123 594 q 201 899 123 812 q 403 986 278 986 q 532 954 482 986 l 512 878 q 393 920 455 920 q 254 850 308 920 q 201 689 201 781 q 321 550 201 550 q 455 597 378 550 l 436 515 q 307 484 369 484 z "},"ℓ":{"ha":449,"x_min":3,"x_max":437,"o":"m 131 456 l 131 754 q 168 950 131 888 q 291 1011 205 1011 q 398 971 359 1011 q 437 863 437 930 q 387 702 437 794 q 205 450 337 610 l 205 176 q 223 79 205 108 q 283 50 241 50 q 418 121 331 50 l 418 44 q 346 -1 382 15 q 265 -17 310 -17 q 164 28 197 -17 q 131 171 131 73 l 131 358 l 51 262 l 3 302 l 131 456 m 205 550 q 333 738 298 670 q 368 862 368 806 q 347 928 368 906 q 292 950 326 950 q 224 905 244 950 q 205 754 205 861 l 205 550 z "},"□":{"ha":839,"x_min":98,"x_max":739,"o":"m 98 640 l 739 640 l 739 0 l 98 0 l 98 640 m 688 52 l 688 589 l 150 589 l 150 52 l 688 52 z "},"▪":{"ha":492,"x_min":89,"x_max":403,"o":"m 89 615 l 403 615 l 403 301 l 89 301 l 89 615 z "},"▫":{"ha":492,"x_min":89,"x_max":403,"o":"m 89 615 l 403 615 l 403 301 l 89 301 l 89 615 m 351 353 l 351 564 l 140 564 l 140 353 l 351 353 z "},"●":{"ha":839,"x_min":121,"x_max":718,"o":"m 121 392 q 162 544 121 474 q 276 652 203 614 q 419 690 348 690 q 535 666 479 690 q 630 604 591 642 q 694 509 670 566 q 718 392 718 453 q 633 181 718 269 q 421 93 547 93 q 208 179 296 93 q 121 392 121 266 z "},"◦":{"ha":492,"x_min":76,"x_max":416,"o":"m 76 460 q 126 580 76 530 q 246 629 176 629 q 366 579 316 629 q 416 460 416 529 q 367 338 416 388 q 246 289 317 289 q 126 338 176 289 q 76 460 76 388 m 245 578 q 162 543 197 578 q 127 460 127 509 q 162 375 127 410 q 247 340 197 340 q 330 375 296 340 q 365 460 364 410 q 329 544 365 509 q 245 578 294 578 z "},"Ā":{"ha":846,"x_min":-63,"x_max":760,"o":"m 508 972 l 597 972 l 760 0 l 668 0 l 621 288 l 206 288 l 37 0 l -63 0 l 508 972 m 608 369 l 542 802 q 537 872 537 839 l 534 872 l 528 857 q 509 818 524 846 q 251 369 494 790 l 608 369 m 394 1122 l 739 1122 l 727 1058 l 382 1058 l 394 1122 z "},"ā":{"ha":739,"x_min":54,"x_max":697,"o":"m 487 0 q 510 187 490 71 l 507 187 q 385 30 445 77 q 252 -17 325 -17 q 106 49 158 -17 q 54 235 54 115 q 110 478 54 365 q 263 651 166 591 q 479 711 359 711 q 697 685 566 711 l 604 237 q 585 115 595 192 q 575 0 575 37 l 487 0 m 599 623 q 468 637 534 637 q 302 587 376 637 q 185 444 228 536 q 142 241 142 352 q 272 58 142 58 q 385 105 327 58 q 490 241 442 153 q 557 417 537 328 l 599 623 m 321 887 l 665 887 l 654 823 l 309 823 l 321 887 z "},"Ĉ":{"ha":882,"x_min":98,"x_max":911,"o":"m 490 -17 q 204 97 310 -17 q 98 401 98 210 q 169 707 98 573 q 365 915 239 841 q 648 989 491 989 q 911 926 793 989 l 892 832 q 641 909 785 909 q 409 845 511 909 q 248 668 306 782 q 191 413 191 554 q 275 156 191 248 q 508 64 359 64 q 768 132 648 64 l 747 37 q 627 -4 686 8 q 494 -17 568 -17 l 490 -17 m 656 1282 l 715 1282 l 817 1055 l 753 1055 l 676 1217 l 534 1055 l 465 1055 l 656 1282 z "},"ĉ":{"ha":585,"x_min":54,"x_max":614,"o":"m 300 -17 q 120 58 185 -17 q 54 262 54 133 q 103 490 54 386 q 240 653 153 594 q 433 711 328 711 q 598 665 531 711 l 578 577 q 423 637 517 637 q 278 587 344 637 q 176 450 213 536 q 140 268 140 364 q 186 113 140 168 q 314 58 232 58 q 494 127 397 58 l 473 34 q 382 -6 419 5 q 300 -17 345 -17 m 454 1042 l 512 1042 l 614 815 l 550 815 l 473 977 l 332 815 l 262 815 l 454 1042 z "},"Ċ":{"ha":882,"x_min":98,"x_max":911,"o":"m 490 -17 q 204 97 310 -17 q 98 401 98 210 q 169 707 98 573 q 365 915 239 841 q 648 989 491 989 q 911 926 793 989 l 892 832 q 641 909 785 909 q 409 845 511 909 q 248 668 306 782 q 191 413 191 554 q 275 156 191 248 q 508 64 359 64 q 768 132 648 64 l 747 37 q 627 -4 686 8 q 494 -17 568 -17 l 490 -17 m 666 1051 q 624 1069 641 1051 q 607 1111 607 1086 q 625 1152 607 1137 q 665 1168 642 1168 q 707 1152 689 1168 q 725 1111 725 1137 q 708 1068 725 1086 q 666 1051 691 1051 z "},"ċ":{"ha":585,"x_min":54,"x_max":598,"o":"m 300 -17 q 120 58 185 -17 q 54 262 54 133 q 103 490 54 386 q 240 653 153 594 q 433 711 328 711 q 598 665 531 711 l 578 577 q 423 637 517 637 q 278 587 344 637 q 176 450 213 536 q 140 268 140 364 q 186 113 140 168 q 314 58 232 58 q 494 127 397 58 l 473 34 q 382 -6 419 5 q 300 -17 345 -17 m 466 815 q 424 833 441 815 q 407 875 407 850 q 425 916 407 901 q 465 932 442 932 q 507 916 489 932 q 525 875 525 901 q 508 832 525 850 q 466 815 491 815 z "},"Ē":{"ha":681,"x_min":51,"x_max":728,"o":"m 256 972 l 728 972 l 711 892 l 330 892 l 252 529 l 606 529 l 589 448 l 235 448 l 157 81 l 562 81 l 545 0 l 51 0 l 256 972 m 336 1122 l 680 1122 l 669 1058 l 324 1058 l 336 1122 z "},"ē":{"ha":661,"x_min":54,"x_max":634,"o":"m 142 263 q 193 112 142 165 q 336 58 245 58 q 535 120 429 58 l 519 35 q 323 -17 427 -17 q 124 59 194 -17 q 54 272 54 135 q 105 491 54 389 q 241 652 155 593 q 427 711 328 711 q 577 664 521 711 q 634 538 634 617 q 516 360 634 418 q 143 299 399 302 l 142 263 m 153 372 q 451 411 355 372 q 547 532 547 450 q 512 610 547 583 q 416 637 478 637 q 250 563 324 637 q 153 372 176 488 m 271 887 l 616 887 l 604 823 l 260 823 l 271 887 z "},"Ĕ":{"ha":681,"x_min":51,"x_max":728,"o":"m 256 972 l 728 972 l 711 892 l 330 892 l 252 529 l 606 529 l 589 448 l 235 448 l 157 81 l 562 81 l 545 0 l 51 0 l 256 972 m 399 1221 l 398 1205 q 426 1138 398 1161 q 499 1114 453 1114 q 587 1139 553 1114 q 640 1221 621 1164 l 707 1221 q 628 1098 682 1140 q 496 1055 574 1055 q 378 1094 422 1055 q 334 1198 334 1132 l 336 1221 l 399 1221 z "},"ĕ":{"ha":661,"x_min":54,"x_max":656,"o":"m 142 263 q 193 112 142 165 q 336 58 245 58 q 535 120 429 58 l 519 35 q 323 -17 427 -17 q 124 59 194 -17 q 54 272 54 135 q 105 491 54 389 q 241 652 155 593 q 427 711 328 711 q 577 664 521 711 q 634 538 634 617 q 516 360 634 418 q 143 299 399 302 l 142 263 m 153 372 q 451 411 355 372 q 547 532 547 450 q 512 610 547 583 q 416 637 478 637 q 250 563 324 637 q 153 372 176 488 m 349 981 l 348 965 q 375 898 348 921 q 449 874 403 874 q 536 899 503 874 q 590 981 570 924 l 656 981 q 578 858 632 900 q 446 815 524 815 q 328 853 372 815 q 284 958 284 892 l 286 981 l 349 981 z "},"Ė":{"ha":681,"x_min":51,"x_max":728,"o":"m 256 972 l 728 972 l 711 892 l 330 892 l 252 529 l 606 529 l 589 448 l 235 448 l 157 81 l 562 81 l 545 0 l 51 0 l 256 972 m 508 1055 q 466 1072 483 1055 q 449 1114 449 1090 q 467 1156 449 1140 q 507 1171 484 1171 q 549 1156 531 1171 q 567 1114 567 1140 q 550 1072 567 1089 q 508 1055 533 1055 z "},"ė":{"ha":661,"x_min":54,"x_max":634,"o":"m 142 263 q 193 112 142 165 q 336 58 245 58 q 535 120 429 58 l 519 35 q 323 -17 427 -17 q 124 59 194 -17 q 54 272 54 135 q 105 491 54 389 q 241 652 155 593 q 427 711 328 711 q 577 664 521 711 q 634 538 634 617 q 516 360 634 418 q 143 299 399 302 l 142 263 m 153 372 q 451 411 355 372 q 547 532 547 450 q 512 610 547 583 q 416 637 478 637 q 250 563 324 637 q 153 372 176 488 m 458 815 q 416 833 433 815 q 399 875 399 850 q 416 916 399 901 q 457 932 434 932 q 499 916 481 932 q 517 875 517 901 q 500 832 517 850 q 458 815 483 815 z "},"Ĝ":{"ha":960,"x_min":98,"x_max":935,"o":"m 779 412 l 543 412 l 560 492 l 887 492 l 793 52 q 514 -18 663 -18 q 295 35 389 -18 q 149 188 200 88 q 98 413 98 287 q 168 714 98 583 q 363 917 237 846 q 654 989 490 989 q 935 925 800 989 l 916 834 q 640 909 787 909 q 313 774 436 909 q 191 421 191 640 q 278 158 191 253 q 523 64 366 64 q 713 100 624 64 l 779 412 m 656 1282 l 715 1282 l 817 1056 l 753 1056 l 676 1218 l 534 1056 l 465 1056 l 656 1282 z "},"ĝ":{"ha":739,"x_min":-20,"x_max":697,"o":"m -3 -193 q 187 -250 96 -250 q 371 -185 302 -250 q 474 29 439 -121 l 509 185 l 506 185 q 387 33 447 82 q 252 -17 328 -17 q 106 48 159 -17 q 54 237 54 113 q 109 476 54 367 q 260 649 163 586 q 472 711 356 711 q 585 704 519 711 q 697 686 650 696 l 562 50 q 426 -240 518 -153 q 176 -326 334 -326 q -20 -276 73 -326 l -3 -193 m 599 623 q 462 637 539 637 q 300 586 374 637 q 184 445 227 536 q 142 245 142 353 q 269 58 142 58 q 387 107 328 58 q 492 244 446 157 q 557 416 538 332 l 599 623 m 490 1042 l 548 1042 l 650 815 l 586 815 l 509 977 l 368 815 l 298 815 l 490 1042 z "},"Ġ":{"ha":960,"x_min":98,"x_max":935,"o":"m 779 412 l 543 412 l 560 492 l 887 492 l 793 52 q 514 -18 663 -18 q 295 35 389 -18 q 149 188 200 88 q 98 413 98 287 q 168 714 98 583 q 363 917 237 846 q 654 989 490 989 q 935 925 800 989 l 916 834 q 640 909 787 909 q 313 774 436 909 q 191 421 191 640 q 278 158 191 253 q 523 64 366 64 q 713 100 624 64 l 779 412 m 677 1055 q 635 1072 652 1055 q 618 1114 618 1090 q 635 1156 618 1140 q 676 1171 653 1171 q 718 1156 700 1171 q 736 1114 736 1140 q 719 1072 736 1089 q 677 1055 702 1055 z "},"ġ":{"ha":739,"x_min":-20,"x_max":697,"o":"m -3 -193 q 187 -250 96 -250 q 371 -185 302 -250 q 474 29 439 -121 l 509 185 l 506 185 q 387 33 447 82 q 252 -17 328 -17 q 106 48 159 -17 q 54 237 54 113 q 109 476 54 367 q 260 649 163 586 q 472 711 356 711 q 585 704 519 711 q 697 686 650 696 l 562 50 q 426 -240 518 -153 q 176 -326 334 -326 q -20 -276 73 -326 l -3 -193 m 599 623 q 462 637 539 637 q 300 586 374 637 q 184 445 227 536 q 142 245 142 353 q 269 58 142 58 q 387 107 328 58 q 492 244 446 157 q 557 416 538 332 l 599 623 m 497 815 q 455 833 472 815 q 438 875 438 850 q 456 916 438 901 q 496 932 473 932 q 538 916 520 932 q 556 875 556 901 q 539 832 556 850 q 497 815 522 815 z "},"Ģ":{"ha":960,"x_min":98,"x_max":935,"o":"m 779 412 l 543 412 l 560 492 l 887 492 l 793 52 q 514 -18 663 -18 q 295 35 389 -18 q 149 188 200 88 q 98 413 98 287 q 168 714 98 583 q 363 917 237 846 q 654 989 490 989 q 935 925 800 989 l 916 834 q 640 909 787 909 q 313 774 436 909 q 191 421 191 640 q 278 158 191 253 q 523 64 366 64 q 713 100 624 64 l 779 412 m 471 -79 l 566 -79 l 431 -256 l 363 -256 l 471 -79 z "},"ģ":{"ha":739,"x_min":-20,"x_max":697,"o":"m -3 -193 q 187 -250 96 -250 q 371 -185 302 -250 q 474 29 439 -121 l 509 185 l 506 185 q 387 33 447 82 q 252 -17 328 -17 q 106 48 159 -17 q 54 237 54 113 q 109 476 54 367 q 260 649 163 586 q 472 711 356 711 q 585 704 519 711 q 697 686 650 696 l 562 50 q 426 -240 518 -153 q 176 -326 334 -326 q -20 -276 73 -326 l -3 -193 m 599 623 q 462 637 539 637 q 300 586 374 637 q 184 445 227 536 q 142 245 142 353 q 269 58 142 58 q 387 107 328 58 q 492 244 446 157 q 557 416 538 332 l 599 623 m 524 825 l 430 825 l 565 1002 l 632 1002 l 524 825 z "},"Ĥ":{"ha":960,"x_min":51,"x_max":966,"o":"m 256 972 l 347 972 l 254 536 l 783 536 l 876 972 l 966 972 l 760 0 l 670 0 l 766 454 l 236 454 l 141 0 l 51 0 l 256 972 m 631 1281 l 689 1281 l 791 1055 l 727 1055 l 650 1217 l 509 1055 l 439 1055 l 631 1281 z "},"ĥ":{"ha":760,"x_min":36,"x_max":685,"o":"m 256 1028 l 340 1028 l 231 514 l 234 514 q 511 711 358 711 q 642 662 598 711 q 685 520 685 613 q 682 492 685 511 q 674 440 680 473 q 583 0 669 407 l 497 0 l 581 403 q 597 510 597 481 q 488 637 597 637 q 368 591 433 637 q 256 473 304 545 q 193 330 208 401 l 122 0 l 36 0 l 256 1028 m 508 1333 l 566 1333 l 669 1106 l 604 1106 l 528 1268 l 386 1106 l 317 1106 l 508 1333 z "},"Ħ":{"ha":960,"x_min":51,"x_max":1021,"o":"m 199 703 l 104 703 l 122 784 l 217 784 l 257 972 l 347 972 l 307 784 l 836 784 l 877 972 l 966 972 l 926 784 l 1021 784 l 1003 703 l 909 703 l 760 0 l 670 0 l 766 454 l 237 454 l 141 0 l 51 0 l 199 703 m 783 536 l 819 703 l 290 703 l 254 536 l 783 536 z "},"ħ":{"ha":760,"x_min":36,"x_max":685,"o":"m 213 826 l 121 826 l 136 898 l 228 898 l 256 1028 l 340 1028 l 313 898 l 559 898 l 543 826 l 298 826 l 231 514 l 234 514 q 511 711 358 711 q 642 662 598 711 q 685 520 685 613 q 682 492 685 511 q 674 440 680 473 q 583 0 669 407 l 497 0 l 581 403 q 597 510 597 481 q 488 637 597 637 q 368 591 433 637 q 256 473 304 545 q 193 330 208 401 l 122 0 l 36 0 l 213 826 z "},"Ĩ":{"ha":341,"x_min":51,"x_max":543,"o":"m 256 972 l 347 972 l 140 0 l 51 0 l 256 972 m 92 1053 q 141 1163 102 1124 q 241 1202 180 1202 q 291 1190 271 1202 q 329 1163 311 1178 q 363 1137 346 1149 q 405 1124 381 1124 q 457 1148 435 1124 q 486 1213 479 1171 l 543 1213 q 494 1103 532 1143 q 397 1063 456 1063 q 345 1075 366 1063 q 307 1102 324 1087 q 273 1128 290 1116 q 233 1140 256 1140 q 149 1053 164 1140 l 92 1053 z "},"ĩ":{"ha":322,"x_min":39,"x_max":490,"o":"m 180 694 l 266 694 l 162 205 q 149 110 149 136 q 201 62 149 62 q 257 71 232 62 l 243 2 q 170 -12 209 -12 q 89 16 117 -12 q 61 96 61 43 q 77 208 61 138 l 180 694 m 39 815 q 87 926 48 886 q 188 965 127 965 q 237 953 217 965 q 275 926 258 941 q 310 899 292 911 q 351 887 328 887 q 404 910 382 887 q 433 976 425 934 l 490 976 q 440 866 479 906 q 344 826 402 826 q 291 838 312 826 q 253 864 271 850 q 219 891 236 879 q 179 903 202 903 q 95 815 111 903 l 39 815 z "},"Ī":{"ha":341,"x_min":51,"x_max":500,"o":"m 256 972 l 347 972 l 140 0 l 51 0 l 256 972 m 155 1122 l 500 1122 l 488 1058 l 144 1058 l 155 1122 z "},"ī":{"ha":322,"x_min":61,"x_max":431,"o":"m 180 694 l 266 694 l 162 205 q 149 110 149 136 q 201 62 149 62 q 257 71 232 62 l 243 2 q 170 -12 209 -12 q 89 16 117 -12 q 61 96 61 43 q 77 208 61 138 l 180 694 m 87 887 l 431 887 l 420 823 l 75 823 l 87 887 z "},"Ĭ":{"ha":341,"x_min":51,"x_max":528,"o":"m 256 972 l 347 972 l 140 0 l 51 0 l 256 972 m 221 1220 l 220 1204 q 247 1137 220 1160 q 321 1114 275 1114 q 408 1138 374 1114 q 462 1220 442 1163 l 528 1220 q 450 1097 504 1139 q 318 1055 396 1055 q 200 1093 244 1055 q 156 1198 156 1131 l 158 1220 l 221 1220 z "},"ĭ":{"ha":322,"x_min":61,"x_max":452,"o":"m 180 694 l 266 694 l 162 205 q 149 110 149 136 q 201 62 149 62 q 257 71 232 62 l 243 2 q 170 -12 209 -12 q 89 16 117 -12 q 61 96 61 43 q 77 208 61 138 l 180 694 m 145 981 l 144 965 q 171 898 144 921 q 245 874 199 874 q 332 899 298 874 q 386 981 366 924 l 452 981 q 374 858 428 900 q 242 815 320 815 q 124 853 168 815 q 80 958 80 892 l 82 981 l 145 981 z "},"Į":{"ha":341,"x_min":-68,"x_max":347,"o":"m 256 972 l 347 972 l 140 0 l 51 0 l 256 972 m 39 -280 q -40 -252 -12 -280 q -68 -176 -68 -224 q 56 0 -68 -90 l 119 0 q 27 -94 55 -55 q -1 -166 -1 -132 q 54 -223 -1 -223 q 112 -209 78 -223 l 107 -267 q 39 -280 74 -280 z "},"į":{"ha":322,"x_min":28,"x_max":334,"o":"m 180 694 l 266 694 l 162 205 q 149 110 149 136 q 201 62 149 62 q 257 71 232 62 l 243 2 q 170 -12 209 -12 q 89 16 117 -12 q 61 96 61 43 q 77 208 61 134 l 180 694 m 273 869 q 229 887 247 869 q 211 931 211 906 q 229 974 211 958 q 273 991 248 991 q 316 974 298 991 q 334 931 334 958 q 316 887 334 905 q 273 869 297 869 m 136 -280 q 57 -252 85 -280 q 28 -176 28 -224 q 153 0 28 -90 l 216 0 q 124 -94 152 -55 q 96 -166 96 -132 q 151 -223 96 -223 q 209 -209 175 -223 l 204 -267 q 136 -280 171 -280 z "},"Ĵ":{"ha":461,"x_min":-69,"x_max":602,"o":"m -53 90 q -11 71 -40 79 q 36 63 18 63 q 173 124 123 63 q 252 323 222 184 l 390 972 l 479 972 l 342 327 q 230 62 302 142 q 31 -17 157 -17 q -23 -10 12 -17 q -69 4 -57 -3 l -53 90 m 441 1281 l 499 1281 l 602 1055 l 537 1055 l 460 1217 l 319 1055 l 250 1055 l 441 1281 z "},"ĵ":{"ha":310,"x_min":-273,"x_max":414,"o":"m -256 -220 q -163 -252 -212 -252 q -38 -191 -85 -252 q 39 9 9 -130 l 184 694 l 270 694 l 129 31 q 17 -243 88 -160 q -173 -326 -55 -326 q -230 -318 -200 -326 q -273 -302 -259 -311 l -256 -220 m 254 1042 l 312 1042 l 414 815 l 350 815 l 273 977 l 132 815 l 62 815 l 254 1042 z "},"Ķ":{"ha":779,"x_min":51,"x_max":871,"o":"m 256 972 l 347 972 l 250 515 l 252 515 l 267 530 l 751 972 l 871 972 l 336 494 l 681 0 l 570 0 l 264 452 l 245 486 l 243 486 l 140 0 l 51 0 l 256 972 m 317 -81 l 411 -81 l 293 -258 l 226 -258 l 317 -81 z "},"ķ":{"ha":640,"x_min":36,"x_max":688,"o":"m 256 1028 l 340 1028 l 203 382 l 205 382 l 573 694 l 688 694 l 290 363 l 550 0 l 448 0 l 201 359 l 198 359 l 122 0 l 36 0 l 256 1028 m 248 -81 l 342 -81 l 224 -258 l 157 -258 l 248 -81 z "},"ĸ":{"ha":640,"x_min":36,"x_max":688,"o":"m 184 694 l 269 694 l 202 377 l 205 377 l 573 694 l 688 694 l 289 358 l 550 0 l 448 0 l 200 353 l 197 353 l 122 0 l 36 0 l 184 694 z "},"Ļ":{"ha":614,"x_min":51,"x_max":547,"o":"m 256 972 l 347 972 l 158 81 l 547 81 l 530 0 l 51 0 l 256 972 m 181 -235 q 237 -241 210 -241 q 351 -178 351 -241 q 267 -123 351 -123 l 227 -125 l 253 0 l 309 0 l 293 -75 q 386 -100 351 -75 q 420 -171 420 -124 q 373 -262 420 -229 q 233 -295 326 -295 q 170 -290 206 -295 l 181 -235 z "},"ļ":{"ha":322,"x_min":37,"x_max":337,"o":"m 251 1028 l 337 1028 l 162 205 q 149 110 149 136 q 201 62 149 62 q 257 71 232 62 l 243 2 q 170 -12 209 -12 q 89 16 117 -12 q 61 96 61 43 q 77 208 61 138 l 251 1028 m 48 -235 q 104 -241 77 -241 q 218 -178 218 -241 q 134 -123 218 -123 l 94 -125 l 120 0 l 176 0 l 160 -75 q 253 -100 218 -75 q 288 -171 288 -124 q 240 -262 288 -229 q 100 -295 193 -295 q 37 -290 73 -295 l 48 -235 z "},"Ņ":{"ha":1012,"x_min":51,"x_max":1018,"o":"m 256 972 l 344 972 l 726 201 q 753 137 743 170 l 756 137 l 769 220 l 929 972 l 1018 972 l 811 0 l 732 0 l 340 783 q 317 843 327 810 l 314 843 l 305 786 l 138 0 l 51 0 l 256 972 m 412 -81 l 506 -81 l 388 -258 l 321 -258 l 412 -81 z "},"ņ":{"ha":764,"x_min":39,"x_max":688,"o":"m 178 694 l 262 694 q 233 513 252 622 l 235 513 q 366 660 294 608 q 514 711 438 711 q 688 523 688 711 q 667 385 688 486 l 585 0 l 500 0 l 583 403 q 600 510 600 486 q 490 637 600 637 q 372 591 436 637 q 259 474 307 545 q 195 331 210 402 l 125 0 l 39 0 l 146 498 q 178 694 165 593 m 283 -81 l 378 -81 l 260 -258 l 193 -258 l 283 -81 z "},"Ŋ":{"ha":1012,"x_min":51,"x_max":1018,"o":"m 256 972 l 344 972 l 724 188 q 751 125 743 150 l 754 125 l 765 193 l 778 261 l 929 972 l 1018 972 l 811 0 q 713 -220 779 -153 q 539 -287 648 -287 q 439 -271 479 -287 l 456 -190 q 541 -210 498 -210 q 655 -165 613 -210 q 724 1 696 -121 l 346 778 q 318 844 332 804 l 315 844 l 306 787 l 138 0 l 51 0 l 256 972 z "},"ŋ":{"ha":764,"x_min":39,"x_max":688,"o":"m 229 -183 q 273 -203 245 -195 q 319 -212 300 -212 q 435 -154 390 -212 q 505 24 480 -96 l 583 403 q 600 510 600 486 q 490 637 600 637 q 372 591 436 637 q 259 474 307 545 q 195 331 210 402 l 125 0 l 39 0 l 146 498 q 178 694 165 593 l 262 694 q 233 513 252 622 l 235 513 q 366 660 294 608 q 514 711 438 711 q 688 523 688 711 q 667 385 688 486 l 600 68 q 491 -206 557 -126 q 313 -286 425 -286 q 213 -264 258 -286 l 229 -183 z "},"Ō":{"ha":1047,"x_min":98,"x_max":1009,"o":"m 490 -17 q 204 98 310 -17 q 98 400 98 213 q 167 701 98 566 q 355 912 236 836 q 622 989 475 989 q 903 874 798 989 q 1009 576 1009 760 q 943 275 1009 412 q 758 60 876 138 q 490 -17 640 -17 m 494 64 q 711 127 616 64 q 861 313 806 191 q 916 572 916 434 q 835 818 916 728 q 616 909 753 909 q 398 843 496 909 q 245 659 299 777 q 191 400 191 541 q 272 154 191 243 q 494 64 353 64 m 478 1122 l 823 1122 l 811 1058 l 467 1058 l 478 1122 z "},"ō":{"ha":730,"x_min":54,"x_max":676,"o":"m 304 -17 q 121 55 189 -17 q 54 254 54 126 q 102 486 54 380 q 236 651 150 591 q 427 711 323 711 q 609 639 542 711 q 676 441 676 567 q 628 207 676 313 q 495 42 581 102 q 304 -17 410 -17 m 311 58 q 452 108 387 58 q 552 245 516 158 q 589 435 589 332 q 544 585 589 533 q 420 637 498 637 q 223 528 304 637 q 142 260 142 419 q 187 111 142 165 q 311 58 233 58 m 278 887 l 623 887 l 611 823 l 267 823 l 278 887 z "},"Ŏ":{"ha":1047,"x_min":98,"x_max":1009,"o":"m 490 -17 q 204 98 310 -17 q 98 400 98 213 q 167 701 98 566 q 355 912 236 836 q 622 989 475 989 q 903 874 798 989 q 1009 576 1009 760 q 943 275 1009 412 q 758 60 876 138 q 490 -17 640 -17 m 494 64 q 711 127 616 64 q 861 313 806 191 q 916 572 916 434 q 835 818 916 728 q 616 909 753 909 q 398 843 496 909 q 245 659 299 777 q 191 400 191 541 q 272 154 191 243 q 494 64 353 64 m 541 1221 l 539 1205 q 567 1138 539 1161 q 640 1114 594 1114 q 728 1139 694 1114 q 781 1221 762 1164 l 848 1221 q 769 1098 823 1140 q 637 1055 715 1055 q 519 1094 564 1055 q 475 1198 475 1132 l 477 1221 l 541 1221 z "},"ŏ":{"ha":730,"x_min":54,"x_max":676,"o":"m 304 -17 q 121 55 189 -17 q 54 254 54 126 q 102 486 54 380 q 236 651 150 591 q 427 711 323 711 q 609 639 542 711 q 676 441 676 567 q 628 207 676 313 q 495 42 581 102 q 304 -17 410 -17 m 311 58 q 452 108 387 58 q 552 245 516 158 q 589 435 589 332 q 544 585 589 533 q 420 637 498 637 q 223 528 304 637 q 142 260 142 419 q 187 111 142 165 q 311 58 233 58 m 350 981 l 349 965 q 376 898 349 921 q 450 874 404 874 q 537 899 503 874 q 591 981 571 924 l 657 981 q 579 858 633 900 q 447 815 525 815 q 329 853 373 815 q 285 958 285 892 l 287 981 l 350 981 z "},"Ŗ":{"ha":788,"x_min":51,"x_max":772,"o":"m 256 972 l 513 972 q 704 910 637 972 q 772 734 772 847 q 690 534 772 613 q 477 446 609 455 l 477 443 q 570 311 543 418 l 649 0 l 553 0 l 481 292 q 429 392 465 359 q 328 425 393 425 l 231 425 l 140 0 l 51 0 l 256 972 m 407 505 q 607 564 534 505 q 680 727 680 624 q 633 847 680 802 q 498 892 587 892 l 330 892 l 248 505 l 407 505 m 315 -81 l 409 -81 l 291 -258 l 224 -258 l 315 -81 z "},"ŗ":{"ha":477,"x_min":37,"x_max":524,"o":"m 174 694 l 258 694 l 235 536 l 238 536 q 335 668 284 624 q 451 711 385 711 q 524 697 490 711 l 508 606 l 505 606 q 430 629 469 629 q 287 537 356 629 q 188 305 218 446 l 123 0 l 37 0 l 134 456 q 174 694 166 599 m 167 -81 l 261 -81 l 143 -258 l 76 -258 l 167 -81 z "},"Ŝ":{"ha":690,"x_min":28,"x_max":688,"o":"m 43 135 q 151 84 87 105 q 277 64 214 64 q 437 110 380 64 q 493 239 493 157 q 460 343 493 297 q 336 455 427 389 q 205 584 243 522 q 167 721 167 646 q 255 914 167 839 q 481 989 342 989 q 688 949 587 989 l 671 857 q 474 909 590 909 q 319 859 378 909 q 260 730 260 810 q 292 622 260 667 q 409 513 323 576 q 548 382 510 440 q 586 251 586 323 q 548 111 586 172 q 440 17 511 50 q 272 -17 369 -17 q 145 -1 210 -17 q 28 42 81 14 l 43 135 m 504 1281 l 562 1281 l 665 1055 l 600 1055 l 524 1217 l 382 1055 l 313 1055 l 504 1281 z "},"ŝ":{"ha":543,"x_min":15,"x_max":536,"o":"m 33 113 q 112 73 64 89 q 203 58 160 58 q 317 88 278 58 q 356 176 356 118 q 332 245 356 216 q 243 313 307 274 q 137 401 170 357 q 104 504 104 445 q 170 652 104 593 q 341 711 236 711 q 425 703 380 711 q 505 677 471 694 l 488 593 q 337 637 420 637 q 232 603 271 637 q 192 513 192 568 q 214 444 192 473 q 300 376 235 415 q 411 284 379 328 q 444 184 444 241 q 376 38 444 92 q 193 -17 309 -17 q 97 -4 146 -17 q 15 28 48 8 l 33 113 m 375 1042 l 433 1042 l 536 815 l 471 815 l 395 977 l 253 815 l 184 815 l 375 1042 z "},"Ŧ":{"ha":720,"x_min":138,"x_max":814,"o":"m 334 448 l 138 448 l 155 528 l 351 528 l 429 892 l 147 892 l 164 972 l 814 972 l 796 892 l 517 892 l 440 528 l 635 528 l 618 448 l 423 448 l 328 0 l 239 0 l 334 448 z "},"ŧ":{"ha":429,"x_min":26,"x_max":469,"o":"m 136 380 l 26 380 l 41 452 l 151 452 l 188 621 l 66 621 l 83 694 l 203 694 l 240 870 l 332 898 l 288 694 l 469 694 l 452 621 l 273 621 l 237 452 l 402 452 l 387 380 l 222 380 l 186 216 q 174 126 174 153 q 189 77 174 92 q 236 61 203 61 q 340 93 267 61 l 323 16 q 212 -13 264 -13 q 87 116 87 -13 q 91 157 87 134 q 136 380 94 180 z "},"Ũ":{"ha":926,"x_min":112,"x_max":945,"o":"m 244 972 l 334 972 l 220 437 q 201 290 201 351 q 261 120 201 177 q 427 64 321 64 q 621 134 550 64 q 725 361 691 205 l 855 972 l 945 972 l 818 376 q 679 73 772 163 q 414 -17 585 -17 q 193 63 275 -17 q 112 280 112 143 q 127 422 112 353 l 244 972 m 393 1055 q 442 1165 403 1126 q 543 1204 481 1204 q 592 1192 572 1204 q 630 1165 612 1180 q 665 1139 647 1151 q 706 1126 682 1126 q 758 1150 736 1126 q 787 1215 780 1173 l 844 1215 q 795 1105 833 1145 q 699 1065 757 1065 q 646 1077 667 1065 q 608 1104 625 1089 q 574 1130 591 1118 q 534 1142 557 1142 q 450 1055 465 1142 l 393 1055 z "},"ũ":{"ha":761,"x_min":73,"x_max":722,"o":"m 176 694 l 262 694 l 178 292 q 161 184 161 209 q 271 58 161 58 q 385 100 323 58 q 498 216 446 142 q 566 363 550 290 l 637 694 l 722 694 l 616 195 q 583 0 593 90 l 500 0 l 529 182 l 526 182 q 395 35 467 86 q 248 -17 323 -17 q 117 33 160 -17 q 73 174 73 83 q 80 238 73 194 q 94 309 87 282 l 176 694 m 271 815 q 319 926 280 886 q 420 965 359 965 q 469 953 449 965 q 507 926 490 941 q 542 899 524 911 q 583 887 559 887 q 635 910 614 887 q 665 976 657 934 l 722 976 q 672 866 711 906 q 576 826 634 826 q 523 838 544 826 q 485 864 503 850 q 451 891 468 879 q 411 903 434 903 q 327 815 342 903 l 271 815 z "},"Ū":{"ha":926,"x_min":112,"x_max":945,"o":"m 244 972 l 334 972 l 220 437 q 201 290 201 351 q 261 120 201 177 q 427 64 321 64 q 621 134 550 64 q 725 361 691 205 l 855 972 l 945 972 l 818 376 q 679 73 772 163 q 414 -17 585 -17 q 193 63 275 -17 q 112 280 112 143 q 127 422 112 353 l 244 972 m 441 1122 l 786 1122 l 774 1058 l 430 1058 l 441 1122 z "},"ū":{"ha":761,"x_min":73,"x_max":722,"o":"m 176 694 l 262 694 l 178 292 q 161 184 161 209 q 271 58 161 58 q 385 100 323 58 q 498 216 446 142 q 566 363 550 290 l 637 694 l 722 694 l 616 195 q 583 0 593 90 l 500 0 l 529 182 l 526 182 q 395 35 467 86 q 248 -17 323 -17 q 117 33 160 -17 q 73 174 73 83 q 80 238 73 194 q 94 309 87 282 l 176 694 m 309 887 l 653 887 l 642 823 l 297 823 l 309 887 z "},"Ŭ":{"ha":926,"x_min":112,"x_max":945,"o":"m 244 972 l 334 972 l 220 437 q 201 290 201 351 q 261 120 201 177 q 427 64 321 64 q 621 134 550 64 q 725 361 691 205 l 855 972 l 945 972 l 818 376 q 679 73 772 163 q 414 -17 585 -17 q 193 63 275 -17 q 112 280 112 143 q 127 422 112 353 l 244 972 m 502 1220 l 500 1204 q 528 1137 500 1160 q 602 1114 555 1114 q 689 1138 655 1114 q 743 1220 723 1163 l 809 1220 q 731 1097 785 1139 q 599 1055 677 1055 q 481 1093 525 1055 q 437 1198 437 1131 l 439 1220 l 502 1220 z "},"ŭ":{"ha":761,"x_min":73,"x_max":722,"o":"m 176 694 l 262 694 l 178 292 q 161 184 161 209 q 271 58 161 58 q 385 100 323 58 q 498 216 446 142 q 566 363 550 290 l 637 694 l 722 694 l 616 195 q 583 0 593 90 l 500 0 l 529 182 l 526 182 q 395 35 467 86 q 248 -17 323 -17 q 117 33 160 -17 q 73 174 73 83 q 80 238 73 194 q 94 309 87 282 l 176 694 m 387 981 l 385 965 q 413 898 385 921 q 486 874 440 874 q 574 899 540 874 q 627 981 608 924 l 694 981 q 615 858 669 900 q 484 815 562 815 q 366 853 410 815 q 321 958 321 892 l 323 981 l 387 981 z "},"Ų":{"ha":926,"x_min":112,"x_max":945,"o":"m 244 972 l 334 972 l 220 437 q 201 290 201 351 q 261 120 201 177 q 427 64 321 64 q 621 134 550 64 q 725 361 691 205 l 855 972 l 945 972 l 818 376 q 679 73 772 163 q 414 -17 585 -17 q 193 63 275 -17 q 112 280 112 143 q 127 422 112 353 l 244 972 m 384 -280 q 305 -252 333 -280 q 277 -176 277 -224 q 401 0 277 -90 l 465 0 q 372 -94 400 -55 q 344 -166 344 -132 q 399 -223 344 -223 q 457 -209 423 -223 l 452 -267 q 384 -280 419 -280 z "},"ų":{"ha":761,"x_min":73,"x_max":722,"o":"m 176 694 l 262 694 l 178 292 q 161 184 161 209 q 271 58 161 58 q 385 100 323 58 q 498 216 446 142 q 566 363 550 290 l 637 694 l 722 694 l 616 195 q 583 0 593 90 l 500 0 l 529 182 l 526 182 q 395 35 467 86 q 248 -17 323 -17 q 117 33 160 -17 q 73 174 73 83 q 80 238 73 194 q 94 309 87 282 l 176 694 m 484 -280 q 405 -252 433 -280 q 377 -176 377 -224 q 501 0 377 -90 l 565 0 q 472 -94 500 -55 q 444 -166 444 -132 q 500 -223 444 -223 q 557 -209 524 -223 l 553 -267 q 484 -280 519 -280 z "},"Ŵ":{"ha":1241,"x_min":140,"x_max":1360,"o":"m 140 972 l 234 972 l 289 211 l 292 125 l 294 125 q 332 211 309 168 l 724 972 l 791 972 l 848 209 l 852 125 l 855 125 q 905 236 878 182 l 1261 972 l 1360 972 l 873 0 l 787 0 l 726 727 l 724 820 l 720 820 q 686 728 707 768 l 309 0 l 221 0 l 140 972 m 774 1281 l 833 1281 l 935 1055 l 871 1055 l 794 1217 l 652 1055 l 583 1055 l 774 1281 z "},"ŵ":{"ha":968,"x_min":91,"x_max":1016,"o":"m 91 694 l 175 694 l 214 149 l 214 140 l 214 131 l 212 95 l 216 95 q 241 157 227 130 l 525 694 l 593 694 l 633 136 l 630 94 l 635 94 q 660 157 646 132 l 928 694 l 1016 694 l 656 0 l 575 0 l 534 507 l 532 533 l 535 572 l 532 572 q 523 548 529 563 q 235 0 516 532 l 153 0 l 91 694 m 588 1042 l 646 1042 l 749 815 l 684 815 l 608 977 l 466 815 l 397 815 l 588 1042 z "},"Ŷ":{"ha":759,"x_min":157,"x_max":865,"o":"m 331 368 l 157 972 l 252 972 l 375 515 l 390 449 l 393 449 l 429 505 l 763 972 l 865 972 l 422 370 l 345 0 l 254 0 l 331 368 m 521 1280 l 579 1280 l 682 1054 l 617 1054 l 541 1216 l 399 1054 l 330 1054 l 521 1280 z "},"ŷ":{"ha":649,"x_min":-111,"x_max":724,"o":"m -94 -236 q -41 -248 -73 -248 q 47 -220 8 -248 q 123 -132 86 -191 l 211 6 l 87 694 l 174 694 l 265 146 l 270 94 l 273 94 l 291 130 l 627 694 l 724 694 l 220 -123 q 88 -282 148 -239 q -49 -326 28 -326 q -111 -316 -87 -326 l -94 -236 m 430 1042 l 488 1042 l 591 815 l 526 815 l 450 977 l 308 815 l 239 815 l 430 1042 z "},"ſ":{"ha":368,"x_min":-12,"x_max":538,"o":"m 455 1044 q 538 1032 499 1044 l 523 954 q 447 970 496 970 q 351 931 387 970 q 297 807 315 891 l 74 -231 l -12 -231 l 215 825 q 455 1044 261 1044 z "},"Ǻ":{"ha":846,"x_min":-63,"x_max":789,"o":"m 488 937 q 417 1048 417 968 q 457 1142 417 1106 q 556 1179 497 1179 q 653 1142 614 1179 q 692 1050 692 1105 q 668 977 692 1008 q 604 932 643 945 l 760 0 l 668 0 l 621 288 l 206 288 l 37 0 l -63 0 l 488 937 m 555 972 q 614 994 591 972 q 637 1050 637 1016 q 614 1107 637 1086 q 555 1128 591 1128 q 495 1106 518 1128 q 473 1050 473 1085 q 496 993 473 1014 q 555 972 519 972 m 608 369 l 542 802 q 536 872 537 848 l 534 872 q 498 797 512 821 l 251 369 l 608 369 m 699 1454 l 789 1454 l 576 1232 l 503 1232 l 699 1454 z "},"ǻ":{"ha":739,"x_min":54,"x_max":719,"o":"m 487 0 q 510 187 490 71 l 507 187 q 385 30 445 77 q 252 -17 325 -17 q 106 49 158 -17 q 54 235 54 115 q 110 478 54 365 q 263 651 166 591 q 479 711 359 711 q 697 685 566 711 l 604 237 q 585 115 595 192 q 575 0 575 37 l 487 0 m 599 623 q 468 637 534 637 q 302 587 376 637 q 185 444 228 536 q 142 241 142 352 q 272 58 142 58 q 385 105 327 58 q 490 241 442 153 q 557 417 537 328 l 599 623 m 353 928 q 392 1022 353 985 q 492 1058 431 1058 q 590 1022 552 1058 q 627 931 627 986 q 588 839 627 876 q 490 802 548 802 q 391 837 430 802 q 353 928 353 873 m 490 852 q 549 874 526 852 q 572 930 572 897 q 549 987 572 966 q 490 1008 526 1008 q 431 986 453 1008 q 408 930 408 965 q 432 873 408 894 q 490 852 455 852 m 628 1333 l 719 1333 l 506 1111 l 432 1111 l 628 1333 z "},"Ǽ":{"ha":1145,"x_min":-80,"x_max":1193,"o":"m 621 972 l 1193 972 l 1175 889 l 793 889 l 716 528 l 1070 528 l 1053 448 l 699 448 l 621 81 l 1025 81 l 1009 0 l 515 0 l 576 288 l 233 288 l 28 0 l -80 0 l 621 972 m 593 370 l 703 889 l 656 889 l 292 370 l 593 370 m 968 1277 l 1059 1277 l 846 1055 l 772 1055 l 968 1277 z "},"ǽ":{"ha":1140,"x_min":54,"x_max":1114,"o":"m 538 241 q 396 45 470 107 q 237 -17 323 -17 q 102 45 149 -17 q 54 229 54 108 q 115 473 54 359 q 278 649 175 587 q 508 711 381 711 q 617 699 569 711 q 716 659 666 686 q 901 711 796 711 q 1054 664 995 711 q 1114 538 1114 616 q 996 360 1114 418 q 621 300 878 303 l 620 283 l 620 266 q 670 112 620 167 q 814 58 721 58 q 1014 120 909 58 l 998 35 q 802 -17 908 -17 q 614 51 682 -17 q 541 241 545 119 l 538 241 m 628 374 q 929 413 833 374 q 1025 532 1025 452 q 989 610 1025 583 q 889 637 953 637 q 718 566 788 637 q 628 374 648 495 m 653 605 q 499 637 591 637 q 317 584 399 637 q 187 435 235 531 q 139 233 139 338 q 166 104 139 151 q 248 58 193 58 q 544 398 414 58 q 653 605 600 544 m 814 1038 l 905 1038 l 692 815 l 618 815 l 814 1038 z "},"Ǿ":{"ha":1047,"x_min":36,"x_max":1056,"o":"m 161 151 q 98 400 98 259 q 168 703 98 569 q 356 912 237 837 q 623 987 475 987 q 897 883 793 987 l 1009 998 l 1056 951 l 938 833 q 1009 574 1009 726 q 943 275 1009 412 q 759 60 876 138 q 488 -17 641 -17 q 202 98 306 -17 l 85 -19 l 36 26 l 161 151 m 833 820 q 618 907 751 907 q 399 844 497 907 q 246 662 302 781 q 191 399 191 543 q 229 217 191 297 l 833 820 m 266 161 q 494 64 345 64 q 712 127 616 64 q 862 311 807 191 q 916 573 916 430 q 870 767 916 684 l 266 161 m 758 1277 l 849 1277 l 636 1055 l 562 1055 l 758 1277 z "},"ǿ":{"ha":730,"x_min":-39,"x_max":786,"o":"m -39 5 l 80 119 q 54 254 54 183 q 102 486 54 380 q 236 651 151 591 q 427 711 322 711 q 617 631 549 711 l 741 748 l 786 701 l 651 572 q 676 441 676 516 q 628 207 676 313 q 495 42 581 102 q 304 -17 409 -17 q 115 63 181 -17 l 4 -42 l -39 5 m 553 570 q 420 637 510 637 q 223 528 304 637 q 142 258 142 419 q 151 186 142 216 l 553 570 m 178 123 q 311 58 222 58 q 451 107 387 58 q 552 244 515 157 q 589 437 589 332 q 581 507 589 475 l 178 123 m 582 1038 l 673 1038 l 460 815 l 386 815 l 582 1038 z "},"·":{"ha":309,"x_min":120,"x_max":248,"o":"m 183 389 q 138 408 156 389 q 120 454 120 427 q 138 499 120 481 q 183 517 156 517 q 229 499 210 517 q 248 454 248 481 q 229 408 248 427 q 183 389 210 389 z "},"Ẁ":{"ha":1241,"x_min":140,"x_max":1360,"o":"m 140 972 l 234 972 l 289 211 l 292 125 l 294 125 q 332 211 309 168 l 724 972 l 791 972 l 848 209 l 852 125 l 855 125 q 905 236 878 182 l 1261 972 l 1360 972 l 873 0 l 787 0 l 726 727 l 724 820 l 720 820 q 686 728 707 768 l 309 0 l 221 0 l 140 972 m 649 1277 l 732 1277 l 867 1055 l 799 1055 l 649 1277 z "},"ẁ":{"ha":968,"x_min":91,"x_max":1016,"o":"m 91 694 l 175 694 l 214 149 l 214 140 l 214 131 l 212 95 l 216 95 q 241 157 227 130 l 525 694 l 593 694 l 633 136 l 630 94 l 635 94 q 660 157 646 132 l 928 694 l 1016 694 l 656 0 l 575 0 l 534 507 l 532 533 l 535 572 l 532 572 q 523 548 529 563 q 235 0 516 532 l 153 0 l 91 694 m 470 1038 l 553 1038 l 688 815 l 620 815 l 470 1038 z "},"Ẃ":{"ha":1241,"x_min":140,"x_max":1360,"o":"m 140 972 l 234 972 l 289 211 l 292 125 l 294 125 q 332 211 309 168 l 724 972 l 791 972 l 848 209 l 852 125 l 855 125 q 905 236 878 182 l 1261 972 l 1360 972 l 873 0 l 787 0 l 726 727 l 724 820 l 720 820 q 686 728 707 768 l 309 0 l 221 0 l 140 972 m 864 1277 l 955 1277 l 742 1055 l 668 1055 l 864 1277 z "},"ẃ":{"ha":968,"x_min":91,"x_max":1016,"o":"m 91 694 l 175 694 l 214 149 l 214 140 l 214 131 l 212 95 l 216 95 q 241 157 227 130 l 525 694 l 593 694 l 633 136 l 630 94 l 635 94 q 660 157 646 132 l 928 694 l 1016 694 l 656 0 l 575 0 l 534 507 l 532 533 l 535 572 l 532 572 q 523 548 529 563 q 235 0 516 532 l 153 0 l 91 694 m 711 1038 l 802 1038 l 589 815 l 515 815 l 711 1038 z "},"Ẅ":{"ha":1241,"x_min":140,"x_max":1360,"o":"m 140 972 l 234 972 l 289 211 l 292 125 l 294 125 q 332 211 309 168 l 724 972 l 791 972 l 848 209 l 852 125 l 855 125 q 905 236 878 182 l 1261 972 l 1360 972 l 873 0 l 787 0 l 726 727 l 724 820 l 720 820 q 686 728 707 768 l 309 0 l 221 0 l 140 972 m 838 1112 q 853 1151 838 1133 q 893 1168 869 1168 q 935 1152 917 1168 q 952 1112 952 1135 q 935 1071 952 1087 q 895 1055 918 1055 q 854 1070 871 1055 q 838 1112 838 1086 m 594 1112 q 611 1151 594 1134 q 650 1168 627 1168 q 692 1152 675 1168 q 710 1112 710 1135 q 693 1071 710 1088 q 651 1055 675 1055 q 611 1070 628 1055 q 594 1112 594 1086 z "},"ẅ":{"ha":968,"x_min":91,"x_max":1016,"o":"m 91 694 l 175 694 l 214 149 l 214 140 l 214 131 l 212 95 l 216 95 q 241 157 227 130 l 525 694 l 593 694 l 633 136 l 630 94 l 635 94 q 660 157 646 132 l 928 694 l 1016 694 l 656 0 l 575 0 l 534 507 l 532 533 l 535 572 l 532 572 q 523 548 529 563 q 235 0 516 532 l 153 0 l 91 694 m 650 872 q 665 911 650 894 q 705 928 681 928 q 747 912 729 928 q 764 872 764 896 q 747 831 764 848 q 707 815 730 815 q 666 831 683 815 q 650 872 650 846 m 406 872 q 423 911 406 895 q 463 928 439 928 q 505 912 487 928 q 522 872 522 896 q 505 832 522 848 q 463 815 488 815 q 423 831 440 815 q 406 872 406 847 z "},"Ỳ":{"ha":759,"x_min":157,"x_max":865,"o":"m 331 368 l 157 972 l 252 972 l 375 515 l 390 449 l 393 449 l 429 505 l 763 972 l 865 972 l 422 370 l 345 0 l 254 0 l 331 368 m 372 1277 l 455 1277 l 590 1055 l 522 1055 l 372 1277 z "},"ỳ":{"ha":649,"x_min":-111,"x_max":724,"o":"m -94 -236 q -41 -248 -73 -248 q 47 -220 8 -248 q 123 -132 86 -191 l 211 6 l 87 694 l 174 694 l 265 146 l 270 94 l 273 94 l 291 130 l 627 694 l 724 694 l 220 -123 q 88 -282 148 -239 q -49 -326 28 -326 q -111 -316 -87 -326 l -94 -236 m 300 1038 l 384 1038 l 519 815 l 450 815 l 300 1038 z "},"‛":{"ha":286,"x_min":178,"x_max":305,"o":"m 178 972 l 261 972 l 305 669 l 245 669 l 178 972 z "},"‾":{"ha":576,"x_min":0,"x_max":576,"o":"m 0 1028 l 576 1028 l 576 960 l 0 960 l 0 1028 z "},"₤":{"ha":731,"x_min":4,"x_max":755,"o":"m 237 347 l 92 347 l 108 423 l 253 423 l 277 533 l 132 533 l 148 610 l 293 610 l 314 705 q 423 915 345 842 q 616 989 502 989 q 755 962 699 989 l 738 880 q 612 915 684 915 q 395 690 442 915 l 378 610 l 583 610 l 566 533 l 361 533 l 338 423 l 543 423 l 526 347 l 321 347 l 313 308 q 138 74 274 137 l 618 74 l 603 0 l 4 0 l 20 74 q 229 305 194 130 l 237 347 z "},"℮":{"ha":833,"x_min":58,"x_max":776,"o":"m 416 26 q 684 193 589 26 l 732 164 q 589 20 664 64 q 416 -24 513 -25 q 157 85 256 -24 q 58 359 58 195 q 156 636 58 530 q 414 743 255 743 q 672 638 576 743 q 776 359 768 534 l 214 359 l 215 109 q 416 26 296 26 m 618 410 l 618 611 q 413 694 530 694 q 214 611 294 694 l 214 410 l 618 410 z "},"⅛":{"ha":1179,"x_min":150,"x_max":1124,"o":"m 950 972 l 1035 972 l 248 0 l 161 0 l 950 972 m 229 396 l 332 888 q 279 855 306 870 q 228 829 252 840 q 183 809 203 817 q 150 798 163 802 l 163 863 q 223 887 191 872 q 286 920 254 902 q 345 956 317 937 q 394 989 373 974 l 424 989 l 300 396 l 229 396 m 1017 304 q 1068 256 1052 285 q 1084 195 1084 228 q 1065 111 1084 149 q 1013 45 1045 73 q 939 3 981 18 q 852 -12 897 -12 q 786 -3 816 -12 q 734 22 755 5 q 701 64 713 39 q 690 122 690 90 q 700 183 690 155 q 727 235 709 212 q 768 277 744 258 q 819 309 791 295 q 782 352 797 326 q 767 410 767 377 q 786 485 767 451 q 834 542 804 518 q 901 577 864 565 q 976 590 939 590 q 1037 581 1010 590 q 1084 555 1065 572 q 1114 516 1103 539 q 1124 465 1124 493 q 1115 415 1124 439 q 1091 372 1105 392 q 1057 334 1076 351 q 1017 304 1038 317 m 906 270 q 852 258 878 269 q 806 231 826 248 q 775 189 787 213 q 764 138 764 165 q 790 76 764 98 q 862 54 817 54 q 918 64 891 54 q 964 92 944 74 q 997 133 985 109 q 1008 185 1008 157 q 982 246 1008 222 q 906 270 956 270 m 1046 452 q 1023 504 1046 484 q 962 524 1000 524 q 917 515 938 524 q 879 491 895 506 q 852 457 862 477 q 842 414 842 437 q 848 384 842 398 q 864 359 854 370 q 889 342 875 348 q 922 336 904 336 q 967 346 945 336 q 1007 372 989 355 q 1035 409 1024 388 q 1046 452 1046 430 z "},"⅜":{"ha":1179,"x_min":83,"x_max":1124,"o":"m 950 972 l 1035 972 l 248 0 l 161 0 l 950 972 m 1017 304 q 1068 256 1052 285 q 1084 195 1084 228 q 1065 111 1084 149 q 1013 45 1045 73 q 939 3 981 18 q 852 -12 897 -12 q 786 -3 816 -12 q 734 22 755 5 q 701 64 713 39 q 690 122 690 90 q 700 183 690 155 q 727 235 709 212 q 768 277 744 258 q 819 309 791 295 q 782 352 797 326 q 767 410 767 377 q 786 485 767 451 q 834 542 804 518 q 901 577 864 565 q 976 590 939 590 q 1037 581 1010 590 q 1084 555 1065 572 q 1114 516 1103 539 q 1124 465 1124 493 q 1115 415 1124 439 q 1091 372 1105 392 q 1057 334 1076 351 q 1017 304 1038 317 m 906 270 q 852 258 878 269 q 806 231 826 248 q 775 189 787 213 q 764 138 764 165 q 790 76 764 98 q 862 54 817 54 q 918 64 891 54 q 964 92 944 74 q 997 133 985 109 q 1008 185 1008 157 q 982 246 1008 222 q 906 270 956 270 m 1046 452 q 1023 504 1046 484 q 962 524 1000 524 q 917 515 938 524 q 879 491 895 506 q 852 457 862 477 q 842 414 842 437 q 848 384 842 398 q 864 359 854 370 q 889 342 875 348 q 922 336 904 336 q 967 346 945 336 q 1007 372 989 355 q 1035 409 1024 388 q 1046 452 1046 430 m 99 489 q 236 449 161 449 q 340 478 303 449 q 376 559 376 508 q 343 632 376 606 q 241 659 310 659 l 191 659 l 205 726 l 256 726 q 375 758 332 726 q 419 841 419 790 q 396 896 419 874 q 327 918 373 918 q 194 880 261 918 l 212 960 q 340 986 274 986 q 453 951 411 986 q 494 855 494 916 q 455 751 494 792 q 347 695 416 709 l 347 692 q 450 562 450 667 q 391 431 450 480 q 231 382 332 382 q 148 391 190 382 q 83 414 106 401 l 99 489 z "},"⅝":{"ha":1179,"x_min":72,"x_max":1124,"o":"m 950 972 l 1035 972 l 248 0 l 161 0 l 950 972 m 87 482 q 217 447 144 447 q 336 483 296 447 q 375 581 375 518 q 256 680 375 680 q 194 678 233 680 q 146 674 155 675 l 210 974 l 506 974 l 491 904 l 264 904 l 231 745 l 272 748 q 403 706 354 748 q 452 590 452 664 q 389 436 452 492 q 216 380 326 380 q 72 410 123 380 l 87 482 m 1017 304 q 1068 256 1052 285 q 1084 195 1084 228 q 1065 111 1084 149 q 1013 45 1045 73 q 939 3 981 18 q 852 -12 897 -12 q 786 -3 816 -12 q 734 22 755 5 q 701 64 713 39 q 690 122 690 90 q 700 183 690 155 q 727 235 709 212 q 768 277 744 258 q 819 309 791 295 q 782 352 797 326 q 767 410 767 377 q 786 485 767 451 q 834 542 804 518 q 901 577 864 565 q 976 590 939 590 q 1037 581 1010 590 q 1084 555 1065 572 q 1114 516 1103 539 q 1124 465 1124 493 q 1115 415 1124 439 q 1091 372 1105 392 q 1057 334 1076 351 q 1017 304 1038 317 m 906 270 q 852 258 878 269 q 806 231 826 248 q 775 189 787 213 q 764 138 764 165 q 790 76 764 98 q 862 54 817 54 q 918 64 891 54 q 964 92 944 74 q 997 133 985 109 q 1008 185 1008 157 q 982 246 1008 222 q 906 270 956 270 m 1046 452 q 1023 504 1046 484 q 962 524 1000 524 q 917 515 938 524 q 879 491 895 506 q 852 457 862 477 q 842 414 842 437 q 848 384 842 398 q 864 359 854 370 q 889 342 875 348 q 922 336 904 336 q 967 346 945 336 q 1007 372 989 355 q 1035 409 1024 388 q 1046 452 1046 430 z "},"⅞":{"ha":1105,"x_min":87,"x_max":1050,"o":"m 876 972 l 961 972 l 174 0 l 87 0 l 876 972 m 943 304 q 994 256 978 285 q 1010 195 1010 228 q 991 111 1010 149 q 939 45 971 73 q 865 3 907 18 q 779 -12 823 -12 q 712 -3 742 -12 q 660 22 682 5 q 627 64 639 39 q 616 122 616 90 q 626 183 616 155 q 653 235 635 212 q 694 277 670 258 q 745 309 718 295 q 708 352 723 326 q 693 410 693 377 q 712 485 693 451 q 760 542 730 518 q 827 577 790 565 q 902 590 865 590 q 963 581 936 590 q 1010 555 991 572 q 1040 516 1029 539 q 1050 465 1050 493 q 1041 415 1050 439 q 1017 372 1031 392 q 983 334 1002 351 q 943 304 964 317 m 832 270 q 778 258 804 269 q 732 231 752 248 q 701 189 713 213 q 690 138 690 165 q 716 76 690 98 q 788 54 743 54 q 844 64 817 54 q 890 92 870 74 q 923 133 911 109 q 935 185 935 157 q 908 246 935 222 q 832 270 882 270 m 972 452 q 949 504 972 484 q 888 524 926 524 q 843 515 864 524 q 805 491 821 506 q 778 457 788 477 q 768 414 768 437 q 774 384 768 398 q 790 359 780 370 q 815 342 801 348 q 848 336 830 336 q 893 346 871 336 q 933 372 916 355 q 961 409 950 388 q 972 452 972 430 m 118 392 q 183 522 149 457 q 257 651 217 587 q 345 780 297 715 q 449 909 392 844 l 150 909 l 164 976 l 554 976 l 547 939 q 201 392 313 671 l 118 392 z "},";":{"ha":306,"x_min":-47,"x_max":283,"o":"m 218 580 q 174 598 193 580 q 155 645 155 616 q 174 690 155 672 q 218 708 193 708 q 264 690 245 708 q 283 645 283 671 q 264 598 283 617 q 218 580 244 580 m 83 154 l 173 154 l 24 -173 l -47 -173 l 83 154 z "},"΄":{"ha":379,"x_min":100,"x_max":302,"o":"m 214 1049 l 302 1049 l 146 802 l 100 802 l 214 1049 z "},"΅":{"ha":387,"x_min":48,"x_max":474,"o":"m 48 894 q 65 934 48 918 q 104 950 82 950 q 146 933 130 950 q 163 894 163 917 q 146 853 163 870 q 105 837 130 837 q 65 853 81 837 q 48 894 48 869 m 184 806 l 298 1053 l 385 1053 l 229 806 l 184 806 m 416 837 q 376 853 393 837 q 360 894 360 869 q 377 934 360 918 q 415 950 393 950 q 456 934 439 950 q 474 894 474 918 q 457 853 474 870 q 416 837 440 837 z "},"Ά":{"ha":886,"x_min":-22,"x_max":801,"o":"m 549 972 l 638 972 l 801 0 l 709 0 l 663 288 l 248 288 l 78 0 l -22 0 l 549 972 m 650 369 l 583 802 q 578 872 578 839 l 576 872 l 570 857 q 551 818 566 846 q 292 369 536 790 l 650 369 m 222 974 l 311 974 l 154 727 l 109 727 l 222 974 z "},"Έ":{"ha":767,"x_min":56,"x_max":814,"o":"m 342 972 l 814 972 l 798 892 l 416 892 l 338 529 l 692 529 l 675 448 l 321 448 l 243 81 l 648 81 l 631 0 l 137 0 l 342 972 m 170 974 l 258 974 l 101 727 l 56 727 l 170 974 z "},"Ή":{"ha":1046,"x_min":56,"x_max":1053,"o":"m 343 972 l 433 972 l 340 536 l 869 536 l 963 972 l 1053 972 l 846 0 l 757 0 l 852 454 l 323 454 l 228 0 l 138 0 l 343 972 m 170 974 l 258 974 l 101 727 l 56 727 l 170 974 z "},"Ί":{"ha":427,"x_min":56,"x_max":433,"o":"m 342 972 l 433 972 l 227 0 l 137 0 l 342 972 m 170 974 l 258 974 l 101 727 l 56 727 l 170 974 z "},"Ό":{"ha":1095,"x_min":56,"x_max":1057,"o":"m 537 -17 q 252 98 357 -17 q 146 400 146 213 q 215 701 146 566 q 403 912 283 836 q 669 989 522 989 q 951 874 845 989 q 1057 576 1057 760 q 990 275 1057 412 q 805 60 924 138 q 537 -17 687 -17 m 541 64 q 759 127 663 64 q 909 313 854 191 q 964 572 964 434 q 882 818 964 728 q 664 909 801 909 q 445 843 544 909 q 292 659 347 777 q 238 400 238 541 q 319 154 238 243 q 541 64 400 64 m 170 974 l 258 974 l 101 727 l 56 727 l 170 974 z "},"Ύ":{"ha":895,"x_min":56,"x_max":1001,"o":"m 467 368 l 292 972 l 387 972 l 511 515 l 526 449 l 528 449 l 564 505 l 899 972 l 1001 972 l 557 370 l 480 0 l 389 0 l 467 368 m 170 974 l 258 974 l 101 727 l 56 727 l 170 974 z "},"Ώ":{"ha":1116,"x_min":56,"x_max":1097,"o":"m 71 79 l 314 79 q 194 236 236 146 q 152 429 152 326 q 222 717 152 589 q 415 917 292 845 q 689 989 539 989 q 901 940 808 989 q 1045 804 994 892 q 1097 605 1097 715 q 1007 302 1097 441 q 755 79 916 163 l 987 79 l 971 0 l 635 0 l 652 83 q 910 303 821 171 q 998 597 998 435 q 912 822 998 735 q 686 909 826 909 q 461 846 562 909 q 305 673 361 784 q 249 426 249 562 q 282 244 249 319 q 409 83 316 170 l 391 0 l 56 0 l 71 79 m 170 974 l 258 974 l 101 727 l 56 727 l 170 974 z "},"ΐ":{"ha":360,"x_min":54,"x_max":479,"o":"m 187 694 l 273 694 l 169 198 q 157 121 157 142 q 173 78 157 93 q 217 64 189 64 q 277 72 249 64 l 262 2 q 193 -9 231 -9 q 100 22 130 -9 q 70 106 70 54 q 74 149 70 121 q 187 694 78 176 m 54 894 q 71 934 54 918 q 110 950 87 950 q 152 933 135 950 q 169 894 169 917 q 152 853 169 870 q 111 837 135 837 q 70 853 87 837 q 54 894 54 869 m 189 806 l 303 1053 l 391 1053 l 234 806 l 189 806 m 422 837 q 382 853 398 837 q 366 894 366 869 q 382 934 366 918 q 420 950 399 950 q 462 934 444 950 q 479 894 479 918 q 463 853 479 870 q 422 837 446 837 z "},"Α":{"ha":846,"x_min":-63,"x_max":760,"o":"m 508 972 l 597 972 l 760 0 l 668 0 l 621 288 l 206 288 l 37 0 l -63 0 l 508 972 m 608 369 l 542 802 q 537 872 537 839 l 534 872 l 528 857 q 509 818 524 846 q 251 369 494 790 l 608 369 z "},"Β":{"ha":771,"x_min":51,"x_max":739,"o":"m 256 972 l 507 972 q 677 916 614 972 q 739 764 739 859 q 682 592 739 661 q 522 503 625 523 l 522 500 q 640 433 597 486 q 684 301 684 380 q 591 79 684 159 q 336 0 499 0 l 51 0 l 256 972 m 397 544 q 581 599 515 544 q 646 750 646 654 q 605 853 646 815 q 485 892 563 892 l 330 892 l 255 544 l 397 544 m 332 81 q 591 294 591 81 q 536 419 591 375 q 374 464 481 464 l 238 464 l 159 81 l 332 81 z "},"Ε":{"ha":681,"x_min":51,"x_max":728,"o":"m 256 972 l 728 972 l 711 892 l 330 892 l 252 529 l 606 529 l 589 448 l 235 448 l 157 81 l 562 81 l 545 0 l 51 0 l 256 972 z "},"Ζ":{"ha":791,"x_min":-41,"x_max":880,"o":"m 718 891 l 195 891 l 212 972 l 880 972 l 875 945 l 117 81 l 680 81 l 663 0 l -41 0 l -35 31 l 718 891 z "},"Η":{"ha":960,"x_min":51,"x_max":966,"o":"m 256 972 l 347 972 l 254 536 l 783 536 l 876 972 l 966 972 l 760 0 l 670 0 l 766 454 l 236 454 l 141 0 l 51 0 l 256 972 z "},"Ι":{"ha":341,"x_min":51,"x_max":347,"o":"m 256 972 l 347 972 l 140 0 l 51 0 l 256 972 z "},"Κ":{"ha":779,"x_min":51,"x_max":871,"o":"m 256 972 l 347 972 l 250 515 l 252 515 l 267 530 l 751 972 l 871 972 l 336 494 l 681 0 l 570 0 l 264 452 l 245 486 l 243 486 l 140 0 l 51 0 l 256 972 z "},"Λ":{"ha":878,"x_min":-37,"x_max":779,"o":"m 531 972 l 627 972 l 779 0 l 685 0 l 569 798 q 563 873 565 819 l 559 873 l 551 856 q 543 838 547 847 q 68 0 538 828 l -37 0 l 531 972 z "},"Μ":{"ha":1147,"x_min":51,"x_max":1152,"o":"m 257 972 l 350 972 l 538 469 q 563 375 559 411 l 567 375 q 629 463 606 435 l 1048 972 l 1152 972 l 945 0 l 859 0 l 1008 701 q 1046 853 1025 775 l 1044 853 q 1036 839 1041 847 q 981 760 1031 831 l 564 254 l 526 254 l 338 757 q 333 775 336 764 q 326 799 329 786 q 319 826 322 812 q 315 853 316 840 l 313 853 q 300 773 309 826 q 136 0 290 720 l 51 0 l 257 972 z "},"Ν":{"ha":1012,"x_min":51,"x_max":1018,"o":"m 256 972 l 344 972 l 726 201 q 753 137 743 170 l 756 137 l 769 220 l 929 972 l 1018 972 l 811 0 l 732 0 l 340 783 q 317 843 327 810 l 314 843 l 305 786 l 138 0 l 51 0 l 256 972 z "},"Ξ":{"ha":708,"x_min":-34,"x_max":776,"o":"m 191 972 l 776 972 l 758 890 l 173 890 l 191 972 m 193 531 l 585 531 l 568 450 l 176 450 l 193 531 m -16 83 l 606 83 l 589 0 l -34 0 l -16 83 z "},"Ο":{"ha":1047,"x_min":98,"x_max":1009,"o":"m 490 -17 q 204 98 310 -17 q 98 400 98 213 q 167 701 98 566 q 355 912 236 836 q 622 989 475 989 q 903 874 798 989 q 1009 576 1009 760 q 943 275 1009 412 q 758 60 876 138 q 490 -17 640 -17 m 494 64 q 711 127 616 64 q 861 313 806 191 q 916 572 916 434 q 835 818 916 728 q 616 909 753 909 q 398 843 496 909 q 245 659 299 777 q 191 400 191 541 q 272 154 191 243 q 494 64 353 64 z "},"Π":{"ha":971,"x_min":51,"x_max":977,"o":"m 256 972 l 977 972 l 771 0 l 682 0 l 870 890 l 329 890 l 140 0 l 51 0 l 256 972 z "},"Ρ":{"ha":775,"x_min":51,"x_max":772,"o":"m 256 972 l 487 972 q 697 905 622 972 q 772 718 772 838 q 668 471 772 562 q 387 380 565 380 l 221 380 l 140 0 l 51 0 l 256 972 m 394 460 q 606 526 533 460 q 680 711 680 592 q 626 844 680 795 q 469 892 572 892 l 330 892 l 238 460 l 394 460 z "},"Σ":{"ha":717,"x_min":-64,"x_max":791,"o":"m 414 515 l 186 937 l 193 972 l 791 972 l 774 892 l 309 892 l 517 510 l 90 81 l 633 81 l 616 0 l -64 0 l -54 48 l 414 515 z "},"Τ":{"ha":720,"x_min":147,"x_max":814,"o":"m 429 892 l 147 892 l 164 972 l 814 972 l 796 892 l 518 892 l 330 0 l 239 0 l 429 892 z "},"Υ":{"ha":759,"x_min":157,"x_max":865,"o":"m 331 368 l 157 972 l 252 972 l 375 515 l 390 449 l 393 449 l 429 505 l 763 972 l 865 972 l 422 370 l 345 0 l 254 0 l 331 368 z "},"Χ":{"ha":800,"x_min":-48,"x_max":893,"o":"m -48 0 l 376 495 q 277 744 363 533 l 183 972 l 286 972 l 422 608 q 441 549 433 581 l 444 549 q 486 609 460 578 l 787 972 l 893 972 l 488 490 l 500 460 l 684 0 l 581 0 l 440 372 l 431 402 l 422 433 l 419 433 q 375 370 399 399 l 66 0 l -48 0 z "},"Ψ":{"ha":1098,"x_min":142,"x_max":1131,"o":"m 486 273 l 430 273 q 219 341 295 273 q 142 532 142 410 q 152 618 142 571 l 227 972 l 315 972 l 242 624 q 232 541 232 579 q 286 402 232 450 q 446 353 339 353 l 503 353 l 635 972 l 724 972 l 591 353 l 662 353 q 867 418 795 353 q 969 625 940 483 l 1042 972 l 1131 972 l 1055 617 q 922 358 1019 444 q 655 273 825 273 l 574 273 l 517 0 l 429 0 l 486 273 z "},"Ω":{"ha":1059,"x_min":-1,"x_max":1040,"o":"m 14 79 l 257 79 q 137 236 179 146 q 95 429 95 326 q 165 717 95 589 q 358 917 235 845 q 632 989 482 989 q 844 940 751 989 q 988 804 937 892 q 1040 605 1040 715 q 950 302 1040 441 q 699 79 859 163 l 930 79 l 914 0 l 578 0 l 595 83 q 853 303 764 171 q 941 597 941 435 q 855 822 941 735 q 629 909 769 909 q 404 846 505 909 q 248 673 304 784 q 192 426 192 562 q 225 244 192 319 q 352 83 259 170 l 334 0 l -1 0 l 14 79 z "},"Ϊ":{"ha":341,"x_min":51,"x_max":502,"o":"m 256 972 l 347 972 l 140 0 l 51 0 l 256 972 m 387 1108 q 403 1147 387 1130 q 443 1164 418 1164 q 484 1148 467 1164 q 502 1108 502 1132 q 485 1067 502 1084 q 444 1051 468 1051 q 404 1067 420 1051 q 387 1108 387 1082 m 144 1108 q 160 1147 144 1131 q 200 1164 177 1164 q 242 1148 224 1164 q 260 1108 260 1132 q 242 1068 260 1084 q 201 1051 225 1051 q 161 1067 178 1051 q 144 1108 144 1083 z "},"Ϋ":{"ha":759,"x_min":157,"x_max":865,"o":"m 331 368 l 157 972 l 252 972 l 375 515 l 390 449 l 393 449 l 429 505 l 763 972 l 865 972 l 422 370 l 345 0 l 254 0 l 331 368 m 586 1116 q 602 1155 586 1137 q 642 1172 617 1172 q 683 1156 665 1172 q 701 1116 701 1139 q 684 1075 701 1091 q 643 1059 667 1059 q 603 1074 619 1059 q 586 1116 586 1090 m 342 1116 q 359 1155 342 1138 q 399 1172 376 1172 q 441 1156 423 1172 q 458 1116 458 1139 q 441 1075 458 1092 q 399 1059 424 1059 q 359 1075 376 1059 q 342 1116 342 1090 z "},"ά":{"ha":849,"x_min":54,"x_max":857,"o":"m 585 237 q 440 46 517 110 q 267 -18 362 -18 q 110 50 165 -18 q 54 239 54 119 q 107 472 54 361 q 251 647 160 582 q 437 711 341 711 q 636 461 609 711 l 639 461 q 763 694 701 568 l 857 694 l 771 542 l 654 340 q 680 134 663 195 q 735 74 696 74 q 768 79 757 74 l 744 -3 q 707 -8 726 -8 q 623 47 651 -8 q 588 237 594 103 l 585 237 m 577 349 q 536 569 570 499 q 436 639 503 639 q 295 586 362 639 q 186 438 229 532 q 144 240 144 343 q 178 106 144 155 q 277 58 213 58 q 542 284 418 58 l 577 349 m 541 1049 l 629 1049 l 472 802 l 427 802 l 541 1049 z "},"έ":{"ha":621,"x_min":24,"x_max":610,"o":"m 254 368 q 156 420 193 380 q 119 513 119 459 q 197 659 119 606 q 407 711 274 711 q 610 668 538 711 l 591 581 q 509 620 564 603 q 405 637 454 637 q 261 604 315 637 q 207 512 207 570 q 256 426 207 457 q 387 395 305 395 l 411 395 l 489 397 l 474 321 q 399 323 460 323 q 182 288 251 323 q 113 178 113 252 q 157 89 113 121 q 293 57 201 57 q 414 75 347 57 q 534 125 482 94 l 513 28 q 284 -17 410 -17 q 92 33 159 -17 q 24 171 24 82 q 85 301 24 250 q 253 365 146 352 l 254 368 m 479 1049 l 568 1049 l 411 802 l 366 802 l 479 1049 z "},"ή":{"ha":774,"x_min":45,"x_max":699,"o":"m 167 587 q 125 628 167 628 l 97 625 l 111 694 q 163 699 125 699 q 253 625 253 699 q 235 507 253 595 l 237 507 q 528 711 368 711 q 656 663 612 711 q 699 526 699 614 q 697 494 699 513 q 678 390 694 475 l 527 -326 l 441 -326 l 593 397 q 610 515 610 490 q 498 637 610 637 q 381 592 444 637 q 267 472 319 547 q 201 326 216 397 l 132 0 l 45 0 l 146 468 q 167 587 167 560 m 555 1049 l 644 1049 l 487 802 l 441 802 l 555 1049 z "},"ί":{"ha":360,"x_min":70,"x_max":406,"o":"m 187 694 l 273 694 l 169 198 q 157 121 157 142 q 173 78 157 93 q 217 64 189 64 q 277 72 249 64 l 262 2 q 193 -9 231 -9 q 100 22 130 -9 q 70 106 70 54 q 74 149 70 121 q 187 694 78 176 m 317 1049 l 406 1049 l 249 802 l 203 802 l 317 1049 z "},"ΰ":{"ha":798,"x_min":88,"x_max":724,"o":"m 158 587 q 115 628 158 628 l 88 626 l 102 694 q 152 699 118 699 q 248 622 248 699 q 227 495 248 592 l 187 313 q 176 220 176 258 q 348 57 176 57 q 557 176 481 57 q 633 495 633 295 q 608 694 633 595 l 701 694 q 724 497 724 602 q 678 227 724 344 q 545 46 632 109 q 341 -17 458 -17 q 153 41 216 -17 q 89 209 89 98 q 100 304 89 249 q 153 550 147 522 q 158 587 158 578 m 250 894 q 267 934 250 918 q 306 950 283 950 q 348 933 331 950 q 365 894 365 917 q 348 853 365 870 q 307 837 331 837 q 266 853 283 837 q 250 894 250 869 m 385 806 l 499 1053 l 587 1053 l 430 806 l 385 806 m 618 837 q 578 853 594 837 q 562 894 562 869 q 578 934 562 918 q 616 950 595 950 q 658 934 640 950 q 675 894 675 918 q 659 853 675 870 q 618 837 642 837 z "},"β":{"ha":747,"x_min":-34,"x_max":730,"o":"m 503 1040 q 667 983 604 1040 q 730 832 730 926 q 485 553 730 614 l 485 551 q 624 461 572 528 q 677 307 677 395 q 587 70 677 156 q 342 -16 498 -16 q 229 1 287 -16 q 133 45 170 18 l 52 -326 l -34 -326 l 196 749 q 503 1040 257 1040 m 637 825 q 600 928 637 890 q 498 966 562 966 q 357 911 410 966 q 280 739 304 856 l 150 125 q 342 58 250 58 q 521 123 456 58 q 586 307 586 189 q 528 450 586 395 q 363 517 469 505 l 377 586 q 577 664 517 608 q 637 825 637 720 z "},"γ":{"ha":721,"x_min":73,"x_max":739,"o":"m 133 -326 q 209 1 156 -243 q 73 694 206 370 l 168 694 q 287 74 279 400 l 290 74 q 547 411 467 265 q 646 694 627 556 l 739 694 q 667 462 720 573 q 533 241 615 351 q 288 -34 452 132 l 223 -326 l 133 -326 z "},"ζ":{"ha":627,"x_min":52,"x_max":743,"o":"m 394 -210 q 439 -159 420 -189 q 458 -102 458 -128 q 416 -31 458 -57 q 266 20 375 -5 q 106 106 161 44 q 52 275 52 168 q 246 660 52 475 q 401 792 321 732 q 623 952 481 852 l 623 956 l 307 956 l 323 1028 l 743 1028 l 727 961 l 589 861 q 241 551 337 678 q 144 292 144 425 q 162 198 144 234 q 217 138 180 162 q 376 77 254 113 q 503 13 463 52 q 543 -85 543 -26 q 525 -153 543 -117 q 480 -210 507 -189 l 394 -210 m 439 67 z "},"η":{"ha":774,"x_min":45,"x_max":699,"o":"m 167 587 q 125 628 167 628 l 97 625 l 111 694 q 163 699 125 699 q 253 625 253 699 q 235 507 253 595 l 237 507 q 528 711 368 711 q 656 663 612 711 q 699 526 699 614 q 697 494 699 513 q 678 390 694 475 l 527 -326 l 441 -326 l 593 397 q 610 515 610 490 q 498 637 610 637 q 381 592 444 637 q 267 472 319 547 q 201 326 216 397 l 132 0 l 45 0 l 146 468 q 167 587 167 560 z "},"θ":{"ha":781,"x_min":79,"x_max":766,"o":"m 79 298 q 139 658 79 472 q 300 944 199 844 q 534 1044 401 1044 q 705 968 644 1044 q 766 747 766 892 q 706 373 766 564 q 547 82 645 181 q 321 -17 449 -17 q 141 64 204 -17 q 79 298 79 146 m 661 558 q 683 741 683 663 q 643 912 683 852 q 526 971 604 971 q 329 859 416 971 q 203 558 241 746 l 661 558 m 187 486 q 165 304 165 380 q 326 56 165 56 q 519 164 437 56 q 645 486 601 272 l 187 486 z "},"ι":{"ha":360,"x_min":70,"x_max":277,"o":"m 187 694 l 273 694 l 169 198 q 157 121 157 142 q 173 78 157 93 q 217 64 189 64 q 277 72 249 64 l 262 2 q 193 -9 231 -9 q 100 22 130 -9 q 70 106 70 54 q 74 149 70 121 q 187 694 78 176 z "},"κ":{"ha":720,"x_min":36,"x_max":710,"o":"m 183 694 l 269 694 l 191 321 l 460 576 q 587 678 544 653 q 670 703 630 703 q 710 699 696 703 l 694 627 l 673 629 q 629 618 652 629 q 579 588 606 608 q 384 415 553 567 l 608 0 l 511 0 l 323 359 l 167 215 l 122 0 l 36 0 l 183 694 z "},"λ":{"ha":692,"x_min":-54,"x_max":598,"o":"m 407 699 l 387 828 q 351 927 378 897 q 276 956 324 956 q 204 945 243 956 l 220 1023 q 298 1031 258 1031 q 416 987 375 1031 q 473 838 457 944 l 598 0 l 511 0 l 428 599 l 45 0 l -54 0 l 407 699 z "},"μ":{"ha":781,"x_min":-41,"x_max":722,"o":"m 176 694 l 262 694 l 178 292 q 161 184 161 205 q 271 58 161 58 q 388 102 325 58 q 501 219 452 147 q 566 363 551 292 l 637 694 l 722 694 l 616 198 q 605 114 605 149 q 621 75 605 87 q 660 62 637 62 q 709 70 690 62 l 695 -1 q 623 -12 664 -12 q 519 88 519 -12 q 529 182 519 119 l 526 182 q 254 -17 409 -17 q 126 58 158 -17 l 43 -326 l -41 -326 l 176 694 z "},"ν":{"ha":718,"x_min":77,"x_max":709,"o":"m 77 694 l 166 694 l 282 80 q 529 391 443 239 q 616 659 616 542 l 614 694 l 708 694 l 709 669 q 597 350 705 526 q 307 0 490 175 l 214 0 l 77 694 z "},"ξ":{"ha":627,"x_min":43,"x_max":691,"o":"m 385 -210 q 431 -156 415 -184 q 448 -104 448 -127 q 409 -36 448 -60 q 254 14 370 -12 q 92 95 140 41 q 43 241 43 149 q 138 444 43 349 q 372 566 233 538 q 269 627 309 583 q 229 727 229 671 q 299 867 229 807 q 494 954 369 927 l 494 958 l 267 956 l 283 1028 l 691 1028 l 676 958 q 314 733 314 890 q 360 637 314 677 q 481 585 406 598 l 575 589 l 560 509 l 494 511 q 313 475 397 511 q 181 378 229 439 q 134 248 134 317 q 171 149 134 184 q 312 86 208 113 q 456 36 420 56 q 512 -13 492 16 q 532 -85 532 -41 q 515 -153 532 -118 q 471 -210 498 -189 l 385 -210 m 475 61 z "},"ο":{"ha":730,"x_min":54,"x_max":676,"o":"m 304 -17 q 121 55 189 -17 q 54 254 54 126 q 102 486 54 380 q 236 651 150 591 q 427 711 323 711 q 609 639 542 711 q 676 441 676 567 q 628 207 676 313 q 495 42 581 102 q 304 -17 410 -17 m 311 58 q 452 108 387 58 q 552 245 516 158 q 589 435 589 332 q 544 585 589 533 q 420 637 498 637 q 223 528 304 637 q 142 260 142 419 q 187 111 142 165 q 311 58 233 58 z "},"ρ":{"ha":772,"x_min":-31,"x_max":718,"o":"m 471 711 q 650 635 583 711 q 718 436 718 559 q 672 204 718 309 q 543 42 626 100 q 359 -17 460 -17 q 145 86 219 -17 l 142 86 l 56 -326 l -31 -326 l 116 360 q 240 624 153 536 q 471 711 326 711 m 161 172 q 240 90 187 123 q 354 58 293 58 q 493 106 430 58 q 593 240 557 155 q 629 429 629 326 q 585 581 629 525 q 461 637 541 637 q 203 368 256 637 l 161 172 z "},"ς":{"ha":621,"x_min":45,"x_max":600,"o":"m 387 -210 q 433 -157 415 -186 q 450 -102 450 -128 q 409 -31 450 -57 q 258 20 367 -5 q 99 106 153 44 q 45 275 45 168 q 96 495 45 393 q 237 654 147 596 q 435 711 327 711 q 600 665 533 711 l 580 577 q 425 637 517 637 q 279 589 346 637 q 174 460 213 541 q 136 291 136 378 q 151 202 136 237 q 196 146 166 168 q 269 109 225 123 q 369 77 312 94 q 495 14 455 53 q 535 -85 535 -25 q 517 -153 535 -117 q 473 -210 499 -189 l 387 -210 m 427 67 z "},"υ":{"ha":798,"x_min":88,"x_max":724,"o":"m 158 587 q 115 628 158 628 l 88 626 l 102 694 q 152 699 118 699 q 248 622 248 699 q 227 495 248 592 l 187 313 q 176 220 176 258 q 348 57 176 57 q 557 176 481 57 q 633 495 633 295 q 608 694 633 595 l 701 694 q 724 497 724 602 q 678 227 724 344 q 545 46 632 109 q 341 -17 458 -17 q 153 41 216 -17 q 89 209 89 98 q 100 304 89 249 q 153 550 147 522 q 158 587 158 578 z "},"χ":{"ha":751,"x_min":-118,"x_max":758,"o":"m 309 239 l 244 520 q 211 612 230 585 q 161 639 192 639 q 125 631 143 639 l 141 705 q 186 711 155 711 q 270 680 241 711 q 315 578 299 648 l 372 315 l 657 694 l 758 694 l 400 229 l 485 -128 q 522 -223 500 -194 q 579 -252 544 -252 q 618 -246 597 -252 l 603 -319 q 549 -326 581 -326 q 458 -280 492 -326 q 398 -119 425 -235 l 336 154 l -19 -317 l -118 -317 l 309 239 z "},"ψ":{"ha":1053,"x_min":83,"x_max":1021,"o":"m 400 -17 l 371 -17 q 161 58 238 -17 q 83 260 83 133 q 96 373 83 314 l 166 694 l 254 694 l 185 373 q 172 271 172 313 q 227 113 172 169 q 380 58 282 58 l 416 58 l 596 903 l 678 903 l 499 58 l 536 58 q 747 140 662 58 q 863 373 832 223 l 932 694 l 1021 694 l 953 374 q 804 81 911 178 q 533 -17 696 -17 l 482 -17 l 417 -326 l 335 -326 l 400 -17 z "},"ω":{"ha":1105,"x_min":58,"x_max":1037,"o":"m 508 139 q 410 24 467 64 q 271 -17 353 -17 q 115 44 172 -17 q 58 216 58 104 q 100 441 58 328 q 238 694 142 553 l 338 694 q 149 224 149 440 q 181 101 149 146 q 279 57 212 57 q 417 122 359 57 q 504 322 476 186 l 542 508 l 629 508 l 589 322 q 576 216 576 251 q 613 100 576 142 q 715 57 651 57 q 885 162 827 57 q 944 466 944 267 q 917 694 944 578 l 1011 694 q 1037 473 1037 587 q 952 111 1037 239 q 715 -17 868 -17 q 578 25 632 -17 q 511 139 525 68 l 508 139 z "},"ϊ":{"ha":360,"x_min":70,"x_max":433,"o":"m 187 694 l 273 694 l 169 198 q 157 121 157 142 q 173 78 157 93 q 217 64 189 64 q 277 72 249 64 l 262 2 q 193 -9 231 -9 q 100 22 130 -9 q 70 106 70 54 q 74 149 70 121 q 187 694 78 176 m 318 867 q 334 906 318 889 q 374 924 349 924 q 415 907 397 924 q 433 867 433 891 q 416 827 433 843 q 375 810 399 810 q 335 826 351 810 q 318 867 318 842 m 75 867 q 91 907 75 890 q 131 924 108 924 q 173 907 155 924 q 191 867 191 891 q 173 827 191 844 q 132 810 156 810 q 92 826 109 810 q 75 867 75 842 z "},"ϋ":{"ha":798,"x_min":88,"x_max":724,"o":"m 158 587 q 115 628 158 628 l 88 626 l 102 694 q 152 699 118 699 q 248 622 248 699 q 227 495 248 592 l 187 313 q 176 220 176 258 q 348 57 176 57 q 557 176 481 57 q 633 495 633 295 q 608 694 633 595 l 701 694 q 724 497 724 602 q 678 227 724 344 q 545 46 632 109 q 341 -17 458 -17 q 153 41 216 -17 q 89 209 89 98 q 100 304 89 249 q 153 550 147 522 q 158 587 158 578 m 521 867 q 536 906 521 889 q 576 924 552 924 q 618 907 600 924 q 635 867 635 891 q 618 827 635 843 q 578 810 602 810 q 537 826 554 810 q 521 867 521 842 m 277 867 q 294 907 277 890 q 334 924 311 924 q 376 907 358 924 q 393 867 393 891 q 376 827 393 844 q 334 810 359 810 q 294 826 311 810 q 277 867 277 842 z "},"ό":{"ha":730,"x_min":54,"x_max":676,"o":"m 304 -17 q 121 55 189 -17 q 54 254 54 126 q 102 486 54 380 q 236 651 150 591 q 427 711 323 711 q 609 639 542 711 q 676 441 676 567 q 628 207 676 313 q 495 42 581 102 q 304 -17 410 -17 m 311 58 q 452 108 387 58 q 552 245 516 158 q 589 435 589 332 q 544 585 589 533 q 420 637 498 637 q 223 528 304 637 q 142 260 142 419 q 187 111 142 165 q 311 58 233 58 m 498 1049 l 586 1049 l 429 802 l 384 802 l 498 1049 z "},"ύ":{"ha":798,"x_min":88,"x_max":724,"o":"m 158 587 q 115 628 158 628 l 88 626 l 102 694 q 152 699 118 699 q 248 622 248 699 q 227 495 248 592 l 187 313 q 176 220 176 258 q 348 57 176 57 q 557 176 481 57 q 633 495 633 295 q 608 694 633 595 l 701 694 q 724 497 724 602 q 678 227 724 344 q 545 46 632 109 q 341 -17 458 -17 q 153 41 216 -17 q 89 209 89 98 q 100 304 89 249 q 153 550 147 522 q 158 587 158 578 m 509 1049 l 597 1049 l 440 802 l 395 802 l 509 1049 z "},"ώ":{"ha":1105,"x_min":58,"x_max":1037,"o":"m 508 139 q 410 24 467 64 q 271 -17 353 -17 q 115 44 172 -17 q 58 216 58 104 q 100 441 58 328 q 238 694 142 553 l 338 694 q 149 224 149 440 q 181 101 149 146 q 279 57 212 57 q 417 122 359 57 q 504 322 476 186 l 542 508 l 629 508 l 589 322 q 576 216 576 251 q 613 100 576 142 q 715 57 651 57 q 885 162 827 57 q 944 466 944 267 q 917 694 944 578 l 1011 694 q 1037 473 1037 587 q 952 111 1037 239 q 715 -17 868 -17 q 578 25 632 -17 q 511 139 525 68 l 508 139 m 693 1049 l 781 1049 l 625 802 l 579 802 l 693 1049 z "},"Ё":{"ha":681,"x_min":51,"x_max":728,"o":"m 256 972 l 728 972 l 711 892 l 330 892 l 252 529 l 606 529 l 589 448 l 235 448 l 157 81 l 562 81 l 545 0 l 51 0 l 256 972 m 569 1108 q 585 1147 569 1130 q 625 1164 600 1164 q 666 1148 648 1164 q 684 1108 684 1132 q 667 1067 684 1084 q 626 1051 650 1051 q 586 1067 602 1051 q 569 1108 569 1082 m 326 1108 q 342 1147 326 1131 q 382 1164 359 1164 q 424 1148 406 1164 q 441 1108 441 1132 q 424 1068 441 1084 q 382 1051 407 1051 q 342 1067 359 1051 q 326 1108 326 1083 z "},"Ђ":{"ha":1003,"x_min":165,"x_max":899,"o":"m 429 892 l 165 892 l 182 972 l 847 972 l 830 892 l 517 892 l 444 550 l 626 550 q 824 481 749 550 q 899 296 899 412 q 860 136 899 208 q 751 25 822 65 q 590 -15 680 -15 q 470 3 517 -15 l 487 87 q 591 64 536 64 q 746 127 688 64 q 804 289 804 189 q 749 422 804 373 q 602 471 695 471 l 427 471 l 328 0 l 239 0 l 429 892 z "},"Ѓ":{"ha":645,"x_min":51,"x_max":736,"o":"m 257 972 l 736 972 l 718 890 l 330 890 l 140 0 l 51 0 l 257 972 m 638 1273 l 729 1273 l 516 1050 l 442 1050 l 638 1273 z "},"Є":{"ha":864,"x_min":98,"x_max":904,"o":"m 657 539 l 640 458 l 193 458 l 191 404 q 273 154 191 243 q 502 64 355 64 q 757 130 637 64 l 737 34 q 615 -6 671 4 q 489 -17 559 -17 l 485 -17 q 201 95 303 -17 q 98 399 98 206 q 168 706 98 571 q 363 915 237 840 q 646 989 488 989 q 904 928 785 989 l 886 835 q 634 909 786 909 q 354 807 471 909 q 203 539 237 705 l 657 539 z "},"Ѕ":{"ha":690,"x_min":28,"x_max":688,"o":"m 43 135 q 151 84 87 105 q 277 64 214 64 q 437 110 380 64 q 493 239 493 157 q 460 343 493 297 q 336 455 427 389 q 205 584 243 522 q 167 721 167 646 q 255 914 167 839 q 481 989 342 989 q 688 949 587 989 l 671 857 q 474 909 590 909 q 319 859 378 909 q 260 730 260 810 q 292 622 260 667 q 409 513 323 576 q 548 382 510 440 q 586 251 586 323 q 548 111 586 172 q 440 17 511 50 q 272 -17 369 -17 q 145 -1 210 -17 q 28 42 81 14 l 43 135 z "},"Ї":{"ha":341,"x_min":51,"x_max":502,"o":"m 256 972 l 347 972 l 140 0 l 51 0 l 256 972 m 387 1108 q 403 1147 387 1130 q 443 1164 418 1164 q 484 1148 467 1164 q 502 1108 502 1132 q 485 1067 502 1084 q 444 1051 468 1051 q 404 1067 420 1051 q 387 1108 387 1082 m 144 1108 q 160 1147 144 1131 q 200 1164 177 1164 q 242 1148 224 1164 q 260 1108 260 1132 q 242 1068 260 1084 q 201 1051 225 1051 q 161 1067 178 1051 q 144 1108 144 1083 z "},"Љ":{"ha":1315,"x_min":-74,"x_max":1234,"o":"m -56 83 q 3 69 -31 69 q 93 104 56 69 q 174 234 130 140 q 294 538 218 328 q 444 972 370 749 l 907 972 l 817 549 l 943 549 q 1156 482 1078 549 q 1234 300 1234 414 q 1139 77 1234 155 q 867 0 1044 0 l 611 0 l 800 890 l 503 890 q 316 362 382 536 q 208 119 249 189 q 119 19 168 50 q 3 -12 71 -12 q -74 -2 -46 -12 l -56 83 m 865 81 q 1139 294 1139 81 q 1086 424 1139 378 q 925 469 1032 469 l 800 469 l 718 81 l 865 81 z "},"Њ":{"ha":1341,"x_min":51,"x_max":1261,"o":"m 256 972 l 347 972 l 256 549 l 738 549 l 828 972 l 918 972 l 828 549 l 969 549 q 1182 481 1104 549 q 1261 300 1261 413 q 1166 77 1261 155 q 894 0 1071 0 l 623 0 l 721 467 l 239 467 l 141 0 l 51 0 l 256 972 m 892 81 q 1166 294 1166 81 q 1113 424 1166 378 q 951 469 1059 469 l 811 469 l 729 81 l 892 81 z "},"Ћ":{"ha":994,"x_min":147,"x_max":888,"o":"m 429 892 l 147 892 l 164 972 l 814 972 l 796 892 l 518 892 l 448 560 l 642 560 q 825 509 762 560 q 888 357 888 458 q 883 298 888 333 q 821 0 877 262 l 732 0 l 785 256 q 796 338 796 314 q 624 479 796 479 l 430 479 l 330 0 l 239 0 l 429 892 z "},"Ќ":{"ha":779,"x_min":51,"x_max":871,"o":"m 256 972 l 347 972 l 250 515 l 252 515 l 267 530 l 751 972 l 871 972 l 336 494 l 681 0 l 570 0 l 264 452 l 245 486 l 243 486 l 140 0 l 51 0 l 256 972 m 664 1278 l 755 1278 l 542 1055 l 468 1055 l 664 1278 z "},"Ў":{"ha":755,"x_min":-15,"x_max":886,"o":"m 3 94 q 100 64 51 64 q 207 101 161 64 q 340 269 252 138 l 168 972 l 262 972 l 382 449 l 399 357 l 403 357 q 418 384 410 370 q 785 972 426 398 l 886 972 l 428 260 q 294 72 338 121 q 206 3 250 23 q 100 -17 163 -17 q 37 -10 70 -17 q -15 7 5 -3 l 3 94 m 407 1241 q 441 1142 410 1179 q 536 1105 472 1105 q 642 1142 599 1105 q 704 1241 684 1179 l 794 1241 q 690 1093 758 1145 q 534 1042 623 1042 q 384 1094 439 1042 q 322 1241 328 1146 l 407 1241 z "},"Џ":{"ha":964,"x_min":51,"x_max":970,"o":"m 256 972 l 346 972 l 157 81 l 691 81 l 880 972 l 970 972 l 764 0 l 454 0 l 400 -258 l 315 -258 l 372 0 l 51 0 l 256 972 z "},"А":{"ha":846,"x_min":-63,"x_max":760,"o":"m 508 972 l 597 972 l 760 0 l 668 0 l 621 288 l 206 288 l 37 0 l -63 0 l 508 972 m 608 369 l 542 802 q 537 872 537 839 l 534 872 l 528 857 q 509 818 524 846 q 251 369 494 790 l 608 369 z "},"Б":{"ha":769,"x_min":51,"x_max":755,"o":"m 256 972 l 755 972 l 738 890 l 329 890 l 256 549 l 413 549 q 626 481 547 549 q 705 300 705 414 q 610 77 705 155 q 338 0 515 0 l 51 0 l 256 972 m 336 81 q 610 294 610 81 q 556 424 610 379 q 395 469 502 469 l 239 469 l 158 81 l 336 81 z "},"В":{"ha":771,"x_min":51,"x_max":739,"o":"m 256 972 l 507 972 q 677 916 614 972 q 739 764 739 859 q 682 592 739 661 q 522 503 625 523 l 522 500 q 640 433 597 486 q 684 301 684 380 q 591 79 684 159 q 336 0 499 0 l 51 0 l 256 972 m 397 544 q 581 599 515 544 q 646 750 646 654 q 605 853 646 815 q 485 892 563 892 l 330 892 l 255 544 l 397 544 m 332 81 q 591 294 591 81 q 536 419 591 375 q 374 464 481 464 l 238 464 l 159 81 l 332 81 z "},"Г":{"ha":645,"x_min":51,"x_max":736,"o":"m 257 972 l 736 972 l 718 890 l 330 890 l 140 0 l 51 0 l 257 972 z "},"Д":{"ha":963,"x_min":-92,"x_max":921,"o":"m -21 81 l 54 81 q 293 395 200 203 q 474 972 385 587 l 921 972 l 732 81 l 876 81 l 804 -255 l 719 -255 l 774 0 l 46 0 l -7 -255 l -92 -255 l -21 81 m 642 81 l 814 890 l 541 890 q 371 372 463 570 q 170 81 279 175 l 642 81 z "},"Е":{"ha":681,"x_min":51,"x_max":728,"o":"m 256 972 l 728 972 l 711 892 l 330 892 l 252 529 l 606 529 l 589 448 l 235 448 l 157 81 l 562 81 l 545 0 l 51 0 l 256 972 z "},"Ж":{"ha":1098,"x_min":-77,"x_max":1202,"o":"m 446 505 l 161 972 l 263 972 l 520 536 q 533 510 531 517 l 536 510 l 634 972 l 721 972 l 624 514 l 627 514 q 649 538 633 525 l 1090 972 l 1202 972 l 710 497 l 1015 0 l 905 0 l 634 463 l 623 488 l 619 488 l 515 0 l 429 0 l 531 485 l 528 485 l 508 463 l 41 0 l -77 0 l 446 505 z "},"З":{"ha":709,"x_min":-20,"x_max":701,"o":"m -1 136 q 126 81 52 103 q 269 60 200 60 q 462 119 393 60 q 531 279 531 178 q 296 465 531 465 l 202 465 l 219 543 l 309 543 q 535 599 460 543 q 611 762 611 656 q 566 872 611 832 q 443 912 520 912 q 328 895 393 912 q 202 846 263 877 l 218 937 q 335 975 271 961 q 457 989 399 989 q 635 930 570 989 q 701 772 701 872 q 634 595 701 667 q 450 503 567 523 l 450 500 q 574 425 529 485 q 620 282 620 365 q 577 126 620 195 q 453 21 534 58 q 262 -17 372 -17 q -20 48 109 -17 l -1 136 z "},"И":{"ha":1006,"x_min":51,"x_max":1011,"o":"m 256 972 l 343 972 l 190 245 q 169 161 184 218 l 172 161 l 258 258 l 930 972 l 1011 972 l 806 0 l 719 0 l 872 725 l 895 821 l 892 821 q 854 776 875 798 q 126 0 834 754 l 51 0 l 256 972 z "},"Й":{"ha":1006,"x_min":51,"x_max":1011,"o":"m 256 972 l 343 972 l 190 245 q 169 161 184 218 l 172 161 l 258 258 l 930 972 l 1011 972 l 806 0 l 719 0 l 872 725 l 895 821 l 892 821 q 854 776 875 798 q 126 0 834 754 l 51 0 l 256 972 m 521 1241 q 555 1142 524 1179 q 650 1105 586 1105 q 755 1142 713 1105 q 818 1241 798 1179 l 908 1241 q 804 1093 872 1145 q 648 1042 736 1042 q 497 1094 553 1042 q 436 1241 442 1146 l 521 1241 z "},"К":{"ha":779,"x_min":51,"x_max":871,"o":"m 256 972 l 347 972 l 250 515 l 252 515 l 267 530 l 751 972 l 871 972 l 336 494 l 681 0 l 570 0 l 264 452 l 245 486 l 243 486 l 140 0 l 51 0 l 256 972 z "},"Л":{"ha":901,"x_min":-74,"x_max":907,"o":"m -56 83 q 3 69 -31 69 q 94 107 56 69 q 178 244 132 145 q 291 532 223 344 q 444 972 359 720 l 907 972 l 700 0 l 610 0 l 800 890 l 503 890 q 318 368 383 537 q 211 126 254 199 q 120 21 169 54 q 3 -12 71 -12 q -74 -2 -46 -12 l -56 83 z "},"М":{"ha":1147,"x_min":51,"x_max":1152,"o":"m 257 972 l 350 972 l 538 469 q 563 375 559 411 l 567 375 q 629 463 606 435 l 1048 972 l 1152 972 l 945 0 l 859 0 l 1008 701 q 1046 853 1025 775 l 1044 853 q 1036 839 1041 847 q 981 760 1031 831 l 564 254 l 526 254 l 338 757 q 333 775 336 764 q 326 799 329 786 q 319 826 322 812 q 315 853 316 840 l 313 853 q 300 773 309 826 q 136 0 290 720 l 51 0 l 257 972 z "},"Н":{"ha":960,"x_min":51,"x_max":966,"o":"m 256 972 l 347 972 l 254 536 l 783 536 l 876 972 l 966 972 l 760 0 l 670 0 l 766 454 l 236 454 l 141 0 l 51 0 l 256 972 z "},"О":{"ha":1047,"x_min":98,"x_max":1009,"o":"m 490 -17 q 204 98 310 -17 q 98 400 98 213 q 167 701 98 566 q 355 912 236 836 q 622 989 475 989 q 903 874 798 989 q 1009 576 1009 760 q 943 275 1009 412 q 758 60 876 138 q 490 -17 640 -17 m 494 64 q 711 127 616 64 q 861 313 806 191 q 916 572 916 434 q 835 818 916 728 q 616 909 753 909 q 398 843 496 909 q 245 659 299 777 q 191 400 191 541 q 272 154 191 243 q 494 64 353 64 z "},"П":{"ha":971,"x_min":51,"x_max":977,"o":"m 256 972 l 977 972 l 771 0 l 682 0 l 870 890 l 329 890 l 140 0 l 51 0 l 256 972 z "},"Р":{"ha":775,"x_min":51,"x_max":772,"o":"m 256 972 l 487 972 q 697 905 622 972 q 772 718 772 838 q 668 471 772 562 q 387 380 565 380 l 221 380 l 140 0 l 51 0 l 256 972 m 394 460 q 606 526 533 460 q 680 711 680 592 q 626 844 680 795 q 469 892 572 892 l 330 892 l 238 460 l 394 460 z "},"С":{"ha":882,"x_min":98,"x_max":911,"o":"m 490 -17 q 204 97 310 -17 q 98 401 98 210 q 169 707 98 573 q 365 915 239 841 q 648 989 491 989 q 911 926 793 989 l 892 832 q 641 909 785 909 q 409 845 511 909 q 248 668 306 782 q 191 413 191 554 q 275 156 191 248 q 508 64 359 64 q 768 132 648 64 l 747 37 q 627 -4 686 8 q 494 -17 568 -17 l 490 -17 z "},"Т":{"ha":720,"x_min":147,"x_max":814,"o":"m 429 892 l 147 892 l 164 972 l 814 972 l 796 892 l 518 892 l 330 0 l 239 0 l 429 892 z "},"У":{"ha":755,"x_min":-15,"x_max":886,"o":"m 3 94 q 100 64 51 64 q 207 101 161 64 q 340 269 252 138 l 168 972 l 262 972 l 382 449 l 399 357 l 403 357 q 418 384 410 370 q 785 972 426 398 l 886 972 l 428 260 q 294 72 338 121 q 206 3 250 23 q 100 -17 163 -17 q 37 -10 70 -17 q -15 7 5 -3 l 3 94 z "},"Ф":{"ha":1082,"x_min":93,"x_max":1043,"o":"m 446 132 l 401 132 q 176 217 258 132 q 93 444 93 301 q 147 665 93 566 q 300 821 201 765 q 524 877 398 877 l 604 877 l 627 984 l 714 984 l 691 877 l 735 877 q 959 792 875 877 q 1043 563 1043 708 q 988 342 1043 441 q 836 188 934 243 q 614 132 737 132 l 534 132 l 503 -12 l 415 -12 l 446 132 m 617 213 q 859 308 767 213 q 951 557 951 404 q 890 736 951 675 q 719 796 829 796 l 674 796 l 551 213 l 617 213 m 463 213 l 586 796 l 520 796 q 277 702 368 796 q 186 452 186 608 q 248 273 186 333 q 418 213 309 213 l 463 213 z "},"Х":{"ha":800,"x_min":-48,"x_max":893,"o":"m -48 0 l 376 495 q 277 744 363 533 l 183 972 l 286 972 l 422 608 q 441 549 433 581 l 444 549 q 486 609 460 578 l 787 972 l 893 972 l 488 490 l 500 460 l 684 0 l 581 0 l 440 372 l 431 402 l 422 433 l 419 433 q 375 370 399 399 l 66 0 l -48 0 z "},"Ц":{"ha":997,"x_min":51,"x_max":970,"o":"m 256 972 l 346 972 l 157 82 l 692 82 l 880 972 l 970 972 l 781 82 l 907 82 l 836 -255 l 751 -255 l 806 0 l 51 0 l 256 972 z "},"Ч":{"ha":879,"x_min":157,"x_max":885,"o":"m 685 447 q 378 358 503 358 q 213 405 270 358 q 157 540 157 451 q 165 605 157 564 l 241 972 l 332 972 l 256 618 q 248 549 248 576 q 283 467 248 496 q 393 437 319 437 q 544 461 469 437 q 701 524 620 486 l 795 972 l 885 972 l 680 0 l 590 0 l 685 447 z "},"Ш":{"ha":1228,"x_min":51,"x_max":1240,"o":"m 256 972 l 346 972 l 157 82 l 513 82 l 701 972 l 792 972 l 604 82 l 961 82 l 1149 972 l 1240 972 l 1034 0 l 51 0 l 256 972 z "},"Щ":{"ha":1267,"x_min":51,"x_max":1240,"o":"m 256 972 l 346 972 l 157 82 l 513 82 l 702 972 l 792 972 l 604 82 l 960 82 l 1149 972 l 1240 972 l 1050 82 l 1177 82 l 1106 -255 l 1021 -255 l 1076 0 l 51 0 l 256 972 z "},"Ъ":{"ha":972,"x_min":155,"x_max":897,"o":"m 432 890 l 155 890 l 172 972 l 539 972 l 449 549 l 602 549 q 818 483 739 549 q 897 302 897 416 q 802 78 897 157 q 530 0 707 0 l 243 0 l 432 890 m 527 81 q 732 133 663 81 q 802 296 802 184 q 748 424 802 380 q 586 469 693 469 l 432 469 l 350 81 l 527 81 z "},"Ы":{"ha":1057,"x_min":51,"x_max":1062,"o":"m 972 972 l 1062 972 l 857 0 l 767 0 l 972 972 m 256 972 l 347 972 l 256 549 l 382 549 q 595 482 516 549 q 673 300 673 415 q 578 77 673 155 q 307 0 484 0 l 51 0 l 256 972 m 306 81 q 579 294 579 81 q 525 424 579 379 q 364 469 471 469 l 239 469 l 158 81 l 306 81 z "},"Ь":{"ha":781,"x_min":51,"x_max":705,"o":"m 256 972 l 347 972 l 256 549 l 413 549 q 626 481 547 549 q 705 300 705 414 q 610 77 705 155 q 338 0 515 0 l 51 0 l 256 972 m 336 81 q 610 294 610 81 q 556 424 610 379 q 395 469 502 469 l 239 469 l 158 81 l 336 81 z "},"Э":{"ha":867,"x_min":20,"x_max":832,"o":"m 40 121 q 268 64 148 64 q 560 171 434 64 q 720 448 686 277 l 263 448 l 280 528 l 731 528 q 736 602 736 559 q 650 826 736 743 q 418 909 564 909 q 186 857 297 909 l 205 949 q 431 989 306 989 q 724 886 615 989 q 832 603 832 783 q 761 283 832 426 q 558 62 689 141 q 264 -17 428 -17 q 20 30 115 -17 l 40 121 z "},"Ю":{"ha":1323,"x_min":51,"x_max":1285,"o":"m 256 972 l 347 972 l 256 547 l 452 547 q 541 777 475 675 q 706 933 607 878 q 922 989 804 989 q 1188 875 1092 989 q 1285 572 1285 762 q 1222 270 1285 408 q 1048 58 1159 132 q 802 -17 937 -17 q 606 34 688 -17 q 482 180 525 85 q 439 399 439 275 l 441 464 l 239 464 l 141 0 l 51 0 l 256 972 m 808 64 q 1006 130 918 64 q 1142 312 1094 195 q 1191 568 1191 429 q 1119 816 1191 724 q 920 908 1046 908 q 721 844 810 908 q 582 663 632 779 q 532 406 532 546 q 604 154 532 244 q 808 64 677 64 z "},"Я":{"ha":793,"x_min":-33,"x_max":798,"o":"m 341 452 q 219 527 271 465 q 168 671 168 589 l 168 675 l 168 678 q 263 892 168 811 q 522 972 359 972 l 528 972 l 798 972 l 593 0 l 504 0 l 594 425 l 473 425 q 358 390 408 425 q 257 277 309 356 l 74 0 l -33 0 l 172 302 q 340 450 248 413 l 341 452 m 610 505 l 694 892 l 530 892 q 333 834 404 892 q 262 673 262 777 q 316 550 262 596 q 461 505 370 505 l 610 505 z "},"а":{"ha":739,"x_min":54,"x_max":697,"o":"m 487 0 q 510 187 490 71 l 507 187 q 385 30 445 77 q 252 -17 325 -17 q 106 49 158 -17 q 54 235 54 115 q 110 478 54 365 q 263 651 166 591 q 479 711 359 711 q 697 685 566 711 l 604 237 q 585 115 595 192 q 575 0 575 37 l 487 0 m 599 623 q 468 637 534 637 q 302 587 376 637 q 185 444 228 536 q 142 241 142 352 q 272 58 142 58 q 385 105 327 58 q 490 241 442 153 q 557 417 537 328 l 599 623 z "},"б":{"ha":745,"x_min":73,"x_max":780,"o":"m 191 562 q 458 694 298 694 q 629 624 566 694 q 691 431 691 553 q 644 202 691 306 q 512 41 596 98 q 324 -17 429 -17 q 136 62 200 -17 q 73 296 73 142 q 100 528 73 414 q 174 724 127 641 q 284 899 223 838 q 446 987 346 959 q 780 1027 546 1015 l 761 943 q 459 918 539 935 q 330 860 378 901 q 243 731 281 819 q 188 562 204 643 l 191 562 m 157 288 q 201 116 157 174 q 331 58 245 58 q 526 161 448 58 q 603 422 603 264 q 559 572 603 524 q 440 621 516 621 q 298 579 368 621 q 173 456 228 537 q 157 288 157 391 z "},"в":{"ha":690,"x_min":56,"x_max":649,"o":"m 460 365 q 572 323 530 359 q 613 220 613 286 q 575 100 613 155 q 468 14 537 45 q 303 -17 398 -17 q 116 40 175 -17 q 56 224 56 98 q 158 567 56 422 q 448 711 260 711 q 596 669 543 711 q 649 556 649 627 q 600 430 649 480 q 460 365 550 380 m 161 385 q 409 406 332 390 q 524 455 486 422 q 562 543 562 488 q 530 614 562 588 q 438 640 498 640 q 261 573 332 640 q 161 385 191 507 m 142 224 q 183 96 142 136 q 313 56 224 56 q 465 100 404 56 q 526 214 526 144 q 481 298 526 273 q 355 323 437 323 q 151 313 281 323 q 142 224 142 273 z "},"г":{"ha":559,"x_min":17,"x_max":534,"o":"m 233 -17 q 75 30 132 -17 q 17 157 17 76 q 67 282 17 233 q 258 383 118 332 q 409 458 370 425 q 448 543 448 492 q 414 612 448 587 q 317 637 380 637 q 131 588 223 637 l 150 675 q 235 702 186 693 q 328 711 283 711 q 479 667 425 711 q 534 547 534 623 q 480 419 534 471 q 308 325 427 368 q 170 265 205 286 q 119 220 135 244 q 103 159 103 196 q 141 87 103 115 q 242 58 178 58 q 448 123 348 58 l 427 26 q 233 -17 351 -17 z "},"д":{"ha":745,"x_min":54,"x_max":720,"o":"m 440 1028 q 720 690 720 1028 q 666 329 720 493 q 515 74 612 165 q 290 -17 418 -17 q 118 57 182 -17 q 54 253 54 131 q 103 473 54 370 q 235 636 151 576 q 422 696 319 696 q 541 663 486 696 q 625 574 597 629 l 628 574 q 635 690 635 615 q 583 892 635 829 q 430 955 532 955 q 334 941 385 955 q 248 904 282 926 l 267 992 q 345 1018 296 1008 q 440 1028 393 1028 m 614 481 q 536 583 591 545 q 420 622 482 622 q 278 573 342 622 q 178 438 214 524 q 142 256 142 353 q 185 111 142 165 q 299 57 228 57 q 502 173 416 57 q 614 481 587 289 z "},"е":{"ha":661,"x_min":54,"x_max":634,"o":"m 142 263 q 193 112 142 165 q 336 58 245 58 q 535 120 429 58 l 519 35 q 323 -17 427 -17 q 124 59 194 -17 q 54 272 54 135 q 105 491 54 389 q 241 652 155 593 q 427 711 328 711 q 577 664 521 711 q 634 538 634 617 q 516 360 634 418 q 143 299 399 302 l 142 263 m 153 372 q 451 411 355 372 q 547 532 547 450 q 512 610 547 583 q 416 637 478 637 q 250 563 324 637 q 153 372 176 488 z "},"ж":{"ha":954,"x_min":-61,"x_max":1007,"o":"m 355 358 l 106 694 l 201 694 l 437 364 l 440 364 l 511 694 l 595 694 l 524 363 l 526 363 l 903 694 l 1007 694 l 606 352 l 863 0 l 761 0 l 522 341 l 519 341 l 448 0 l 363 0 l 436 341 l 433 341 l 50 0 l -61 0 l 355 358 z "},"з":{"ha":611,"x_min":-3,"x_max":566,"o":"m 11 126 q 239 58 121 58 q 384 96 332 58 q 437 200 437 134 q 251 322 437 322 l 149 322 l 163 395 l 256 395 q 421 433 368 395 q 475 532 475 470 q 326 637 475 637 q 99 574 218 637 l 116 664 q 339 711 218 711 q 507 667 449 711 q 566 543 566 623 q 383 362 566 393 l 383 359 q 487 307 447 351 q 527 201 527 263 q 492 89 527 139 q 393 12 458 39 q 239 -16 328 -16 q 107 -1 178 -16 q -3 36 37 14 l 11 126 z "},"и":{"ha":761,"x_min":73,"x_max":722,"o":"m 176 694 l 262 694 l 178 292 q 161 184 161 209 q 271 58 161 58 q 385 100 323 58 q 498 216 446 142 q 566 363 550 290 l 637 694 l 722 694 l 616 195 q 583 0 593 90 l 500 0 l 529 182 l 526 182 q 395 35 467 86 q 248 -17 323 -17 q 117 33 160 -17 q 73 174 73 83 q 80 238 73 194 q 94 309 87 282 l 176 694 z "},"й":{"ha":761,"x_min":73,"x_max":728,"o":"m 176 694 l 262 694 l 178 292 q 161 184 161 209 q 271 58 161 58 q 385 100 323 58 q 498 216 446 142 q 566 363 550 290 l 637 694 l 722 694 l 616 195 q 583 0 593 90 l 500 0 l 529 182 l 526 182 q 395 35 467 86 q 248 -17 323 -17 q 117 33 160 -17 q 73 174 73 83 q 80 238 73 194 q 94 309 87 282 l 176 694 m 341 1004 q 375 905 344 942 q 471 868 406 868 q 576 905 533 868 q 638 1004 618 942 l 728 1004 q 625 856 692 907 q 468 804 557 804 q 318 857 373 804 q 256 1004 262 909 l 341 1004 z "},"к":{"ha":640,"x_min":36,"x_max":688,"o":"m 184 694 l 269 694 l 202 377 l 205 377 l 573 694 l 688 694 l 289 358 l 550 0 l 448 0 l 200 353 l 197 353 l 122 0 l 36 0 l 184 694 z "},"л":{"ha":703,"x_min":-68,"x_max":671,"o":"m -54 71 q -16 65 -36 65 q 95 118 47 65 q 191 293 142 171 q 320 694 240 416 l 671 694 l 524 0 l 438 0 l 570 621 l 377 621 q 234 198 284 306 q 127 40 184 90 q -12 -9 69 -9 q -68 -3 -52 -9 l -54 71 z "},"м":{"ha":927,"x_min":36,"x_max":892,"o":"m 183 694 l 285 694 l 382 223 q 404 90 393 169 l 479 220 l 771 694 l 892 694 l 745 0 l 661 0 l 786 589 l 735 503 l 425 0 l 352 0 l 257 459 l 237 589 l 113 0 l 36 0 l 183 694 z "},"н":{"ha":769,"x_min":35,"x_max":737,"o":"m 182 694 l 267 694 l 203 396 l 588 396 l 652 694 l 737 694 l 590 0 l 505 0 l 572 326 l 188 326 l 120 0 l 35 0 l 182 694 z "},"о":{"ha":730,"x_min":54,"x_max":676,"o":"m 304 -17 q 121 55 189 -17 q 54 254 54 126 q 102 486 54 380 q 236 651 150 591 q 427 711 323 711 q 609 639 542 711 q 676 441 676 567 q 628 207 676 313 q 495 42 581 102 q 304 -17 410 -17 m 311 58 q 452 108 387 58 q 552 245 516 158 q 589 435 589 332 q 544 585 589 533 q 420 637 498 637 q 223 528 304 637 q 142 260 142 419 q 187 111 142 165 q 311 58 233 58 z "},"п":{"ha":764,"x_min":39,"x_max":688,"o":"m 178 694 l 262 694 q 233 513 252 622 l 235 513 q 366 660 294 608 q 514 711 438 711 q 688 523 688 711 q 667 385 688 486 l 585 0 l 500 0 l 583 403 q 600 510 600 486 q 490 637 600 637 q 372 591 436 637 q 259 474 307 545 q 195 331 210 402 l 125 0 l 39 0 l 146 498 q 178 694 165 593 z "},"р":{"ha":739,"x_min":-33,"x_max":684,"o":"m 159 694 l 245 694 q 237 603 245 671 q 222 507 228 535 l 225 507 q 488 711 338 711 q 633 647 582 711 q 684 458 684 583 q 628 217 684 328 q 478 44 572 105 q 269 -17 383 -17 q 123 9 193 -17 l 52 -324 l -33 -324 l 136 477 q 152 594 144 519 q 159 694 159 669 m 138 85 q 279 58 197 58 q 441 110 368 58 q 555 253 514 162 q 597 450 597 343 q 464 637 597 637 q 349 587 408 637 q 243 452 290 536 q 178 278 197 367 l 138 85 z "},"с":{"ha":585,"x_min":54,"x_max":598,"o":"m 300 -17 q 120 58 185 -17 q 54 262 54 133 q 103 490 54 386 q 240 653 153 594 q 433 711 328 711 q 598 665 531 711 l 578 577 q 423 637 517 637 q 278 587 344 637 q 176 450 213 536 q 140 268 140 364 q 186 113 140 168 q 314 58 232 58 q 494 127 397 58 l 473 34 q 382 -6 419 5 q 300 -17 345 -17 z "},"т":{"ha":1172,"x_min":36,"x_max":1097,"o":"m 176 694 l 259 694 q 230 513 250 622 l 233 513 q 498 711 356 711 q 620 661 582 711 q 660 513 659 611 q 789 660 719 608 q 934 711 860 711 q 1097 523 1097 711 q 1077 385 1097 483 l 995 0 l 910 0 l 993 403 q 1010 516 1010 481 q 910 637 1010 637 q 801 593 861 637 q 693 475 742 549 q 629 333 645 402 l 559 0 l 473 0 l 557 403 q 574 510 574 481 q 474 637 574 637 q 365 592 425 637 q 256 473 304 547 q 193 331 207 399 l 122 0 l 36 0 l 143 498 q 176 694 170 630 z "},"у":{"ha":649,"x_min":-111,"x_max":724,"o":"m -94 -236 q -41 -248 -73 -248 q 47 -220 8 -248 q 123 -132 86 -191 l 211 6 l 87 694 l 174 694 l 265 146 l 270 94 l 273 94 l 291 130 l 627 694 l 724 694 l 220 -123 q 88 -282 148 -239 q -49 -326 28 -326 q -111 -316 -87 -326 l -94 -236 z "},"ф":{"ha":1077,"x_min":54,"x_max":1023,"o":"m 205 -246 q 252 -256 227 -256 q 349 -209 311 -256 q 413 -50 387 -162 l 433 39 q 255 -17 350 -17 q 110 55 165 -17 q 54 239 54 126 q 100 479 54 370 q 227 650 146 588 q 408 711 307 711 q 501 697 460 711 q 564 659 542 682 l 596 806 q 821 1030 646 1030 q 886 1021 848 1030 l 878 949 q 829 960 857 960 q 733 920 771 960 q 679 804 694 881 l 647 655 q 825 711 729 711 q 969 642 916 711 q 1023 454 1023 572 q 977 215 1023 324 q 851 44 931 106 q 671 -17 770 -17 q 578 -3 618 -17 q 515 36 537 12 l 496 -47 q 406 -258 464 -191 q 255 -326 348 -326 q 196 -316 218 -326 l 205 -246 m 531 114 q 587 71 549 86 q 666 56 625 56 q 860 167 785 56 q 935 448 935 278 q 900 589 935 541 q 804 638 865 638 q 630 576 707 638 l 531 114 m 546 580 q 492 621 531 604 q 413 638 453 638 q 219 527 295 638 q 142 245 142 416 q 178 107 142 159 q 275 56 214 56 q 446 118 372 56 l 546 580 z "},"х":{"ha":614,"x_min":-51,"x_max":665,"o":"m 258 344 l 103 694 l 197 694 l 304 425 l 313 395 l 317 395 l 356 446 l 565 694 l 665 694 l 352 338 l 511 0 l 414 -1 q 296 288 323 220 l 293 288 l 254 237 l 54 0 l -51 0 l 258 344 z "},"ц":{"ha":783,"x_min":73,"x_max":724,"o":"m 604 -1 q 517 70 517 -1 q 532 185 517 119 l 529 185 q 247 -17 402 -17 q 73 172 73 -17 q 78 218 73 186 q 176 694 82 250 l 262 694 l 180 298 q 162 186 162 213 q 274 58 162 58 q 390 104 326 58 q 505 227 454 151 q 569 372 555 303 l 637 694 l 724 694 l 625 237 q 608 115 608 149 q 661 71 608 71 q 697 74 686 71 l 614 -257 l 527 -257 l 604 -1 z "}}}
